<?xml version="1.0" encoding="utf-8"?>
<svg width="345" height="310" viewBox="0 0 345 310" fill="none" xmlns="http://www.w3.org/2000/svg">
  <defs>
    <filter color-interpolation-filters="sRGB" x="-265" y="-265" width="267" height="267" id="filter_1">
      <feFlood flood-opacity="0" result="BackgroundImageFix_1" />
      <feColorMatrix type="matrix" values="0 0 0 0 0 0 0 0 0 0 0 0 0 0 0 0 0 0 1 0" in="SourceAlpha" />
      <feOffset dx="0" dy="4" />
      <feGaussianBlur stdDeviation="2" />
      <feColorMatrix type="matrix" values="0 0 0 0 0 0 0 0 0 0 0 0 0 0 0 0 0 0 0.251 0" />
      <feBlend mode="normal" in2="BackgroundImageFix_1" result="Shadow_2" />
      <feBlend mode="normal" in="SourceGraphic" in2="Shadow_2" result="Shape_3" />
    </filter>
  </defs>
  <g id="Group" transform="translate(6 2)">
    <path id="Rectangle" d="M18.4063 0L18.5938 0Q19.0456 0 19.4969 0.0221711Q19.9482 0.0443423 20.3979 0.0886311Q20.8475 0.13292 21.2945 0.19922Q21.7415 0.26552 22.1846 0.353671Q22.6278 0.441822 23.0661 0.551612Q23.5044 0.661402 23.9368 0.792567Q24.3692 0.923731 24.7946 1.07595Q25.2201 1.22818 25.6375 1.40109Q26.055 1.57401 26.4634 1.7672Q26.8719 1.96039 27.2704 2.17339Q27.6689 2.38639 28.0565 2.61868Q28.444 2.85098 28.8197 3.10201Q29.1954 3.35305 29.5583 3.62221Q29.9213 3.89138 30.2706 4.17803Q30.6198 4.46468 30.9546 4.76812Q31.2894 5.07156 31.6089 5.39107Q31.9284 5.71057 32.2319 6.04537Q32.5353 6.38017 32.822 6.72945Q33.1086 7.07873 33.3778 7.44166Q33.647 7.80459 33.898 8.18028Q34.149 8.55598 34.3813 8.94355Q34.6136 9.33111 34.8266 9.7296Q35.0396 10.1281 35.2328 10.5366Q35.426 10.945 35.5989 11.3625Q35.7718 11.7799 35.924 12.2054Q36.0763 12.6308 36.2074 13.0632Q36.3386 13.4956 36.4484 13.9339Q36.5582 14.3722 36.6463 14.8154Q36.7345 15.2585 36.8008 15.7055Q36.8671 16.1524 36.9114 16.6021Q36.9557 17.0518 36.9778 17.5031Q37 17.9544 37 18.4063L37 72.5938Q37 73.0456 36.9778 73.4969Q36.9557 73.9482 36.9114 74.3979Q36.8671 74.8475 36.8008 75.2945Q36.7345 75.7415 36.6463 76.1846Q36.5582 76.6278 36.4484 77.0661Q36.3386 77.5044 36.2074 77.9368Q36.0763 78.3692 35.924 78.7946Q35.7718 79.2201 35.5989 79.6375Q35.426 80.055 35.2328 80.4634Q35.0396 80.8719 34.8266 81.2704Q34.6136 81.6689 34.3813 82.0565Q34.149 82.444 33.898 82.8197Q33.647 83.1954 33.3778 83.5583Q33.1086 83.9213 32.822 84.2706Q32.5353 84.6198 32.2319 84.9546Q31.9284 85.2894 31.6089 85.6089Q31.2894 85.9284 30.9546 86.2319Q30.6198 86.5353 30.2706 86.822Q29.9213 87.1086 29.5583 87.3778Q29.1954 87.6469 28.8197 87.898Q28.444 88.149 28.0565 88.3813Q27.6689 88.6136 27.2704 88.8266Q26.8719 89.0396 26.4634 89.2328Q26.055 89.426 25.6375 89.5989Q25.2201 89.7718 24.7946 89.924Q24.3692 90.0763 23.9368 90.2074Q23.5044 90.3386 23.0661 90.4484Q22.6278 90.5582 22.1846 90.6463Q21.7415 90.7345 21.2945 90.8008Q20.8475 90.8671 20.3979 90.9114Q19.9482 90.9557 19.4969 90.9778Q19.0456 91 18.5938 91L18.4063 91Q17.9544 91 17.5031 90.9778Q17.0518 90.9557 16.6021 90.9114Q16.1524 90.8671 15.7055 90.8008Q15.2585 90.7345 14.8154 90.6463Q14.3722 90.5582 13.9339 90.4484Q13.4956 90.3386 13.0632 90.2074Q12.6308 90.0763 12.2054 89.924Q11.7799 89.7718 11.3625 89.5989Q10.945 89.426 10.5366 89.2328Q10.1281 89.0396 9.7296 88.8266Q9.33111 88.6136 8.94355 88.3813Q8.55598 88.149 8.18028 87.898Q7.80459 87.6469 7.44166 87.3778Q7.07873 87.1086 6.72945 86.822Q6.38017 86.5353 6.04537 86.2319Q5.71057 85.9284 5.39107 85.6089Q5.07156 85.2894 4.76812 84.9546Q4.46468 84.6198 4.17803 84.2705Q3.89138 83.9213 3.62221 83.5583Q3.35305 83.1954 3.10201 82.8197Q2.85098 82.444 2.61868 82.0564Q2.38639 81.6689 2.17339 81.2704Q1.96039 80.8719 1.7672 80.4634Q1.57401 80.055 1.40109 79.6375Q1.22818 79.2201 1.07595 78.7946Q0.923731 78.3692 0.792567 77.9368Q0.661402 77.5044 0.551612 77.0661Q0.441822 76.6278 0.353671 76.1846Q0.26552 75.7415 0.19922 75.2945Q0.13292 74.8475 0.0886311 74.3979Q0.0443423 73.9482 0.0221711 73.4969Q0 73.0456 0 72.5938L0 66.3828Q0 66.0788 0.0149156 65.7752Q0.0298313 65.4716 0.0596266 65.1691Q0.089422 64.8666 0.134025 64.5659Q0.178629 64.2652 0.237932 63.967Q0.297236 63.6689 0.371097 63.374Q0.444959 63.0792 0.5332 62.7883Q0.621441 62.4974 0.723849 62.2112Q0.826257 61.925 0.942586 61.6441Q1.05891 61.3633 1.18888 61.0885Q1.31885 60.8137 1.46215 60.5456Q1.60544 60.2775 1.76172 60.0168Q1.918 59.756 2.08688 59.5033Q2.25576 59.2505 2.43684 59.0064Q2.61793 58.7622 2.81077 58.5272Q3.00361 58.2923 3.20775 58.067Q3.4119 57.8418 3.62684 57.6268Q3.84179 57.4119 4.06702 57.2078Q4.29226 57.0036 4.52724 56.8108Q4.76222 56.6179 5.00638 56.4368Q5.25054 56.2558 5.50329 56.0869Q5.75604 55.918 6.01677 55.7617Q6.27751 55.6054 6.5456 55.4622Q6.81368 55.3189 7.08848 55.1889Q7.36327 55.0589 7.64412 54.9426Q7.92496 54.8263 8.21117 54.7239Q8.49738 54.6214 8.78827 54.5332Q9.07916 54.445 9.37403 54.3711Q9.66891 54.2972 9.96705 54.2379Q10.2652 54.1786 10.5659 54.134Q10.8666 54.0894 11.1691 54.0596Q11.4716 54.0298 11.7752 54.0149Q12.0788 54 12.3828 54L16.5645 54Q16.7706 54 16.9765 53.9899Q17.1825 53.9798 17.3876 53.9596Q17.5928 53.9394 17.7968 53.9091Q18.0007 53.8788 18.2029 53.8386Q18.4051 53.7984 18.6051 53.7483Q18.8051 53.6982 19.0024 53.6384Q19.1997 53.5785 19.3938 53.5091Q19.5879 53.4396 19.7784 53.3607Q19.9689 53.2818 20.1552 53.1937Q20.3416 53.1055 20.5235 53.0083Q20.7053 52.9111 20.8821 52.8051Q21.059 52.6992 21.2304 52.5846Q21.4018 52.4701 21.5674 52.3473Q21.733 52.2244 21.8924 52.0937Q22.0517 51.9629 22.2045 51.8244Q22.3573 51.6859 22.503 51.5402Q22.6488 51.3944 22.7873 51.2416Q22.9257 51.0889 23.0565 50.9295Q23.1873 50.7701 23.3101 50.6045Q23.433 50.4389 23.5475 50.2675Q23.662 50.0961 23.768 49.9192Q23.874 49.7424 23.9712 49.5606Q24.0684 49.3787 24.1565 49.1924Q24.2447 49.006 24.3236 48.8155Q24.4025 48.625 24.472 48.4309Q24.5414 48.2368 24.6013 48.0395Q24.6611 47.8422 24.7112 47.6422Q24.7613 47.4422 24.8015 47.24Q24.8417 47.0378 24.872 46.8339Q24.9022 46.6299 24.9225 46.4248Q24.9427 46.2196 24.9528 46.0137Q24.9629 45.8077 24.9629 45.6016L24.9629 45.3984Q24.9629 45.1923 24.9528 44.9863Q24.9427 44.7804 24.9224 44.5752Q24.9022 44.3701 24.872 44.1661Q24.8417 43.9622 24.8015 43.76Q24.7613 43.5578 24.7112 43.3578Q24.6611 43.1578 24.6013 42.9605Q24.5414 42.7632 24.472 42.5691Q24.4025 42.375 24.3236 42.1845Q24.2447 41.994 24.1565 41.8076Q24.0684 41.6213 23.9712 41.4394Q23.874 41.2576 23.768 41.0808Q23.662 40.9039 23.5475 40.7325Q23.433 40.5611 23.3101 40.3955Q23.1873 40.2299 23.0565 40.0705Q22.9257 39.9111 22.7873 39.7584Q22.6488 39.6056 22.503 39.4598Q22.3573 39.3141 22.2045 39.1756Q22.0517 39.0371 21.8924 38.9064Q21.733 38.7756 21.5674 38.6527Q21.4018 38.5299 21.2304 38.4154Q21.0589 38.3008 20.8821 38.1949Q20.7053 38.0889 20.5234 37.9917Q20.3416 37.8945 20.1552 37.8063Q19.9689 37.7182 19.7784 37.6393Q19.5879 37.5604 19.3938 37.4909Q19.1997 37.4215 19.0024 37.3616Q18.8051 37.3018 18.6051 37.2517Q18.4051 37.2016 18.2029 37.1614Q18.0007 37.1212 17.7968 37.0909Q17.5928 37.0607 17.3876 37.0404Q17.1825 37.0202 16.9765 37.0101Q16.7706 37 16.5645 37L12.3828 37Q12.0788 37 11.7752 36.9851Q11.4716 36.9702 11.1691 36.9404Q10.8666 36.9106 10.5659 36.866Q10.2652 36.8214 9.96704 36.7621Q9.6689 36.7028 9.37403 36.6289Q9.07916 36.555 8.78827 36.4668Q8.49738 36.3786 8.21117 36.2761Q7.92496 36.1737 7.64411 36.0574Q7.36327 35.9411 7.08848 35.8111Q6.81368 35.6811 6.5456 35.5378Q6.27751 35.3946 6.01677 35.2383Q5.75604 35.082 5.50329 34.9131Q5.25054 34.7442 5.00638 34.5632Q4.76222 34.3821 4.52724 34.1892Q4.29226 33.9964 4.06702 33.7922Q3.84179 33.5881 3.62684 33.3732Q3.41189 33.1582 3.20775 32.933Q3.00361 32.7077 2.81077 32.4728Q2.61793 32.2378 2.43684 31.9936Q2.25576 31.7495 2.08688 31.4967Q1.918 31.244 1.76172 30.9832Q1.60544 30.7225 1.46215 30.4544Q1.31885 30.1863 1.18888 29.9115Q1.05891 29.6367 0.942585 29.3559Q0.826257 29.075 0.723849 28.7888Q0.621441 28.5026 0.5332 28.2117Q0.444959 27.9208 0.371097 27.626Q0.297236 27.3311 0.237932 27.033Q0.178628 26.7348 0.134025 26.4341Q0.089422 26.1334 0.0596266 25.8309Q0.0298313 25.5284 0.0149156 25.2248Q0 24.9212 0 24.6172L0 18.4063Q0 17.9544 0.0221711 17.5031Q0.0443423 17.0518 0.0886311 16.6021Q0.13292 16.1524 0.19922 15.7055Q0.26552 15.2585 0.353671 14.8154Q0.441822 14.3722 0.551612 13.9339Q0.661402 13.4956 0.792567 13.0632Q0.923731 12.6308 1.07595 12.2054Q1.22818 11.7799 1.40109 11.3625Q1.57401 10.945 1.7672 10.5366Q1.96039 10.1281 2.17339 9.7296Q2.38639 9.33111 2.61868 8.94355Q2.85098 8.55598 3.10201 8.18028Q3.35305 7.80459 3.62221 7.44166Q3.89138 7.07873 4.17803 6.72945Q4.46468 6.38017 4.76812 6.04537Q5.07156 5.71057 5.39107 5.39107Q5.71057 5.07156 6.04537 4.76812Q6.38017 4.46468 6.72945 4.17803Q7.07873 3.89138 7.44166 3.62221Q7.80459 3.35305 8.18028 3.10201Q8.55598 2.85098 8.94355 2.61868Q9.33111 2.38639 9.7296 2.17339Q10.1281 1.96039 10.5366 1.7672Q10.945 1.57401 11.3625 1.40109Q11.7799 1.22818 12.2054 1.07595Q12.6308 0.923731 13.0632 0.792567Q13.4956 0.661402 13.9339 0.551612Q14.3722 0.441822 14.8154 0.353671Q15.2585 0.26552 15.7055 0.19922Q16.1524 0.13292 16.6021 0.0886311Q17.0518 0.0443423 17.5031 0.0221711Q17.9544 0 18.4063 0Z" fill="#00A0C8" fill-rule="evenodd" transform="translate(302 217)" />
    <path id="Rectangle" d="M7.89844 0L139.602 0Q139.734 0 139.866 0.00650265Q139.999 0.0130053 140.131 0.025995Q140.263 0.0389846 140.394 0.0584299Q140.525 0.0778753 140.655 0.103729Q140.785 0.129584 140.913 0.161784Q141.042 0.193985 141.169 0.232455Q141.295 0.270925 141.42 0.315571Q141.545 0.360217 141.667 0.410932Q141.79 0.461646 141.91 0.518308Q142.029 0.574969 142.146 0.637441Q142.263 0.699912 142.377 0.768043Q142.491 0.836174 142.601 0.909801Q142.711 0.983427 142.817 1.06237Q142.924 1.14132 143.026 1.22539Q143.129 1.30946 143.227 1.39846Q143.325 1.48746 143.419 1.58117Q143.513 1.67487 143.602 1.77307Q143.691 1.87126 143.775 1.9737Q143.859 2.07615 143.938 2.18259Q144.017 2.28904 144.09 2.39923Q144.164 2.50942 144.232 2.62309Q144.3 2.73676 144.363 2.85363Q144.425 2.97051 144.482 3.09031Q144.538 3.21011 144.589 3.33254Q144.64 3.45498 144.684 3.57976Q144.729 3.70454 144.768 3.83135Q144.806 3.95817 144.838 4.08672Q144.87 4.21528 144.896 4.34525Q144.922 4.47523 144.942 4.60632Q144.961 4.73741 144.974 4.8693Q144.987 5.00118 144.993 5.13355Q145 5.26591 145 5.39844L145 5.49933L145 29.1016Q145 29.2955 144.99 29.4891Q144.981 29.6828 144.962 29.8757Q144.943 30.0687 144.915 30.2605Q144.886 30.4523 144.848 30.6425Q144.81 30.8326 144.763 31.0207Q144.716 31.2088 144.66 31.3944Q144.604 31.5799 144.538 31.7625Q144.473 31.945 144.399 32.1242Q144.325 32.3033 144.242 32.4786Q144.159 32.6539 144.067 32.8249Q143.976 32.9959 143.876 33.1622Q143.777 33.3285 143.669 33.4897Q143.561 33.6509 143.446 33.8067Q143.33 33.9624 143.207 34.1123Q143.084 34.2622 142.954 34.4058Q142.824 34.5495 142.687 34.6866Q142.549 34.8237 142.406 34.9539Q142.262 35.0841 142.112 35.2071Q141.962 35.3301 141.807 35.4456Q141.651 35.5611 141.49 35.6689Q141.328 35.7766 141.162 35.8763Q140.996 35.976 140.825 36.0674Q140.654 36.1588 140.479 36.2417Q140.303 36.3246 140.124 36.3988Q139.945 36.473 139.762 36.5383Q139.58 36.6036 139.394 36.6599Q139.209 36.7162 139.021 36.7633Q138.833 36.8104 138.642 36.8482Q138.452 36.8861 138.26 36.9145Q138.069 36.943 137.876 36.962Q137.683 36.981 137.489 36.9905Q137.295 37 137.102 37L85.5552 37L7.89844 37Q7.70454 37 7.51088 36.9905Q7.31722 36.981 7.12426 36.962Q6.93129 36.943 6.7395 36.9145Q6.5477 36.8861 6.35753 36.8482Q6.16736 36.8104 5.97927 36.7633Q5.79119 36.7162 5.60564 36.6599Q5.42009 36.6036 5.23753 36.5383Q5.05497 36.473 4.87584 36.3988Q4.6967 36.3246 4.52142 36.2417Q4.34614 36.1588 4.17514 36.0674Q4.00414 35.976 3.83783 35.8763Q3.67152 35.7766 3.5103 35.6689Q3.34908 35.5611 3.19334 35.4456Q3.0376 35.3301 2.88772 35.2071Q2.73784 35.0841 2.59417 34.9539Q2.4505 34.8237 2.3134 34.6866Q2.17629 34.5495 2.04608 34.4058Q1.91587 34.2622 1.79286 34.1123Q1.66986 33.9624 1.55435 33.8067Q1.43885 33.6509 1.33113 33.4897Q1.2234 33.3285 1.12372 33.1622Q1.02404 32.9959 0.932637 32.8249Q0.841236 32.6539 0.758334 32.4786Q0.675433 32.3033 0.601233 32.1242Q0.527032 31.945 0.46171 31.7625Q0.396389 31.5799 0.340104 31.3944Q0.283819 31.2088 0.236706 31.0207Q0.189593 30.8326 0.151766 30.6425Q0.113939 30.4523 0.0854886 30.2605Q0.0570382 30.0687 0.0380331 29.8757Q0.019028 29.6828 0.00951401 29.4891Q0 29.2955 0 29.1016L0 7.89844Q0 7.70454 0.00951401 7.51088Q0.019028 7.31722 0.0380331 7.12426Q0.0570382 6.93129 0.0854886 6.7395Q0.113939 6.5477 0.151766 6.35753Q0.189593 6.16736 0.236706 5.97927Q0.283819 5.79119 0.340104 5.60564Q0.396389 5.42009 0.46171 5.23753Q0.527032 5.05497 0.601233 4.87584Q0.675433 4.6967 0.758334 4.52142Q0.841236 4.34614 0.932637 4.17514Q1.02404 4.00414 1.12372 3.83783Q1.2234 3.67152 1.33113 3.5103Q1.43885 3.34908 1.55435 3.19334Q1.66986 3.0376 1.79286 2.88772Q1.91587 2.73784 2.04608 2.59417Q2.17629 2.4505 2.3134 2.3134Q2.4505 2.17629 2.59417 2.04608Q2.73784 1.91587 2.88772 1.79286Q3.0376 1.66986 3.19334 1.55435Q3.34908 1.43885 3.5103 1.33113Q3.67152 1.2234 3.83783 1.12372Q4.00414 1.02404 4.17514 0.932637Q4.34614 0.841236 4.52142 0.758334Q4.6967 0.675433 4.87584 0.601233Q5.05497 0.527032 5.23753 0.46171Q5.4201 0.396389 5.60564 0.340104Q5.79119 0.283819 5.97927 0.236706Q6.16736 0.189593 6.35753 0.151766Q6.5477 0.113939 6.7395 0.0854886Q6.93129 0.0570382 7.12426 0.0380331Q7.31722 0.019028 7.51088 0.00951401Q7.70454 0 7.89844 0Z" fill="#00A0C8" fill-rule="evenodd" transform="translate(181 217)" />
    <path id="Rectangle" d="M7.89844 0L137.102 0Q137.295 0 137.489 0.00951401Q137.683 0.019028 137.876 0.0380331Q138.069 0.0570382 138.26 0.0854886Q138.452 0.113939 138.642 0.151766Q138.833 0.189593 139.021 0.236706Q139.209 0.283819 139.394 0.340104Q139.58 0.396389 139.762 0.46171Q139.945 0.527032 140.124 0.601233Q140.303 0.675433 140.479 0.758334Q140.654 0.841236 140.825 0.932637Q140.996 1.02404 141.162 1.12372Q141.328 1.2234 141.49 1.33113Q141.651 1.43885 141.807 1.55435Q141.962 1.66986 142.112 1.79286Q142.262 1.91587 142.406 2.04608Q142.549 2.17629 142.687 2.3134Q142.824 2.4505 142.954 2.59417Q143.084 2.73784 143.207 2.88772Q143.33 3.0376 143.446 3.19334Q143.561 3.34908 143.669 3.5103Q143.777 3.67152 143.876 3.83783Q143.976 4.00414 144.067 4.17514Q144.159 4.34614 144.242 4.52142Q144.325 4.6967 144.399 4.87584Q144.473 5.05497 144.538 5.23753Q144.604 5.4201 144.66 5.60564Q144.716 5.79119 144.763 5.97927Q144.81 6.16736 144.848 6.35753Q144.886 6.5477 144.915 6.7395Q144.943 6.93129 144.962 7.12426Q144.981 7.31722 144.99 7.51088Q145 7.70454 145 7.89844L145 29.1016Q145 29.2955 144.99 29.4891Q144.981 29.6828 144.962 29.8757Q144.943 30.0687 144.915 30.2605Q144.886 30.4523 144.848 30.6425Q144.81 30.8326 144.763 31.0207Q144.716 31.2088 144.66 31.3944Q144.604 31.5799 144.538 31.7625Q144.473 31.945 144.399 32.1242Q144.325 32.3033 144.242 32.4786Q144.159 32.6539 144.067 32.8249Q143.976 32.9959 143.876 33.1622Q143.777 33.3285 143.669 33.4897Q143.561 33.6509 143.446 33.8067Q143.33 33.9624 143.207 34.1123Q143.084 34.2622 142.954 34.4058Q142.824 34.5495 142.687 34.6866Q142.549 34.8237 142.406 34.9539Q142.262 35.0841 142.112 35.2071Q141.962 35.3301 141.807 35.4456Q141.651 35.5611 141.49 35.6689Q141.328 35.7766 141.162 35.8763Q140.996 35.976 140.825 36.0674Q140.654 36.1588 140.479 36.2417Q140.303 36.3246 140.124 36.3988Q139.945 36.473 139.762 36.5383Q139.58 36.6036 139.394 36.6599Q139.209 36.7162 139.021 36.7633Q138.833 36.8104 138.642 36.8482Q138.452 36.8861 138.26 36.9145Q138.069 36.943 137.876 36.962Q137.683 36.981 137.489 36.9905Q137.295 37 137.102 37L85.5552 37L7.89844 37Q7.70454 37 7.51088 36.9905Q7.31722 36.981 7.12426 36.962Q6.93129 36.943 6.7395 36.9145Q6.5477 36.8861 6.35753 36.8482Q6.16736 36.8104 5.97927 36.7633Q5.79119 36.7162 5.60564 36.6599Q5.42009 36.6036 5.23753 36.5383Q5.05497 36.473 4.87584 36.3988Q4.6967 36.3246 4.52142 36.2417Q4.34614 36.1588 4.17514 36.0674Q4.00414 35.976 3.83783 35.8763Q3.67152 35.7766 3.5103 35.6689Q3.34908 35.5611 3.19334 35.4456Q3.0376 35.3301 2.88772 35.2071Q2.73784 35.0841 2.59417 34.9539Q2.4505 34.8237 2.3134 34.6866Q2.17629 34.5495 2.04608 34.4058Q1.91587 34.2622 1.79286 34.1123Q1.66986 33.9624 1.55435 33.8067Q1.43885 33.6509 1.33113 33.4897Q1.2234 33.3285 1.12372 33.1622Q1.02404 32.9959 0.932637 32.8249Q0.841236 32.6539 0.758334 32.4786Q0.675433 32.3033 0.601233 32.1242Q0.527032 31.945 0.46171 31.7625Q0.396389 31.5799 0.340104 31.3944Q0.283819 31.2088 0.236706 31.0207Q0.189593 30.8326 0.151766 30.6425Q0.113939 30.4523 0.0854886 30.2605Q0.0570382 30.0687 0.0380331 29.8757Q0.019028 29.6828 0.00951401 29.4891Q0 29.2955 0 29.1016L0 7.89844Q0 7.70454 0.00951401 7.51088Q0.019028 7.31722 0.0380331 7.12426Q0.0570382 6.93129 0.0854886 6.7395Q0.113939 6.5477 0.151766 6.35753Q0.189593 6.16736 0.236706 5.97927Q0.283819 5.79119 0.340104 5.60564Q0.396389 5.42009 0.46171 5.23753Q0.527032 5.05497 0.601233 4.87584Q0.675433 4.6967 0.758334 4.52142Q0.841236 4.34614 0.932637 4.17514Q1.02404 4.00414 1.12372 3.83783Q1.2234 3.67152 1.33113 3.5103Q1.43885 3.34908 1.55435 3.19334Q1.66986 3.0376 1.79286 2.88772Q1.91587 2.73784 2.04608 2.59417Q2.17629 2.4505 2.3134 2.3134Q2.4505 2.17629 2.59417 2.04608Q2.73784 1.91587 2.88772 1.79286Q3.0376 1.66986 3.19334 1.55435Q3.34908 1.43885 3.5103 1.33113Q3.67152 1.2234 3.83783 1.12372Q4.00414 1.02404 4.17514 0.932637Q4.34614 0.841236 4.52142 0.758334Q4.6967 0.675433 4.87584 0.601233Q5.05497 0.527032 5.23753 0.46171Q5.4201 0.396389 5.60564 0.340104Q5.79119 0.283819 5.97927 0.236706Q6.16736 0.189593 6.35753 0.151766Q6.5477 0.113939 6.7395 0.0854886Q6.93129 0.0570382 7.12426 0.0380331Q7.31722 0.019028 7.51088 0.00951401Q7.70454 0 7.89844 0Z" fill="#00A0C8" fill-rule="evenodd" transform="translate(181 271)" />
    <path id="Oval" d="M147.315 133.5C147.315 133.5 267 133.5 267 133.5C267 207.23 207.23 267 133.5 267C59.77 267 0 207.23 0 133.5C0 59.77 59.77 0 133.5 0C207.23 0 267 59.77 267 133.5C267 133.5 147.315 133.5 147.315 133.5C147.315 125.87 141.13 119.685 133.5 119.685C125.87 119.685 119.685 125.87 119.685 133.5C119.685 141.13 125.87 147.315 133.5 147.315C141.13 147.315 147.315 141.13 147.315 133.5Z" fill="#E8E8E8" fill-rule="evenodd" filter="url(#filter_1)" />
    <path id="Oval" d="M0.0296822 32.7614C0.0282707 46.9099 0.0245476 87.8016 0.0270729 103.133C0.0276146 106.39 2.66254 108.802 5.88713 108.339C11.0615 107.597 19.0221 106.139 27.1057 103.426C30.1941 102.389 35.0776 100.366 38.0261 98.9815C49.5355 93.5751 60.168 86.4708 69.5674 77.9064C71.9754 75.7123 75.7121 71.9757 77.9061 69.5677C86.4703 60.1686 93.5746 49.5363 98.9811 38.0271C100.366 35.0786 102.389 30.1951 103.424 27.1063C106.133 19.024 107.582 11.062 108.324 5.88724C108.786 2.66257 106.389 0.0230389 103.131 0.0210781C87.8017 0.0118465 46.9151 0.0243664 32.7628 0.02915C30.0553 0.0300655 28.9312 -0.409449 27.8986 2.0934C27.886 2.12399 27.8732 2.15484 27.8603 2.18598C25.4761 7.94192 21.9815 13.1718 17.5763 17.5772C13.1709 21.9825 7.94094 25.4771 2.18495 27.8612C2.15323 27.8744 2.1218 27.8874 2.09065 27.9002C-0.410259 28.9318 0.0299568 30.056 0.0296822 32.7614Z" fill="#C80A50" fill-rule="evenodd" transform="matrix(-1 -0 0 -1 126.523 125)" />
    <path id="Oval" d="M0.0296936 32.7614C0.0282745 46.9099 0.0245667 87.8016 0.0270996 103.133C0.0276489 106.39 2.66257 108.802 5.88716 108.339C11.0615 107.597 19.0221 106.139 27.1058 103.426C30.1941 102.389 35.0776 100.366 38.0262 98.9815C49.5356 93.5751 60.168 86.4708 69.5674 77.9063C71.9754 75.7123 75.712 71.9756 77.9061 69.5677C86.4703 60.1685 93.5746 49.5362 98.981 38.0271C100.366 35.0786 102.389 30.195 103.424 27.1063C106.133 19.0239 107.582 11.062 108.324 5.88721C108.786 2.66254 106.389 0.023016 103.131 0.0210476C87.8016 0.0118313 46.9151 0.0243587 32.7628 0.02915C30.0553 0.0300655 28.9311 -0.409449 27.8986 2.0934C27.8859 2.124 27.8732 2.15485 27.8603 2.18598C25.4761 7.94192 21.9815 13.1718 17.5762 17.5772C13.1709 21.9825 7.94095 25.4771 2.18494 27.8612C2.15323 27.8744 2.1218 27.8874 2.09064 27.9002C-0.410263 28.9318 0.029953 30.056 0.0296936 32.7614Z" fill="#FAB400" fill-rule="evenodd" transform="matrix(-0 -1 1 -0 141 125)" />
    <path id="Oval" d="M0.0296917 32.7614C0.0282726 46.91 0.0245647 87.8017 0.0270977 103.133C0.027647 106.39 2.66258 108.802 5.88717 108.34C11.0615 107.597 19.0221 106.139 27.1058 103.426C30.1941 102.389 35.0777 100.367 38.0262 98.9816C49.5356 93.5752 60.1681 86.4709 69.5675 77.9064C71.9755 75.7124 75.7122 71.9757 77.9062 69.5678C86.4704 60.1686 93.5747 49.5363 98.9812 38.0271C100.366 35.0786 102.389 30.1951 103.424 27.1063C106.133 19.024 107.582 11.062 108.324 5.88722C108.786 2.66254 106.389 0.0230103 103.132 0.0210419C87.8018 0.0118256 46.9152 0.0243683 32.7628 0.0291443C30.0553 0.0300598 28.9312 -0.409454 27.8986 2.0934C27.886 2.12399 27.8732 2.15485 27.8603 2.18599C25.4761 7.94193 21.9816 13.1718 17.5763 17.5772C13.1709 21.9826 7.94095 25.4771 2.18495 27.8613C2.15323 27.8744 2.12179 27.8874 2.09065 27.9002C-0.410265 28.9319 0.0299511 30.0561 0.0296917 32.7614Z" fill="#FAB400" fill-rule="evenodd" transform="matrix(0 1 -1 0 125.942 140)" />
    <path id="Oval" d="M0.0296936 32.7615C0.0282745 46.91 0.0245667 87.8018 0.0270996 103.133C0.0276337 106.39 2.66257 108.802 5.88718 108.34C11.0615 107.597 19.0222 106.139 27.1058 103.426C30.1942 102.389 35.0777 100.367 38.0263 98.9817C49.5357 93.5754 60.1682 86.471 69.5676 77.9066C71.9756 75.7125 75.7122 71.9758 77.9063 69.5679C86.4705 60.1687 93.5748 49.5364 98.9813 38.0272C100.366 35.0787 102.389 30.1951 103.424 27.1063C106.133 19.024 107.582 11.062 108.324 5.88724C108.786 2.66255 106.389 0.0230103 103.132 0.0210571C87.8019 0.0118256 46.9152 0.0243683 32.7628 0.0291443C30.0553 0.0300598 28.9312 -0.409454 27.8986 2.09341C27.886 2.12399 27.8733 2.15486 27.8604 2.18599C25.4762 7.94194 21.9816 13.1719 17.5763 17.5772C13.1709 21.9826 7.94096 25.4771 2.18495 27.8613C2.15324 27.8744 2.12181 27.8874 2.09065 27.9003C-0.410263 28.9319 0.029953 30.0561 0.0296936 32.7615Z" fill="#00A0C8" fill-rule="evenodd" transform="matrix(1 -0 0 1 142 141)" />
    <path id="Oval" d="M0 4.5C0 2.01472 2.01472 0 4.5 0C6.98528 0 9 2.01472 9 4.5C9 6.98528 6.98528 9 4.5 9C2.01472 9 0 6.98528 0 4.5Z" fill="#FFFFFF" fill-rule="evenodd" transform="translate(226 231)" />
    <path id="Oval" d="M0 4.5C0 2.01472 2.01472 0 4.5 0C6.98529 0 9 2.01472 9 4.5C9 6.98528 6.98529 9 4.5 9C2.01472 9 0 6.98528 0 4.5Z" fill="#FFFFFF" fill-rule="evenodd" transform="translate(251 231)" />
    <path id="Oval" d="M0 4.5C0 2.01472 2.01471 0 4.5 0C4.5 0 2.01471 0 4.5 0C6.98529 0 9 2.01472 9 4.5C9 6.98528 6.98529 9 4.5 9C2.01471 9 0 6.98528 0 4.5Z" fill="#FFFFFF" fill-rule="evenodd" transform="translate(276 231)" />
    <path id="Oval" d="M0 4.5C0 2.01472 2.01471 0 4.5 0C6.98529 0 9 2.01472 9 4.5C9 6.98528 6.98529 9 4.5 9C2.01471 9 0 6.98528 0 4.5Z" fill="#FFFFFF" fill-rule="evenodd" transform="translate(300 231)" />
    <path id="Oval" d="M0 4.5C0 2.01471 2.01472 0 4.5 0C6.98528 0 9 2.01471 9 4.5C9 6.98529 6.98528 9 4.5 9C2.01472 9 0 6.98529 0 4.5Z" fill="#FFFFFF" fill-rule="evenodd" transform="translate(226 284)" />
    <path id="Oval" d="M0 4.5C0 2.01471 2.01472 0 4.5 0C6.98528 0 9 2.01471 9 4.5C9 6.98529 6.98528 9 4.5 9C2.01472 9 0 6.98529 0 4.5Z" fill="#FFFFFF" fill-rule="evenodd" transform="translate(200 284)" />
    <path id="Oval" d="M0 4.5C0 2.01471 2.01472 0 4.5 0C6.98529 0 9 2.01471 9 4.5C9 6.98529 6.98529 9 4.5 9C2.01472 9 0 6.98529 0 4.5Z" fill="#FFFFFF" fill-rule="evenodd" transform="translate(251 284)" />
    <path id="Oval" d="M0 4.5C0 2.01471 2.01471 0 4.5 0C4.5 0 2.01471 0 4.5 0C6.98529 0 9 2.01471 9 4.5C9 6.98529 6.98529 9 4.5 9C2.01471 9 0 6.98529 0 4.5Z" fill="#FFFFFF" fill-rule="evenodd" transform="translate(276 284)" />
    <path id="Oval" d="M0 4.5C0 2.01471 2.01471 0 4.5 0C6.98529 0 9 2.01471 9 4.5C9 6.98529 6.98529 9 4.5 9C2.01471 9 0 6.98529 0 4.5Z" fill="#FFFFFF" fill-rule="evenodd" transform="translate(300 284)" />
    <path id="Oval" d="M36.3285 23.5C36.3285 23.5 47 23.5 47 23.5C47 36.4787 36.4787 47 23.5 47C10.5213 47 0 36.4787 0 23.5C0 10.5213 10.5213 0 23.5 0C36.4787 0 47 10.5213 47 23.5C47 23.5 36.3285 23.5 36.3285 23.5C36.3285 16.415 30.585 10.6715 23.5 10.6715C16.415 10.6715 10.6715 16.415 10.6715 23.5C10.6715 30.585 16.415 36.3285 23.5 36.3285C30.585 36.3285 36.3285 30.585 36.3285 23.5Z" fill="#D1D1D1" fill-rule="evenodd" transform="translate(110 110)" />
  </g>
</svg>