<?xml version="1.0" encoding="utf-8"?>
<svg width="407" height="279" viewBox="0 0 407 279" fill="none" xmlns="http://www.w3.org/2000/svg">
  <defs>
    <filter color-interpolation-filters="sRGB" x="-265" y="-265" width="267" height="267" id="filter_1">
      <feFlood flood-opacity="0" result="BackgroundImageFix_1" />
      <feColorMatrix type="matrix" values="0 0 0 0 0 0 0 0 0 0 0 0 0 0 0 0 0 0 1 0" in="SourceAlpha" />
      <feOffset dx="0" dy="4" />
      <feGaussianBlur stdDeviation="2" />
      <feColorMatrix type="matrix" values="0 0 0 0 0 0 0 0 0 0 0 0 0 0 0 0 0 0 0.251 0" />
      <feBlend mode="normal" in2="BackgroundImageFix_1" result="Shadow_2" />
      <feBlend mode="normal" in="SourceGraphic" in2="Shadow_2" result="Shape_3" />
    </filter>
  </defs>
  <g id="Group" transform="translate(6 2)">
    <path id="Rectangle" d="M212 0C216.419 0 220 3.58112 220 8L220 29C220 33.4189 216.419 37 212 37L8 37C3.58112 37 0 33.4189 0 29L0 8C0 3.58112 3.58112 0 8 0L212 0Z" fill="#00A0C8" transform="translate(181 217)" />
    <path id="Oval" d="M147.315 133.5C147.315 133.5 267 133.5 267 133.5C267 207.23 207.23 267 133.5 267C59.77 267 0 207.23 0 133.5C0 59.77 59.77 0 133.5 0C207.23 0 267 59.77 267 133.5C267 133.5 147.315 133.5 147.315 133.5C147.315 125.87 141.13 119.685 133.5 119.685C125.87 119.685 119.685 125.87 119.685 133.5C119.685 141.13 125.87 147.315 133.5 147.315C141.13 147.315 147.315 141.13 147.315 133.5Z" fill="#E8E8E8" fill-rule="evenodd" filter="url(#filter_1)" />
    <path id="Oval" d="M0.0296822 32.7614C0.0282707 46.9099 0.0245476 87.8016 0.0270729 103.133C0.0276146 106.39 2.66254 108.802 5.88713 108.339C11.0615 107.597 19.0221 106.139 27.1057 103.426C30.1941 102.389 35.0776 100.366 38.0261 98.9815C49.5355 93.5751 60.168 86.4708 69.5674 77.9064C71.9754 75.7123 75.7121 71.9757 77.9061 69.5677C86.4703 60.1686 93.5746 49.5363 98.9811 38.0271C100.366 35.0786 102.389 30.1951 103.424 27.1063C106.133 19.024 107.582 11.062 108.324 5.88724C108.786 2.66257 106.389 0.0230389 103.131 0.0210781C87.8017 0.0118465 46.9151 0.0243664 32.7628 0.02915C30.0553 0.0300655 28.9312 -0.409449 27.8986 2.0934C27.886 2.12399 27.8732 2.15484 27.8603 2.18598C25.4761 7.94192 21.9815 13.1718 17.5763 17.5772C13.1709 21.9825 7.94094 25.4771 2.18495 27.8612C2.15323 27.8744 2.1218 27.8874 2.09065 27.9002C-0.410259 28.9318 0.0299568 30.056 0.0296822 32.7614Z" fill="#C80A50" fill-rule="evenodd" transform="matrix(-1 -0 0 -1 126.523 125)" />
    <path id="Oval" d="M0.0296936 32.7614C0.0282745 46.9099 0.0245667 87.8016 0.0270996 103.133C0.0276489 106.39 2.66257 108.802 5.88716 108.339C11.0615 107.597 19.0221 106.139 27.1058 103.426C30.1941 102.389 35.0776 100.366 38.0262 98.9815C49.5356 93.5751 60.168 86.4708 69.5674 77.9063C71.9754 75.7123 75.712 71.9756 77.9061 69.5677C86.4703 60.1685 93.5746 49.5362 98.981 38.0271C100.366 35.0786 102.389 30.195 103.424 27.1063C106.133 19.0239 107.582 11.062 108.324 5.88721C108.786 2.66254 106.389 0.023016 103.131 0.0210476C87.8016 0.0118313 46.9151 0.0243587 32.7628 0.02915C30.0553 0.0300655 28.9311 -0.409449 27.8986 2.0934C27.8859 2.124 27.8732 2.15485 27.8603 2.18598C25.4761 7.94192 21.9815 13.1718 17.5762 17.5772C13.1709 21.9825 7.94095 25.4771 2.18494 27.8612C2.15323 27.8744 2.1218 27.8874 2.09064 27.9002C-0.410263 28.9318 0.029953 30.056 0.0296936 32.7614Z" fill="#FAB400" fill-rule="evenodd" transform="matrix(-0 -1 1 -0 141 125)" />
    <path id="Oval" d="M0.0296917 32.7614C0.0282726 46.91 0.0245647 87.8017 0.0270977 103.133C0.027647 106.39 2.66258 108.802 5.88717 108.34C11.0615 107.597 19.0221 106.139 27.1058 103.426C30.1941 102.389 35.0777 100.367 38.0262 98.9816C49.5356 93.5752 60.1681 86.4709 69.5675 77.9064C71.9755 75.7124 75.7122 71.9757 77.9062 69.5678C86.4704 60.1686 93.5747 49.5363 98.9812 38.0271C100.366 35.0786 102.389 30.1951 103.424 27.1063C106.133 19.024 107.582 11.062 108.324 5.88722C108.786 2.66254 106.389 0.0230103 103.132 0.0210419C87.8018 0.0118256 46.9152 0.0243683 32.7628 0.0291443C30.0553 0.0300598 28.9312 -0.409454 27.8986 2.0934C27.886 2.12399 27.8732 2.15485 27.8603 2.18599C25.4761 7.94193 21.9816 13.1718 17.5763 17.5772C13.1709 21.9826 7.94095 25.4771 2.18495 27.8613C2.15323 27.8744 2.12179 27.8874 2.09065 27.9002C-0.410265 28.9319 0.0299511 30.0561 0.0296917 32.7614Z" fill="#FAB400" fill-rule="evenodd" transform="matrix(0 1 -1 0 125.942 140)" />
    <path id="Oval" d="M0.0296936 32.7615C0.0282745 46.91 0.0245667 87.8018 0.0270996 103.133C0.0276337 106.39 2.66257 108.802 5.88718 108.34C11.0615 107.597 19.0222 106.139 27.1058 103.426C30.1942 102.389 35.0777 100.367 38.0263 98.9817C49.5357 93.5754 60.1682 86.471 69.5676 77.9066C71.9756 75.7125 75.7122 71.9758 77.9063 69.5679C86.4705 60.1687 93.5748 49.5364 98.9813 38.0272C100.366 35.0787 102.389 30.1951 103.424 27.1063C106.133 19.024 107.582 11.062 108.324 5.88724C108.786 2.66255 106.389 0.0230103 103.132 0.0210571C87.8019 0.0118256 46.9152 0.0243683 32.7628 0.0291443C30.0553 0.0300598 28.9312 -0.409454 27.8986 2.09341C27.886 2.12399 27.8733 2.15486 27.8604 2.18599C25.4762 7.94194 21.9816 13.1719 17.5763 17.5772C13.1709 21.9826 7.94096 25.4771 2.18495 27.8613C2.15324 27.8744 2.12181 27.8874 2.09065 27.9003C-0.410263 28.9319 0.029953 30.0561 0.0296936 32.7615Z" fill="#00A0C8" fill-rule="evenodd" transform="matrix(1 -0 0 1 142 141)" />
    <path id="Oval" d="M0 4.5C0 2.01472 2.01472 0 4.5 0C6.98528 0 9 2.01472 9 4.5C9 6.98528 6.98528 9 4.5 9C2.01472 9 0 6.98528 0 4.5Z" fill="#FFFFFF" fill-rule="evenodd" transform="translate(226 231)" />
    <path id="Oval" d="M0 4.5C0 2.01472 2.01472 0 4.5 0C6.98529 0 9 2.01472 9 4.5C9 6.98528 6.98529 9 4.5 9C2.01472 9 0 6.98528 0 4.5Z" fill="#FFFFFF" fill-rule="evenodd" transform="translate(251 231)" />
    <path id="Oval" d="M0 4.5C0 2.01472 2.01471 0 4.5 0C6.98529 0 9 2.01472 9 4.5C9 6.98528 6.98529 9 4.5 9C2.01471 9 0 6.98528 0 4.5Z" fill="#FFFFFF" fill-rule="evenodd" transform="translate(276 231)" />
    <path id="Oval" d="M0 4.5C0 2.01472 2.01471 0 4.5 0C6.98529 0 9 2.01472 9 4.5C9 6.98528 6.98529 9 4.5 9C2.01471 9 0 6.98528 0 4.5Z" fill="#FFFFFF" fill-rule="evenodd" transform="translate(301 231)" />
    <path id="Oval" d="M0 4.5C0 2.01472 2.01471 0 4.5 0C6.98529 0 9 2.01472 9 4.5C9 6.98528 6.98529 9 4.5 9C2.01471 9 0 6.98528 0 4.5Z" fill="#FFFFFF" fill-rule="evenodd" transform="translate(326 231)" />
    <path id="Oval" d="M0 4.5C0 2.01472 2.01471 0 4.5 0C6.98529 0 9 2.01472 9 4.5C9 6.98528 6.98529 9 4.5 9C2.01471 9 0 6.98528 0 4.5Z" fill="#FFFFFF" fill-rule="evenodd" transform="translate(351 231)" />
    <path id="Oval" d="M0 4.5C0 2.01472 2.01471 0 4.5 0C6.98529 0 9 2.01472 9 4.5C9 6.98528 6.98529 9 4.5 9C2.01471 9 0 6.98528 0 4.5Z" fill="#FFFFFF" fill-rule="evenodd" transform="translate(376 231)" />
    <path id="Oval" d="M36.3285 23.5C36.3285 23.5 47 23.5 47 23.5C47 36.4787 36.4787 47 23.5 47C10.5213 47 0 36.4787 0 23.5C0 10.5213 10.5213 0 23.5 0C36.4787 0 47 10.5213 47 23.5C47 23.5 36.3285 23.5 36.3285 23.5C36.3285 16.415 30.585 10.6715 23.5 10.6715C16.415 10.6715 10.6715 16.415 10.6715 23.5C10.6715 30.585 16.415 36.3285 23.5 36.3285C30.585 36.3285 36.3285 30.585 36.3285 23.5Z" fill="#D1D1D1" fill-rule="evenodd" transform="translate(110 110)" />
  </g>
</svg>