<?xml version="1.0" encoding="utf-8"?>
<svg width="178.764" height="178.766" viewBox="0 0 178.764 178.766" fill="none" xmlns="http://www.w3.org/2000/svg">
  <g id="Group">
    <path id="Rectangle" d="M89.3822 0C138.753 0 178.764 40.0111 178.764 89.3822L178.764 89.3822C178.764 138.753 138.753 178.764 89.3822 178.764L89.3822 178.764C40.0111 178.764 0 138.753 0 89.3822L0 89.3822C0 40.0111 40.0111 0 89.3822 0Z" fill="#2962FF" />
    <path id="Shape" d="M61.8675 24.0532L49.0908 24.0532C49.0908 24.0532 65.4031 2.47237 65.4031 2.47237C65.7606 2.00063 65.6613 1.30543 65.1846 0.952866C65.0058 0.813828 64.7675 0.734375 64.5341 0.734375C64.5341 0.734375 40.9372 0.734375 40.9372 0.734375C38.8615 0.734375 37.1682 2.43263 37.1682 4.50333C37.1682 6.57403 38.8665 8.27229 40.9372 8.27229C40.9372 8.27229 51.5389 8.27229 51.5389 8.27229C51.5389 8.27229 35.172 29.873 35.172 29.873C34.7946 30.3447 34.8939 31.0201 35.3706 31.3925C35.5693 31.5514 35.8026 31.6309 36.041 31.611C36.041 31.611 61.8476 31.611 61.8476 31.611C63.9233 31.5117 65.5223 29.734 65.4229 27.6434C65.3236 25.7068 63.7843 24.1674 61.8476 24.0681C61.8476 24.0681 61.8476 24.0483 61.8476 24.0483L61.8675 24.0483L61.8675 24.0532ZM144.323 0.734375C142.247 0.734375 140.554 2.43264 140.554 4.50332C140.554 4.50332 140.554 17.1608 140.554 17.1608C140.554 17.1608 120.174 0.987625 120.174 0.987625C119.723 0.610237 119.027 0.66983 118.655 1.14653C118.496 1.34516 118.417 1.57854 118.417 1.83675C118.417 1.83675 118.417 27.842 118.417 27.842C118.417 29.9176 120.115 31.6109 122.186 31.6109C124.256 31.6109 125.955 29.9325 125.955 27.842C125.955 27.842 125.955 15.1845 125.955 15.1845C125.955 15.1845 146.334 31.3775 146.334 31.3775C146.806 31.7549 147.501 31.6755 147.873 31.1988C148.032 31.0001 148.112 30.7667 148.112 30.5284C148.112 30.5284 148.112 4.50331 148.112 4.50331C148.097 2.41277 146.418 0.734375 144.323 0.734375C144.323 0.734375 144.323 0.734375 144.323 0.734375ZM90.4003 24.7679C81.77 24.7679 75.3345 20.2243 75.3345 16.1574C75.3345 12.0905 81.7898 7.54688 90.4003 7.54688C99.0307 7.54688 105.466 12.0905 105.466 16.1574C105.466 20.2243 99.0456 24.7679 90.4003 24.7679C90.4003 24.7679 90.4003 24.7679 90.4003 24.7679ZM90.4003 0C77.9216 0 67.7916 7.22506 67.7916 16.1534C67.7916 25.0816 77.9216 32.3067 90.4003 32.3067C102.879 32.3067 113.009 25.0816 113.009 16.1534C113.009 7.22506 102.879 0 90.4003 0C90.4003 0 90.4003 0 90.4003 0ZM16.1733 24.7878C11.4161 24.7878 7.54291 20.9393 7.54291 16.1772C7.54291 11.4152 11.3913 7.54688 16.1534 7.54688C20.9155 7.54688 24.7838 11.3953 24.7838 16.1574C24.7838 16.1574 24.7838 16.1772 24.7838 16.1772C24.7838 20.9195 20.9354 24.7679 16.1733 24.7878C16.1733 24.7878 16.1733 24.7878 16.1733 24.7878ZM16.1733 0C7.24991 0 0.0198612 7.22507 0 16.1534C0 25.0767 7.22508 32.3067 16.1534 32.3266C25.0767 32.3266 32.3068 25.1015 32.3266 16.1732C32.3266 16.1732 32.3266 16.1534 32.3266 16.1534C32.3068 7.23003 25.0817 0 16.1733 0C16.1733 0 16.1733 0 16.1733 0Z" fill="#FFFFFF" transform="translate(15.665 73.258)" />
  </g>
</svg>