<?xml version="1.0" encoding="utf-8"?>
<svg width="37.267" height="38.867" viewBox="0 0 37.267 38.867" fill="none" xmlns="http://www.w3.org/2000/svg">
  <g id="Group">
    <path id="Path" d="M7.76392 0C7.76392 0 29.5029 0 29.5029 0C33.7906 0 37.2668 3.62563 37.2668 8.09766C37.2668 8.09766 37.2668 30.7714 37.2668 30.7714C37.2668 35.2433 33.7906 38.8687 29.5029 38.8687C29.5029 38.8687 7.76392 38.8687 7.76392 38.8687C3.4762 38.8687 0 35.2433 0 30.7714C0 30.7714 0 8.09766 0 8.09766C0 3.62563 3.4762 0 7.76392 0C7.76392 0 7.76392 0 7.76392 0Z" fill="#FFFFFF" fill-rule="evenodd" />
    <path id="Shape" d="M12.8976 6.08999L10.234 6.08999C10.234 6.08999 13.6346 0.627422 13.6346 0.627422C13.7092 0.508015 13.6885 0.332045 13.5891 0.242805C13.5518 0.207611 13.5021 0.1875 13.4535 0.1875C13.4535 0.1875 8.53424 0.1875 8.53424 0.1875C8.10153 0.1875 7.74853 0.617365 7.74853 1.1415C7.74853 1.66564 8.10257 2.0955 8.53424 2.0955C8.53424 2.0955 10.7444 2.0955 10.7444 2.0955C10.7444 2.0955 7.33239 7.5631 7.33239 7.5631C7.25371 7.6825 7.27442 7.85344 7.37379 7.94771C7.4152 7.98793 7.46386 8.00805 7.51355 8.00302C7.51355 8.00302 12.8934 8.00302 12.8934 8.00302C13.3262 7.97788 13.6595 7.5279 13.6388 6.99874C13.6181 6.50854 13.2972 6.1189 12.8934 6.09376C12.8934 6.09376 12.8934 6.08873 12.8934 6.08873L12.8976 6.08873L12.8976 6.08999ZM30.0868 0.1875C29.654 0.1875 29.301 0.617367 29.301 1.1415C29.301 1.1415 29.301 4.34538 29.301 4.34538C29.301 4.34538 25.0526 0.251604 25.0526 0.251604C24.9584 0.156077 24.8135 0.171162 24.7358 0.291824C24.7027 0.342102 24.6862 0.401176 24.6862 0.466536C24.6862 0.466536 24.6862 7.04901 24.6862 7.04901C24.6862 7.5744 25.0402 8.00301 25.4719 8.00301C25.9035 8.00301 26.2576 7.57818 26.2576 7.04901C26.2576 7.04901 26.2576 3.84513 26.2576 3.84513C26.2576 3.84513 30.506 7.94394 30.506 7.94394C30.6044 8.03946 30.7493 8.01935 30.8269 7.89869C30.8601 7.84841 30.8766 7.78934 30.8766 7.729C30.8766 7.729 30.8766 1.1415 30.8766 1.1415C30.8735 0.612337 30.5236 0.1875 30.0868 0.1875C30.0868 0.1875 30.0868 0.1875 30.0868 0.1875ZM18.8456 6.26524C17.0464 6.26524 15.7048 5.11516 15.7048 4.08574C15.7048 3.05633 17.0506 1.90625 18.8456 1.90625C20.6448 1.90625 21.9864 3.05633 21.9864 4.08574C21.9864 5.11516 20.6479 6.26524 18.8456 6.26524C18.8456 6.26524 18.8456 6.26524 18.8456 6.26524ZM18.8458 0C16.2444 0 14.1326 1.82882 14.1326 4.08875C14.1326 6.34869 16.2444 8.17751 18.8458 8.17751C21.4472 8.17751 23.559 6.34869 23.559 4.08875C23.559 1.82882 21.4472 0 18.8458 0C18.8458 0 18.8458 0 18.8458 0ZM3.37168 6.27027C2.37996 6.27027 1.57251 5.29616 1.57251 4.09077C1.57251 2.88539 2.37478 1.90625 3.36754 1.90625C4.36029 1.90625 5.1667 2.88036 5.1667 4.08574C5.1667 4.08574 5.1667 4.09077 5.1667 4.09077C5.1667 5.29113 4.36443 6.26524 3.37168 6.27027C3.37168 6.27027 3.37168 6.27027 3.37168 6.27027ZM3.37162 0C1.51138 0 0.00414038 1.82882 0 4.08875C0 6.34743 1.50621 8.17751 3.36748 8.18253C5.22773 8.18253 6.73497 6.35372 6.73911 4.09378C6.73911 4.09378 6.73911 4.08875 6.73911 4.08875C6.73497 1.83007 5.22876 0 3.37162 0C3.37162 0 3.37162 0 3.37162 0Z" fill="#2A2B30" transform="translate(3.106 15.832)" />
  </g>
</svg>