<?xml version="1.0" encoding="utf-8"?>
<svg width="169" height="234" viewBox="0 0 169 234" fill="none" xmlns="http://www.w3.org/2000/svg">
  <path id="Shape" d="M169 84.4453C169 37.8828 131.094 0 84.5 0C37.9062 0 0 37.8828 0 84.4453C0 108.086 9.77688 129.488 25.4966 144.832C25.4966 144.832 1.55023 210.582 1.55023 210.582L39.5999 206.207L65.9324 234L84.8069 182.176L103.682 234L130.014 206.207L168.064 210.582C168.064 210.582 143.956 144.391 143.956 144.391C159.412 129.078 169 107.859 169 84.4453C169 84.4453 169 84.4453 169 84.4453ZM139.149 129.375C139.149 129.375 129.408 119.641 129.408 119.641C132.717 115.434 135.443 110.754 137.475 105.719C137.475 105.719 150.79 109.285 150.79 109.285C148.021 116.637 144.065 123.414 139.149 129.375C139.149 129.375 139.149 129.375 139.149 129.375ZM41.1081 84.4453C41.1081 60.5352 60.5737 41.082 84.5 41.082C108.426 41.082 127.892 60.5352 127.892 84.4453C127.892 108.355 108.426 127.809 84.5 127.809C60.5737 127.809 41.1081 108.355 41.1081 84.4453C41.1081 84.4453 41.1081 84.4453 41.1081 84.4453ZM63.2119 137.383C63.2119 137.383 59.6442 150.688 59.6442 150.688C52.2859 147.922 45.5044 143.969 39.5401 139.055C39.5401 139.055 49.2804 129.32 49.2804 129.32C53.4894 132.625 58.1744 135.352 63.2119 137.383C63.2119 137.383 63.2119 137.383 63.2119 137.383ZM119.719 129.32C119.719 129.32 129.459 139.055 129.459 139.055C123.496 143.969 116.714 147.922 109.355 150.688C109.355 150.688 105.788 137.383 105.788 137.383C110.825 135.352 115.51 132.625 119.719 129.32C119.719 129.32 119.719 129.32 119.719 129.32ZM155.297 84.4453C155.297 88.3984 154.966 92.2773 154.339 96.0586C154.339 96.0586 141.024 92.4922 141.024 92.4922C141.397 89.8633 141.595 87.1758 141.595 84.4453C141.595 81.7148 141.397 79.0273 141.024 76.3984C141.024 76.3984 154.339 72.832 154.339 72.832C154.966 76.6133 155.297 80.4883 155.297 84.4453C155.297 84.4453 155.297 84.4453 155.297 84.4453ZM150.79 59.6094C150.79 59.6094 137.475 63.1758 137.475 63.1758C135.443 58.1406 132.717 53.4609 129.408 49.2539C129.408 49.2539 139.149 39.5195 139.149 39.5195C144.065 45.4805 148.022 52.2578 150.79 59.6094C150.79 59.6094 150.79 59.6094 150.79 59.6094ZM109.355 18.1992C116.714 20.9648 123.496 24.918 129.46 29.832C129.46 29.832 119.719 39.5664 119.719 39.5664C115.51 36.2617 110.825 33.5352 105.788 31.5039C105.788 31.5039 109.355 18.1992 109.355 18.1992C109.355 18.1992 109.355 18.1992 109.355 18.1992ZM84.5 13.6953C88.4573 13.6953 92.338 14.0273 96.1199 14.6523C96.1199 14.6523 92.5522 27.9609 92.5522 27.9609C89.9203 27.5859 87.2328 27.3906 84.5 27.3906C81.7672 27.3906 79.0797 27.5859 76.4478 27.9609C76.4478 27.9609 72.8801 14.6523 72.8801 14.6523C76.6621 14.0273 80.5427 13.6953 84.5 13.6953C84.5 13.6953 84.5 13.6953 84.5 13.6953ZM59.6451 18.1992C59.6451 18.1992 63.2128 31.5039 63.2128 31.5039C58.1748 33.5352 53.4899 36.2617 49.2808 39.5664C49.2808 39.5664 39.5405 29.832 39.5405 29.832C45.5048 24.918 52.2863 20.9648 59.6451 18.1992C59.6451 18.1992 59.6451 18.1992 59.6451 18.1992ZM29.8509 39.5195C29.8509 39.5195 39.5917 49.2539 39.5917 49.2539C36.2834 53.4609 33.5565 58.1406 31.5249 63.1758C31.5249 63.1758 18.2104 59.6094 18.2104 59.6094C20.9788 52.2578 24.9353 45.4805 29.8509 39.5195C29.8509 39.5195 29.8509 39.5195 29.8509 39.5195ZM13.7027 84.4453C13.7027 80.4883 14.0343 76.6133 14.6614 72.832C14.6614 72.832 27.9759 76.3984 27.9759 76.3984C27.6027 79.0273 27.4054 81.7148 27.4054 84.4453C27.4054 87.1758 27.6027 89.8633 27.9759 92.4922C27.9759 92.4922 14.6614 96.0586 14.6614 96.0586C14.0343 92.2773 13.7027 88.3984 13.7027 84.4453C13.7027 84.4453 13.7027 84.4453 13.7027 84.4453ZM18.2104 109.285C18.2104 109.285 31.5249 105.719 31.5249 105.719C33.5565 110.754 36.2834 115.434 39.5917 119.641C39.5917 119.641 29.8509 129.375 29.8509 129.375C24.9353 123.414 20.9788 116.637 18.2104 109.285C18.2104 109.285 18.2104 109.285 18.2104 109.285ZM60.6385 208.5L44.8393 191.824L22.0097 194.449C22.0097 194.449 36.72 154.059 36.72 154.059C47.9202 161.762 61.061 166.836 75.2479 168.387C75.2479 168.387 60.6385 208.5 60.6385 208.5L60.6385 208.5ZM84.5 155.199C80.5427 155.199 76.6621 154.867 72.8801 154.238C72.8801 154.238 76.4478 140.934 76.4478 140.934C79.0797 141.305 81.7672 141.504 84.5 141.504C87.2328 141.504 89.9203 141.305 92.5522 140.934C92.5522 140.934 96.1199 154.238 96.1199 154.238C92.338 154.867 88.4573 155.199 84.5 155.199C84.5 155.199 84.5 155.199 84.5 155.199ZM147.604 194.445L124.775 191.82L108.975 208.496C108.975 208.496 94.3413 168.313 94.3413 168.313C108.51 166.664 121.618 161.5 132.77 153.715C132.77 153.715 147.604 194.445 147.604 194.445L147.604 194.445Z" fill="#C80A50" />
</svg>