<?xml version="1.0" encoding="utf-8"?>
<svg width="169" height="169" viewBox="0 0 169 169" fill="none" xmlns="http://www.w3.org/2000/svg">
  <g id="Group">
    <path id="Rectangle" d="M84.375 0L84.6875 0C131.252 0 169 37.748 169 84.3125C169 84.3445 169 84.3765 169 84.4085C169 84.4807 169 84.5528 169 84.625C169 131.224 131.224 169 84.625 169L84.375 169Q82.3037 169 80.2349 168.898Q78.1661 168.797 76.1048 168.594Q74.0435 168.391 71.9946 168.087Q69.9457 167.783 67.9143 167.379Q65.8828 166.975 63.8735 166.471Q61.8643 165.968 59.8822 165.367Q57.9001 164.766 55.9499 164.068Q53.9997 163.37 52.0861 162.577Q50.1725 161.785 48.3 160.899Q46.4276 160.014 44.6009 159.037Q42.7742 158.061 40.9976 156.996Q39.221 155.931 37.4988 154.78Q35.7765 153.63 34.1129 152.396Q32.4492 151.162 30.8481 149.848Q29.2469 148.534 27.7122 147.143Q26.1775 145.752 24.7129 144.287Q23.2482 142.822 21.8573 141.288Q20.4663 139.753 19.1522 138.152Q17.8382 136.551 16.6044 134.887Q15.3705 133.223 14.2198 131.501Q13.069 129.779 12.0041 128.002Q10.9393 126.226 9.96289 124.399Q8.98649 122.572 8.1009 120.7Q7.21531 118.828 6.42266 116.914Q5.63002 115 4.93222 113.05Q4.23442 111.1 3.63316 109.118Q3.0319 107.136 2.52861 105.126Q2.02533 103.117 1.62124 101.086Q1.21715 99.0542 0.913232 97.0054Q0.609311 94.9565 0.406289 92.8952Q0.203267 90.8339 0.101633 88.7651Q0 86.6963 0 84.625L0 84.375Q0 82.3037 0.101633 80.2349Q0.203267 78.1661 0.406289 76.1048Q0.609311 74.0435 0.913232 71.9946Q1.21715 69.9457 1.62124 67.9143Q2.02533 65.8828 2.52861 63.8735Q3.0319 61.8643 3.63316 59.8822Q4.23442 57.9001 4.93222 55.9499Q5.63002 53.9997 6.42266 52.0861Q7.21531 50.1725 8.1009 48.3Q8.98649 46.4276 9.96289 44.6009Q10.9393 42.7742 12.0041 40.9976Q13.069 39.221 14.2198 37.4988Q15.3705 35.7765 16.6044 34.1129Q17.8382 32.4492 19.1522 30.8481Q20.4663 29.2469 21.8572 27.7122Q23.2482 26.1775 24.7129 24.7129Q26.1775 23.2482 27.7122 21.8573Q29.2469 20.4663 30.8481 19.1522Q32.4492 17.8382 34.1129 16.6044Q35.7765 15.3705 37.4988 14.2198Q39.221 13.069 40.9976 12.0041Q42.7742 10.9393 44.6009 9.96289Q46.4276 8.98649 48.3 8.1009Q50.1725 7.21531 52.0861 6.42266Q53.9997 5.63002 55.9499 4.93222Q57.9001 4.23442 59.8822 3.63316Q61.8643 3.0319 63.8735 2.52861Q65.8828 2.02533 67.9143 1.62124Q69.9457 1.21715 71.9946 0.913232Q74.0435 0.609311 76.1048 0.406289Q78.1661 0.203267 80.2349 0.101633Q82.3037 0 84.375 0Z" fill="#C80A50" fill-rule="evenodd" />
    <path id="Shape" d="M125.446 115.68C125.446 115.68 115.706 105.946 115.706 105.946C119.014 101.74 121.741 97.0576 123.772 92.0234C123.772 92.0234 137.087 95.5887 137.087 95.5887C134.318 102.943 130.362 109.72 125.446 115.68C125.446 115.68 125.446 115.68 125.446 115.68ZM27.4054 70.7508C27.4054 46.8398 46.871 27.3867 70.7973 27.3867C94.7236 27.3867 114.189 46.8393 114.189 70.7508C114.189 94.6617 94.7236 114.115 70.7973 114.115C46.871 114.115 27.4054 94.6617 27.4054 70.7508C27.4054 70.7508 27.4054 70.7508 27.4054 70.7508ZM49.5092 123.687C49.5092 123.687 45.9415 136.993 45.9415 136.993C38.5831 134.226 31.8017 130.272 25.8373 125.359C25.8373 125.359 35.5777 115.625 35.5777 115.625C39.7867 118.931 44.4716 121.656 49.5092 123.687C49.5092 123.687 49.5092 123.687 49.5092 123.687ZM106.016 115.625C106.016 115.625 115.757 125.359 115.757 125.359C109.793 130.272 103.011 134.226 95.6526 136.993C95.6526 136.993 92.0849 123.687 92.0849 123.687C97.1225 121.656 101.807 118.931 106.016 115.625C106.016 115.625 106.016 115.625 106.016 115.625ZM141.595 70.7494C141.595 74.7041 141.263 78.5825 140.636 82.3621C140.636 82.3621 127.321 78.7968 127.321 78.7968C127.695 76.1666 127.892 73.4806 127.892 70.7494C127.892 68.0182 127.695 65.3322 127.321 62.702C127.321 62.702 140.636 59.1367 140.636 59.1367C141.263 62.9164 141.595 66.7943 141.595 70.7494C141.595 70.7494 141.595 70.7494 141.595 70.7494ZM137.087 45.9158C137.087 45.9158 123.772 49.4811 123.772 49.4811C121.741 44.4469 119.014 39.7646 115.706 35.5585C115.706 35.5585 125.446 25.8242 125.446 25.8242C130.362 31.7848 134.319 38.5621 137.087 45.9158C137.087 45.9158 137.087 45.9158 137.087 45.9158ZM95.6526 4.50391C103.011 7.27032 109.793 11.2246 115.757 16.1372C115.757 16.1372 106.016 25.8715 106.016 25.8715C101.807 22.5653 97.1225 19.84 92.0849 17.8099C92.0849 17.8099 95.6526 4.50391 95.6526 4.50391C95.6526 4.50391 95.6526 4.50391 95.6526 4.50391ZM70.7973 0C74.7547 0 78.6353 0.331804 82.4172 0.958394C82.4172 0.958394 78.8495 14.2639 78.8495 14.2639C76.2177 13.891 73.5301 13.694 70.7973 13.694C68.0645 13.694 65.377 13.8915 62.7452 14.2639C62.7452 14.2639 59.1774 0.958394 59.1774 0.958394C62.9594 0.331804 66.84 0 70.7973 0C70.7973 0 70.7973 0 70.7973 0ZM45.9424 4.50391C45.9424 4.50391 49.5102 17.8099 49.5102 17.8099C44.4721 19.84 39.7872 22.5658 35.5782 25.8715C35.5782 25.8715 25.8378 16.1372 25.8378 16.1372C31.8022 11.2246 38.5836 7.27077 45.9424 4.50391C45.9424 4.50391 45.9424 4.50391 45.9424 4.50391ZM16.1482 25.8242C16.1482 25.8242 25.889 35.5585 25.889 35.5585C22.5807 39.7646 19.8539 44.4469 17.8222 49.4811C17.8222 49.4811 4.50775 45.9158 4.50775 45.9158C7.27615 38.5617 11.2326 31.7848 16.1482 25.8242C16.1482 25.8242 16.1482 25.8242 16.1482 25.8242ZM0 70.7494C0 66.7947 0.331604 62.9164 0.958732 59.1367C0.958732 59.1367 14.2732 62.702 14.2732 62.702C13.9 65.3322 13.7027 68.0182 13.7027 70.7494C13.7027 73.4806 13.9 76.1666 14.2732 78.7968C14.2732 78.7968 0.958729 82.3621 0.958729 82.3621C0.331604 78.582 0 74.7041 0 70.7494C0 70.7494 0 70.7494 0 70.7494ZM4.50775 95.5887C4.50775 95.5887 17.8222 92.0234 17.8222 92.0234C19.8539 97.0576 22.5807 101.74 25.889 105.946C25.889 105.946 16.1482 115.68 16.1482 115.68C11.2326 109.72 7.27615 102.943 4.50775 95.5887C4.50775 95.5887 4.50775 95.5887 4.50775 95.5887ZM70.7973 141.502C66.84 141.502 62.9594 141.171 59.1774 140.544C59.1774 140.544 62.7452 127.238 62.7452 127.238C65.377 127.611 68.0645 127.808 70.7973 127.808C73.5301 127.808 76.2177 127.611 78.8495 127.238C78.8495 127.238 82.4172 140.544 82.4172 140.544C78.6353 141.171 74.7547 141.502 70.7973 141.502C70.7973 141.502 70.7973 141.502 70.7973 141.502Z" fill="#111214" transform="translate(14 14)" />
  </g>
</svg>