<?xml version="1.0" encoding="utf-8"?>
<svg width="166.514" height="97.215" viewBox="0 0 166.514 97.215" fill="none" xmlns="http://www.w3.org/2000/svg">
  <path id="Shape" d="M25.9512 1.73047C25.9512 1.73047 0 73.7969 0 73.7969L38.0498 69.4219L64.3824 97.2148L83.257 45.3906L102.133 97.2148L128.465 69.4219L166.514 73.7969C166.514 73.7969 141.76 0 141.76 0C93.269 26.1172 79.3825 28.2695 25.9512 1.73047ZM59.0882 71.707L43.289 55.0313L20.4594 57.6563C20.4594 57.6563 35.1697 17.2656 35.1697 17.2656C46.3698 24.9688 59.5107 30.043 73.6976 31.5938C73.6976 31.5938 59.0882 71.707 59.0882 71.707L59.0882 71.707ZM146.054 57.6523L123.225 55.0273L107.425 71.7031C107.425 71.7031 92.7909 31.5234 92.7909 31.5234C106.959 29.8711 120.068 24.707 131.22 16.9219C131.22 16.9219 146.054 57.6523 146.054 57.6523L146.054 57.6523Z" fill="#C80A50" />
</svg>