<?xml version="1.0" encoding="utf-8"?>
<svg width="223" height="234" viewBox="0 0 223 234" fill="none" xmlns="http://www.w3.org/2000/svg">
  <g>
    <rect width="223" height="234" />
    <g id="approval" transform="translate(0 15)">
      <path id="Path" d="M4.35546 0C1.94994 0 0 1.94249 0 4.32338C0 6.73914 1.94994 8.68378 4.35546 8.68378C4.35546 8.68378 4.39633 8.68378 4.39633 8.68378C6.80188 8.68378 8.7314 6.73914 8.7314 4.32338C8.7314 1.94249 6.76097 0 4.35546 0C4.35546 0 4.35546 0 4.35546 0Z" fill="#00A0C8" fill-rule="evenodd" transform="translate(22.84 19.105)" />
      <path id="Path" d="M4.35539 0C1.94994 0 0 1.94249 0 4.32338C0 6.73914 1.94994 8.68378 4.35539 8.68378C4.35539 8.68378 4.39635 8.68378 4.39635 8.68378C6.8018 8.68378 8.7314 6.73914 8.7314 4.32338C8.7314 1.94249 6.76099 0 4.35539 0C4.35539 0 4.35539 0 4.35539 0Z" fill="#00A0C8" fill-rule="evenodd" transform="translate(42.659 19.105)" />
      <path id="Path" d="M4.3554 0C1.94994 0 0 1.94249 0 4.32338C0 6.73914 1.94994 8.68378 4.3554 8.68378C4.3554 8.68378 4.39596 8.68378 4.39596 8.68378C6.80146 8.68378 8.73139 6.73914 8.73139 4.32338C8.73139 1.94249 6.76098 0 4.3554 0C4.3554 0 4.3554 0 4.3554 0Z" fill="#00A0C8" fill-rule="evenodd" transform="translate(62.479 19.105)" />
      <path id="Path" d="M75.4573 0C75.4573 0 4.35543 0 4.35543 0C1.94995 0 0 1.94249 0 4.32338C0 6.73914 1.94995 8.68378 4.35543 8.68378C4.35543 8.68378 75.4573 8.68378 75.4573 8.68378C77.8628 8.68378 79.8126 6.73914 79.8126 4.32338C79.8126 1.94249 77.8628 0 75.4573 0C75.4573 0 75.4573 0 75.4573 0Z" fill="#00A0C8" fill-rule="evenodd" transform="translate(96.587 19.105)" />
      <path id="Path" d="M7.43484 1.27151C6.62898 0.46109 5.50536 0 4.35547 0C3.20991 0 2.08638 0.460617 1.27618 1.27151C0.466141 2.07741 0 3.20039 0 4.32362C0 5.48029 0.466141 6.5997 1.27618 7.39795C2.08638 8.19572 3.20991 8.68379 4.35547 8.68379C5.50094 8.68379 6.62458 8.1962 7.43484 7.39795C8.2493 6.5997 8.71093 5.48029 8.71093 4.32362C8.71093 3.20039 8.2493 2.07741 7.43484 1.27151C7.43484 1.27151 7.43484 1.27151 7.43484 1.27151Z" fill="#00A0C8" fill-rule="evenodd" transform="translate(101.192 159.785)" />
      <path id="Shape" d="M77.5286 0C77.5286 0 4.35546 0 4.35546 0C1.94994 0 0 1.9443 0 4.34189C0 4.34189 0 77.287 0 77.287C0 79.6845 1.94994 81.6288 4.35546 81.6288C4.35546 81.6288 77.5286 81.6288 77.5286 81.6288C79.9341 81.6288 81.884 79.685 81.884 77.287C81.884 77.287 81.884 4.34189 81.884 4.34189C81.884 1.94431 79.9341 0 77.5286 0C77.5286 0 77.5286 0 77.5286 0ZM73.1731 72.9449L8.71094 72.9449L8.71094 8.68359L73.1731 8.68359L73.1731 72.9449L73.1731 72.9449Z" fill="#00A0C8" transform="translate(23.52 62.523)" />
      <path id="Shape" d="M216.915 65.5899L199.484 55.5575C199.484 55.5575 199.484 13.0257 199.484 13.0257C199.484 5.84332 193.622 0 186.417 0C186.417 0 13.0668 0 13.0668 0C5.86158 -8.2815e-07 0 5.84332 0 13.0257C0 13.0257 0 155.442 0 155.442C0 162.625 5.86158 168.468 13.0668 168.468C13.0668 168.468 86.4577 168.468 86.4577 168.468C88.8632 168.468 90.8132 166.524 90.8132 164.127C90.8132 161.729 88.8632 159.785 86.4577 159.785C86.4577 159.785 13.0668 159.785 13.0668 159.785C10.6652 159.785 8.71136 157.837 8.71136 155.443C8.71136 155.443 8.71136 46.8929 8.71136 46.8929L190.773 46.8929C190.773 46.8929 190.773 54.0162 190.773 54.0162C190.51 54.0683 190.248 54.126 189.987 54.1959C186.845 55.0352 184.22 57.0438 182.594 59.8508C182.594 59.8508 168.975 83.3652 168.975 83.3652C168.975 83.3652 125.729 83.3652 125.729 83.3652C123.323 83.3652 121.373 85.3095 121.373 87.7071C121.373 90.1047 123.323 92.049 125.729 92.049C125.729 92.049 163.946 92.049 163.946 92.049L156.905 104.207C156.905 104.207 125.729 104.207 125.729 104.207C123.324 104.207 121.374 106.151 121.374 108.549C121.374 110.946 123.324 112.89 125.729 112.89C125.729 112.89 151.876 112.89 151.876 112.89L144.835 125.048C144.835 125.048 125.729 125.048 125.729 125.048C123.324 125.048 121.374 126.992 121.374 129.39C121.374 131.787 123.324 133.732 125.729 133.732C125.729 133.732 139.806 133.732 139.806 133.732C139.806 133.732 127.656 154.711 127.656 154.711C127.349 155.24 127.158 155.828 127.095 156.436C127.095 156.436 122.565 200.212 122.565 200.212C122.389 201.914 123.233 203.562 124.72 204.418C125.396 204.807 126.147 204.999 126.897 204.999C127.796 204.999 128.692 204.722 129.451 204.175C129.451 204.175 165.214 178.376 165.214 178.376C165.711 178.018 166.126 177.559 166.433 177.029C166.433 177.029 171.391 168.468 171.391 168.468C171.391 168.468 186.418 168.468 186.418 168.468C193.623 168.468 199.484 162.624 199.484 155.442C199.484 155.442 199.484 121.575 199.484 121.575C199.484 121.129 199.416 120.699 199.291 120.294C199.291 120.294 221.372 82.169 221.372 82.169C224.728 76.3743 222.729 68.9362 216.915 65.5899C216.915 65.5899 216.915 65.5899 216.915 65.5899ZM8.71094 38.205C8.71094 38.205 8.71094 13.0216 8.71094 13.0216C8.71094 10.6275 10.6648 8.67969 13.0664 8.67969C13.0664 8.67969 186.417 8.67969 186.417 8.67969C188.819 8.67969 190.772 10.6275 190.772 13.0216C190.772 13.0216 190.772 38.205 190.772 38.205L8.71094 38.205L8.71094 38.205ZM132.228 191.452L135.069 163.992L154.662 175.269L132.228 191.452L132.228 191.452ZM190.773 155.44C190.773 157.834 188.819 159.782 186.417 159.782C186.417 159.782 176.42 159.782 176.42 159.782L190.773 135L190.773 155.44C190.773 155.44 190.773 155.44 190.773 155.44ZM161.066 168.93L137.376 155.296L178.793 83.7852L202.482 97.4196L161.066 168.93L161.066 168.93ZM213.828 77.8281L206.838 89.8972L183.149 76.2628C183.149 76.2628 190.138 64.1933 190.138 64.1933C190.601 63.3943 191.348 62.8229 192.241 62.5842C193.136 62.3449 194.069 62.4682 194.87 62.9293C194.87 62.9293 212.56 73.1102 212.56 73.1102C214.213 74.0632 214.782 76.1795 213.828 77.8281C213.828 77.8281 213.828 77.8281 213.828 77.8281Z" fill="#00A0C8" />
      <path id="Path" d="M44.0219 1.26865C42.3211 -0.422882 39.5633 -0.422882 37.8619 1.26865C37.8619 1.26865 16.5511 22.5268 16.5511 22.5268C16.5511 22.5268 7.4355 13.4308 7.4355 13.4308C5.7347 11.734 2.9768 11.734 1.27562 13.4308C-0.425205 15.1252 -0.425205 17.8748 1.27562 19.5773C1.27562 19.5773 13.4713 31.7297 13.4713 31.7297C14.322 32.5788 15.4365 32.9988 16.5511 32.9988C17.6656 32.9988 18.7806 32.5788 19.6308 31.7297C19.6308 31.7297 44.0219 7.41325 44.0219 7.41325C45.7227 5.71168 45.7227 2.96019 44.0219 1.26865C44.0219 1.26865 44.0219 1.26865 44.0219 1.26865Z" fill="#00A0C8" fill-rule="evenodd" transform="translate(46.387 86.84)" />
      <path id="Path" d="M40.0864 0C40.0864 0 4.3554 0 4.3554 0C1.94994 0 0 1.94249 0 4.32339C0 6.73914 1.94994 8.68378 4.3554 8.68378C4.3554 8.68378 40.0864 8.68378 40.0864 8.68378C42.4919 8.68378 44.4418 6.73914 44.4418 4.32339C44.4418 1.94249 42.4919 0 40.0864 0C40.0864 0 40.0864 0 40.0864 0Z" fill="#00A0C8" fill-rule="evenodd" transform="translate(121.374 62.523)" />
    </g>
  </g>
</svg>