<?xml version="1.0" encoding="utf-8"?>
<svg width="134.479" height="206.996" viewBox="0 0 134.479 206.996" fill="none" xmlns="http://www.w3.org/2000/svg">
  <g id="Group">
    <path id="Path" d="M15.3406 7.40786C11.5793 6.73854 8.6532 3.80832 7.90024 0.125273C7.90024 -0.0417576 7.56544 -0.0417576 7.56544 0.125273C6.81247 3.80832 3.88756 6.73854 0.125092 7.40786C-0.0417023 7.40786 -0.0417023 7.6584 0.125092 7.74311C3.88638 8.41243 6.81248 11.3426 7.56544 15.0257C7.56544 15.1927 7.90024 15.1927 7.90024 15.0257C8.65202 11.3426 11.5781 8.41243 15.3406 7.7431C15.5074 7.65839 15.5074 7.40785 15.3406 7.40785C15.3406 7.40785 15.3406 7.40786 15.3406 7.40786Z" fill="#FAB400" fill-rule="evenodd" transform="translate(119.014 25.535)" />
    <path id="Path" d="M4.05079 0C1.81331 0 0 1.81588 0 4.05649C0 6.2971 1.81333 8.11297 4.05079 8.11297C6.28825 8.11297 8.10158 6.2971 8.10158 4.05649C8.10158 1.81588 6.28706 0 4.05079 0C4.05079 0 4.05079 0 4.05079 0Z" fill="#FAB400" fill-rule="evenodd" transform="translate(54.279 36.266)" />
    <path id="Path" d="M16.918 6.56196L14.1778 6.56196C14.1778 6.56196 14.1778 3.81787 14.1778 3.81787C14.1778 1.78963 12.5098 0 10.3653 0C8.22073 0 6.55276 1.67032 6.55276 3.81787C6.55276 3.81787 6.55276 6.56196 6.55276 6.56196C6.55276 6.56196 3.81251 6.56196 3.81251 6.56196C1.78712 6.56196 0 8.23228 0 10.3798C0 12.5274 1.66798 14.1977 3.81251 14.1977C3.81251 14.1977 6.55276 14.1977 6.55276 14.1977C6.55276 14.1977 6.55276 16.9418 6.55276 16.9418C6.55276 18.97 8.22073 20.7597 10.3653 20.7597C12.5098 20.7597 14.1778 19.0893 14.1778 16.9418C14.1778 16.9418 14.1778 14.1977 14.1778 14.1977C14.1778 14.1977 16.918 14.1977 16.918 14.1977C18.9434 14.1977 20.7305 12.5274 20.7305 10.3798C20.7305 8.23228 19.0626 6.56196 16.918 6.56196C16.918 6.56196 16.918 6.56196 16.918 6.56196Z" fill="#FAB400" fill-rule="evenodd" />
    <path id="Path" d="M21.8624 10.5588C16.501 9.60431 12.3311 5.42851 11.2588 0.178955C11.2588 -0.0596619 10.7823 -0.0596619 10.7823 0.178955C9.71 5.42851 5.54006 9.60431 0.178711 10.5588C-0.0595703 10.5588 -0.0595703 10.9167 0.178711 11.036C5.54006 11.9905 9.71 16.1663 10.7823 21.4158C10.7823 21.6544 11.2588 21.6544 11.2588 21.4158C12.3311 16.1663 16.501 11.9905 21.8624 11.036C22.1006 10.9167 22.1006 10.5588 21.8624 10.5588C21.8624 10.5588 21.8624 10.5588 21.8624 10.5588Z" fill="#FAB400" fill-rule="evenodd" transform="translate(98.421 185.402)" />
    <path id="Path" d="M4.05079 0C1.81331 0 0 1.81587 0 4.05647C0 6.29707 1.81333 8.11295 4.05079 8.11295C6.28825 8.11295 8.10158 6.29707 8.10158 4.05647C8.10158 1.81587 6.28825 0 4.05079 0C4.05079 0 4.05079 0 4.05079 0Z" fill="#FAB400" fill-rule="evenodd" transform="translate(76.489 177.055)" />
  </g>
</svg>