<?xml version="1.0" encoding="utf-8"?>
<svg width="181.181" height="181.434" viewBox="0 0 181.181 181.434" fill="none" xmlns="http://www.w3.org/2000/svg">
  <g id="Group">
    <path id="Path" d="M173.222 74.5463C173.222 74.5463 155.903 74.5463 155.903 74.5463C154.958 74.5463 154.154 73.8805 153.949 72.9559C152.215 65.1137 149.131 57.7799 144.952 51.2131C144.443 50.415 144.542 49.3746 145.21 48.7053C145.21 48.7053 157.458 36.4404 157.458 36.4404C158.24 35.6577 158.24 34.3895 157.458 33.6068C157.458 33.6068 141.661 17.7877 141.661 17.7877C140.88 17.005 139.613 17.005 138.832 17.7877C138.832 17.7877 126.584 30.0526 126.584 30.0526C125.915 30.7219 124.877 30.8209 124.079 30.3115C117.522 26.1262 110.198 23.0385 102.367 21.3013C101.444 21.0961 100.779 20.292 100.779 19.3447C100.779 19.3447 100.779 2.00319 100.779 2.00319C100.779 0.897202 99.8831 0 98.7787 0C98.7787 0 76.4409 0 76.4409 0C75.3365 0 74.4405 0.897198 74.4405 2.00319C74.4405 2.00319 74.4405 19.3459 74.4405 19.3459C74.4405 20.292 73.7757 21.0973 72.8524 21.3025C65.0212 23.0396 57.6976 26.1273 51.1401 30.3127C50.3431 30.8221 49.3041 30.7231 48.6358 30.0538C48.6358 30.0538 36.3881 17.7889 36.3881 17.7889C35.6065 17.0062 34.34 17.0062 33.5585 17.7889C33.5585 17.7889 17.7627 33.6068 17.7627 33.6068C16.9812 34.3895 16.9812 35.6577 17.7627 36.4404C17.7627 36.4404 30.0104 48.7053 30.0104 48.7053C30.6788 49.3746 30.7777 50.415 30.269 51.2131C26.0895 57.781 23.0061 65.1137 21.2714 72.9559C21.0665 73.8805 20.2635 74.5463 19.3175 74.5463C19.3175 74.5463 2.00038 74.5463 2.00038 74.5463C0.895941 74.5463 0 75.4435 0 76.5494C0 76.5494 0 98.921 0 98.921C0 100.027 0.895941 100.924 2.00038 100.924C2.00038 100.924 19.3187 100.924 19.3187 100.924C20.2635 100.924 21.0677 101.59 21.2726 102.515C23.0073 110.357 26.0907 117.691 30.2702 124.257C30.7789 125.055 30.68 126.096 30.0116 126.765C30.0116 126.765 17.7639 139.03 17.7639 139.03C16.9824 139.813 16.9824 141.081 17.7639 141.864C17.7639 141.864 33.5608 157.683 33.5608 157.683C34.3424 158.465 35.6089 158.465 36.3904 157.683C36.3904 157.683 48.6381 145.418 48.6381 145.418C49.3065 144.748 50.3454 144.649 51.1425 145.159C57.7 149.344 65.0236 152.432 72.8548 154.169C73.7781 154.374 74.4429 155.178 74.4429 156.126C74.4429 156.126 74.4429 173.468 74.4429 173.468C74.4429 174.574 75.3388 175.472 76.4433 175.472C76.4433 175.472 98.7834 175.472 98.7834 175.472C99.8879 175.472 100.784 174.574 100.784 173.468C100.784 173.468 100.784 156.126 100.784 156.126C100.784 155.18 101.449 154.374 102.372 154.169C110.203 152.432 117.527 149.344 124.084 145.159C124.881 144.649 125.92 144.749 126.589 145.418C126.589 145.418 138.836 157.683 138.836 157.683C139.618 158.465 140.884 158.465 141.666 157.683C141.666 157.683 157.463 141.864 157.463 141.864C158.244 141.081 158.244 139.813 157.463 139.03C157.463 139.03 145.215 126.765 145.215 126.765C144.547 126.096 144.448 125.055 144.957 124.257C149.136 117.691 152.219 110.357 153.954 102.515C154.159 101.59 154.962 100.924 155.908 100.924C155.908 100.924 173.226 100.924 173.226 100.924C174.331 100.924 175.227 100.027 175.227 98.921C175.227 98.921 175.227 76.5494 175.227 76.5494C175.222 75.4423 174.326 74.5463 173.222 74.5463C173.222 74.5463 173.222 74.5463 173.222 74.5463Z" fill="#FAB400" fill-rule="evenodd" transform="translate(3 3)" />
    <path id="Oval" d="M0 47.427C0 21.2338 21.204 0 47.3605 0C73.517 0 94.721 21.2338 94.721 47.427C94.721 73.6202 73.517 94.854 47.3605 94.854C21.204 94.854 0 73.6202 0 47.427Z" fill="#FAB400" fill-rule="evenodd" transform="translate(43 43)" />
    <path id="Oval" d="M0 29.5062C0 13.2104 13.1918 0 29.4648 0C45.7377 0 58.9296 13.2104 58.9296 29.5062C58.9296 45.802 45.7377 59.0123 29.4648 59.0123C13.1918 59.0123 0 45.802 0 29.5062Z" fill="#FAB400" fill-rule="evenodd" transform="translate(61 61)" />
    <path id="Shape" d="M176.2 74.5463C176.2 74.5463 159.668 74.5463 159.668 74.5463C157.913 66.9952 154.95 59.8355 150.852 53.2414C150.852 53.2414 162.544 41.5313 162.544 41.5313C164.485 39.5877 164.485 36.4249 162.544 34.4801C162.544 34.4801 146.747 18.661 146.747 18.661C144.806 16.7163 141.647 16.7151 139.706 18.661C139.706 18.661 128.012 30.3699 128.012 30.3699C121.427 26.2657 114.278 23.2985 106.737 21.5411C106.737 21.5411 106.737 4.9859 106.737 4.9859C106.737 2.23703 104.503 0 101.758 0C101.758 0 79.4194 0 79.4194 0C76.6744 0 74.4405 2.23703 74.4405 4.9859C74.4405 4.9859 74.4405 21.5423 74.4405 21.5423C66.9001 23.2997 59.7504 26.2669 53.1655 30.3711C53.1655 30.3711 41.473 18.6622 41.473 18.6622C39.5322 16.7175 36.3726 16.7187 34.4318 18.6622C34.4318 18.6622 18.6349 34.4801 18.6349 34.4801C16.694 36.4237 16.694 39.5865 18.6349 41.5313C18.6349 41.5313 30.3274 53.2414 30.3274 53.2414C26.2301 59.8344 23.2659 66.9952 21.5109 74.5463C21.5109 74.5463 4.97891 74.5463 4.97891 74.5463C2.2339 74.5463 0 76.7833 0 79.5322C0 79.5322 0 101.902 0 101.902C0 104.651 2.2339 106.888 4.97891 106.888C4.97891 106.888 21.5121 106.888 21.5121 106.888C23.2671 114.441 26.2301 121.6 30.3274 128.193C30.3274 128.193 18.6349 139.902 18.6349 139.902C16.694 141.846 16.694 145.009 18.6349 146.953C18.6349 146.953 34.4318 162.772 34.4318 162.772C36.3714 164.716 39.531 164.717 41.473 162.772C41.473 162.772 53.1667 151.063 53.1667 151.063C59.7504 155.168 66.9013 158.135 74.4417 159.892C74.4417 159.892 74.4417 176.448 74.4417 176.448C74.4417 179.196 76.6756 181.433 79.4206 181.433C79.4206 181.433 101.761 181.433 101.761 181.433C104.506 181.433 106.74 179.196 106.74 176.448C106.74 176.448 106.74 159.892 106.74 159.892C114.281 158.134 121.431 155.168 128.015 151.063C128.015 151.063 139.708 162.772 139.708 162.772C141.65 164.718 144.81 164.717 146.75 162.772C146.75 162.772 162.547 146.953 162.547 146.953C164.487 145.01 164.487 141.847 162.547 139.902C162.547 139.902 150.854 128.193 150.854 128.193C154.952 121.599 157.916 114.438 159.669 106.888C159.669 106.888 176.202 106.888 176.202 106.888C178.947 106.888 181.181 104.651 181.181 101.902C181.181 101.902 181.181 79.5322 181.181 79.5322C181.179 76.7833 178.945 74.5463 176.2 74.5463C176.2 74.5463 176.2 74.5463 176.2 74.5463ZM175.222 100.924C175.222 100.924 158.882 100.924 158.882 100.924C156.532 100.924 154.533 102.538 154.02 104.851C152.385 112.244 149.491 119.237 145.419 125.637C144.149 127.633 144.422 130.191 146.084 131.857C146.084 131.857 157.64 143.43 157.64 143.43L143.227 157.863C143.227 157.863 131.671 146.292 131.671 146.292C130.008 144.626 127.455 144.353 125.459 145.625C119.07 149.703 112.087 152.601 104.702 154.238C102.393 154.751 100.78 156.753 100.78 159.107C100.78 159.107 100.78 175.47 100.78 175.47L80.3976 175.47C80.3976 175.47 80.3976 159.107 80.3976 159.107C80.3976 156.754 78.7845 154.752 76.4755 154.238C69.0923 152.601 62.1095 149.703 55.7187 145.624C53.7243 144.353 51.1699 144.626 49.5079 146.291C49.5079 146.291 37.9512 157.862 37.9512 157.862L23.5375 143.428C23.5375 143.428 35.0954 131.855 35.0954 131.855C36.7574 130.19 37.0303 127.633 35.759 125.636C31.6868 119.239 28.7929 112.245 27.1571 104.85C26.6447 102.538 24.6456 100.924 22.2961 100.924C22.2961 100.924 5.95709 100.924 5.95709 100.924L5.95709 80.5111C5.95709 80.5111 22.2973 80.5111 22.2973 80.5111C24.6479 80.5111 26.6459 78.8957 27.1594 76.5835C28.7952 69.1899 31.688 62.1961 35.7614 55.7976C37.0315 53.8003 36.7574 51.2424 35.0954 49.5792C35.0954 49.5792 23.5387 38.0063 23.5387 38.0063L37.9524 23.5724C37.9524 23.5724 49.5091 35.1465 49.5091 35.1465C51.1723 36.8108 53.7267 37.084 55.7199 35.811C62.1107 31.7331 69.0935 28.8351 76.4743 27.1982C78.7845 26.6863 80.3976 24.6843 80.3976 22.3292C80.3976 22.3292 80.3976 5.96484 80.3976 5.96484L100.781 5.96484C100.781 5.96484 100.781 22.328 100.781 22.328C100.781 24.6831 102.395 26.6851 104.704 27.197C112.086 28.8339 119.068 31.7319 125.459 35.8098C127.454 37.084 130.009 36.8096 131.67 35.1441C131.67 35.1441 143.227 23.5712 143.227 23.5712L157.64 38.0051C157.64 38.0051 146.084 49.578 146.084 49.578C144.422 51.2424 144.148 53.7992 145.419 55.7976C149.491 62.1961 152.385 69.1899 154.02 76.5835C154.532 78.8957 156.531 80.5111 158.882 80.5111C158.882 80.5111 175.222 80.5111 175.222 80.5111L175.222 100.924Z" fill="#111214" />
    <path id="Shape" d="M50.3145 0C22.5701 0 0 22.603 0 50.3851C0 78.1673 22.5713 100.771 50.3145 100.771C78.0576 100.771 100.629 78.1685 100.629 50.3851C100.629 22.6018 78.0576 0 50.3144 0C50.3144 0 50.3145 0 50.3145 0ZM50.3144 94.8055C25.856 94.8055 5.95703 74.8786 5.95703 50.3846C5.95703 25.8917 25.856 5.96484 50.3144 5.96484C74.7729 5.96484 94.6718 25.8917 94.6718 50.3846C94.6718 74.8786 74.7729 94.8055 50.3144 94.8055C50.3144 94.8055 50.3144 94.8055 50.3144 94.8055Z" fill="#111214" transform="translate(40 40)" />
    <path id="Shape" d="M32.4433 0C14.5531 0 0 14.5747 0 32.4889C0 50.403 14.5543 64.9777 32.4433 64.9777C50.3323 64.9777 64.8866 50.403 64.8866 32.4889C64.8866 14.5747 50.3323 0 32.4433 0C32.4433 0 32.4433 0 32.4433 0ZM32.4433 59.0117C17.839 59.0117 5.95703 47.1131 5.95703 32.4883C5.95703 17.8635 17.839 5.96484 32.4433 5.96484C47.0476 5.96484 58.9295 17.8635 58.9295 32.4883C58.9295 47.1131 47.0476 59.0117 32.4433 59.0117C32.4433 59.0117 32.4433 59.0117 32.4433 59.0117Z" fill="#111214" transform="translate(58 58)" />
  </g>
</svg>