<?xml version="1.0" encoding="utf-8"?>
<svg width="305" height="207" viewBox="0 0 305 207" fill="none" xmlns="http://www.w3.org/2000/svg">
  <g id="Layer_31">
    <g id="Group">
      <path id="Path" d="M106.82 45.9695C106.82 45.9695 96.1397 45.9695 96.1397 45.9695C95.5572 45.9695 95.0615 45.5591 94.9352 44.9888C93.8654 40.1532 91.9638 35.6302 89.3868 31.5797C89.0735 31.087 89.1342 30.4463 89.5465 30.0335C89.5465 30.0335 97.0988 22.4705 97.0988 22.4705C97.5802 21.9885 97.5802 21.2059 97.0988 20.7239C97.0988 20.7239 87.3579 10.9692 87.3579 10.9692C86.8765 10.4872 86.095 10.4872 85.6136 10.9692C85.6136 10.9692 78.0613 18.5322 78.0613 18.5322C77.6491 18.945 77.0081 19.0058 76.5172 18.692C72.4736 16.1114 67.9569 14.2072 63.127 13.1359C62.5575 13.0094 62.1476 12.5131 62.1476 11.9296C62.1476 11.9296 62.1476 1.23485 62.1476 1.23485C62.1476 0.552402 61.5948 0 60.9145 0C60.9145 0 47.1382 0 47.1382 0C46.4567 0 45.9051 0.553589 45.9051 1.23485C45.9051 1.23485 45.9051 11.9296 45.9051 11.9296C45.9051 12.5131 45.4952 13.0094 44.9257 13.1359C40.097 14.2072 35.5803 16.1114 31.5355 18.692C31.0434 19.0058 30.4036 18.945 29.9914 18.5322C29.9914 18.5322 22.439 10.9692 22.439 10.9692C21.9577 10.4872 21.1761 10.4872 20.6948 10.9692C20.6948 10.9692 10.9538 20.7239 10.9538 20.7239C10.4725 21.2059 10.4725 21.9885 10.9538 22.4705C10.9538 22.4705 18.5062 30.0335 18.5062 30.0335C18.9184 30.4463 18.9792 31.0882 18.6658 31.5797C16.0888 35.6302 14.1873 40.152 13.1174 44.9888C12.9911 45.5591 12.4955 45.9695 11.9129 45.9695C11.9129 45.9695 1.23311 45.9695 1.23311 45.9695C0.55162 45.9695 0 46.5231 0 47.2044C0 47.2044 0 61 0 61C0 61.6824 0.552826 62.236 1.23311 62.236C1.23311 62.236 11.9129 62.236 11.9129 62.236C12.4955 62.236 12.9911 62.6464 13.1174 63.2168C14.1873 68.0523 16.0888 72.5753 18.6658 76.6258C18.9792 77.1186 18.9184 77.7592 18.5062 78.1721C18.5062 78.1721 10.9538 85.735 10.9538 85.735C10.4725 86.217 10.4725 86.9997 10.9538 87.4817C10.9538 87.4817 20.6948 97.2363 20.6948 97.2363C21.1761 97.7184 21.9577 97.7184 22.439 97.2363C22.439 97.2363 29.9914 89.6722 29.9914 89.6722C30.4036 89.2594 31.0446 89.1985 31.5355 89.5123C35.5791 92.093 40.0957 93.9983 44.9257 95.0685C45.4952 95.195 45.9051 95.6913 45.9051 96.2747C45.9051 96.2747 45.9051 106.97 45.9051 106.97C45.9051 107.652 46.4579 108.204 47.1382 108.204C47.1382 108.204 60.9145 108.204 60.9145 108.204C61.596 108.204 62.1476 107.651 62.1476 106.97C62.1476 106.97 62.1476 96.2747 62.1476 96.2747C62.1476 95.6913 62.5574 95.195 63.127 95.0685C67.9569 93.9971 72.4724 92.093 76.5172 89.5123C77.0092 89.1985 77.649 89.2594 78.0613 89.6722C78.0613 89.6722 85.6136 97.2363 85.6136 97.2363C86.095 97.7184 86.8765 97.7184 87.3579 97.2363C87.3579 97.2363 97.0988 87.4817 97.0988 87.4817C97.5802 86.9997 97.5802 86.217 97.0988 85.735C97.0988 85.735 89.5465 78.1721 89.5465 78.1721C89.1342 77.7593 89.0735 77.1174 89.3868 76.6258C91.9638 72.5765 93.8654 68.0535 94.9352 63.2168C95.0615 62.6465 95.5572 62.236 96.1397 62.236C96.1397 62.236 106.82 62.236 106.82 62.236C107.501 62.236 108.053 61.6824 108.053 61C108.053 61 108.053 47.2044 108.053 47.2044C108.053 46.5231 107.5 45.9695 106.82 45.9695C106.82 45.9695 106.82 45.9695 106.82 45.9695Z" fill="#FAB400" fill-rule="evenodd" transform="translate(193.97 59.719)" />
      <path id="Path" d="M173.222 74.5463C173.222 74.5463 155.903 74.5463 155.903 74.5463C154.958 74.5463 154.154 73.8805 153.949 72.9559C152.215 65.1137 149.131 57.7799 144.952 51.2131C144.443 50.4149 144.542 49.3746 145.21 48.7053C145.21 48.7053 157.458 36.4404 157.458 36.4404C158.24 35.6577 158.24 34.3895 157.458 33.6068C157.458 33.6068 141.661 17.7877 141.661 17.7877C140.88 17.005 139.613 17.005 138.832 17.7877C138.832 17.7877 126.584 30.0526 126.584 30.0526C125.915 30.7219 124.877 30.8209 124.079 30.3115C117.522 26.1262 110.198 23.0385 102.367 21.3013C101.444 21.0961 100.779 20.292 100.779 19.3447C100.779 19.3447 100.779 2.00319 100.779 2.00319C100.779 0.897202 99.8831 0 98.7787 0C98.7787 0 76.4409 0 76.4409 0C75.3365 0 74.4405 0.897198 74.4405 2.00319C74.4405 2.00319 74.4405 19.3459 74.4405 19.3459C74.4405 20.292 73.7757 21.0973 72.8524 21.3025C65.0212 23.0396 57.6976 26.1273 51.1401 30.3127C50.3431 30.8221 49.3041 30.7231 48.6358 30.0538C48.6358 30.0538 36.3881 17.7889 36.3881 17.7889C35.6065 17.0062 34.34 17.0062 33.5585 17.7889C33.5585 17.7889 17.7627 33.6068 17.7627 33.6068C16.9812 34.3895 16.9812 35.6577 17.7627 36.4404C17.7627 36.4404 30.0104 48.7053 30.0104 48.7053C30.6788 49.3746 30.7777 50.4149 30.269 51.2131C26.0895 57.781 23.0061 65.1137 21.2714 72.9559C21.0665 73.8805 20.2635 74.5463 19.3175 74.5463C19.3175 74.5463 2.00038 74.5463 2.00038 74.5463C0.895941 74.5463 0 75.4435 0 76.5494C0 76.5494 0 98.921 0 98.921C0 100.027 0.895941 100.924 2.00038 100.924C2.00038 100.924 19.3187 100.924 19.3187 100.924C20.2635 100.924 21.0677 101.59 21.2726 102.515C23.0073 110.357 26.0907 117.691 30.2702 124.257C30.7789 125.055 30.68 126.096 30.0116 126.765C30.0116 126.765 17.7639 139.03 17.7639 139.03C16.9824 139.813 16.9824 141.081 17.7639 141.864C17.7639 141.864 33.5608 157.683 33.5608 157.683C34.3424 158.465 35.6089 158.465 36.3904 157.683C36.3904 157.683 48.6381 145.418 48.6381 145.418C49.3065 144.748 50.3454 144.649 51.1425 145.159C57.7 149.344 65.0236 152.432 72.8548 154.169C73.7781 154.374 74.4429 155.178 74.4429 156.126C74.4429 156.126 74.4429 173.468 74.4429 173.468C74.4429 174.574 75.3388 175.472 76.4433 175.472C76.4433 175.472 98.7834 175.472 98.7834 175.472C99.8879 175.472 100.784 174.574 100.784 173.468C100.784 173.468 100.784 156.126 100.784 156.126C100.784 155.18 101.449 154.374 102.372 154.169C110.203 152.432 117.527 149.344 124.084 145.159C124.881 144.649 125.92 144.749 126.589 145.418C126.589 145.418 138.836 157.683 138.836 157.683C139.618 158.465 140.884 158.465 141.666 157.683C141.666 157.683 157.463 141.864 157.463 141.864C158.244 141.081 158.244 139.813 157.463 139.03C157.463 139.03 145.215 126.765 145.215 126.765C144.547 126.096 144.448 125.055 144.957 124.257C149.136 117.691 152.219 110.357 153.954 102.515C154.159 101.59 154.962 100.924 155.908 100.924C155.908 100.924 173.226 100.924 173.226 100.924C174.331 100.924 175.227 100.027 175.227 98.921C175.227 98.921 175.227 76.5494 175.227 76.5494C175.222 75.4423 174.326 74.5463 173.222 74.5463C173.222 74.5463 173.222 74.5463 173.222 74.5463Z" fill="#FAB400" fill-rule="evenodd" transform="translate(2.979 26.086)" />
      <path id="Oval" d="M0 47.427C0 21.2338 21.204 0 47.3605 0C73.517 0 94.721 21.2338 94.721 47.427C94.721 73.6202 73.517 94.854 47.3605 94.854C21.204 94.854 0 73.6202 0 47.427Z" fill="#FAB400" fill-rule="evenodd" transform="translate(43.292 66.383)" />
      <path id="Oval" d="M0 29.5062C0 13.2104 13.1918 0 29.4648 0C45.7377 0 58.9296 13.2104 58.9296 29.5062C58.9296 45.802 45.7377 59.0123 29.4648 59.0123C13.1918 59.0123 0 45.802 0 29.5062Z" fill="#FAB400" fill-rule="evenodd" transform="translate(61.125 84.313)" />
      <path id="Oval" d="M0 29.2329C0 13.088 13.0697 0 29.192 0C45.3142 0 58.3839 13.088 58.3839 29.2329C58.3839 45.3778 45.3142 58.4659 29.192 58.4659C13.0697 58.4659 0 45.3778 0 29.2329Z" fill="#FAB400" fill-rule="evenodd" transform="translate(218.803 84.586)" />
      <path id="Path" d="M30.7822 1.63213C28.6078 -0.544044 25.0848 -0.544044 22.9105 1.63213C22.9105 1.63213 13.9797 10.5755 13.9797 10.5755C13.9797 10.5755 9.50238 6.09189 9.50238 6.09189C7.32806 3.9157 3.80505 3.9157 1.63074 6.09189C-0.543579 8.26808 -0.543579 11.7984 1.63074 13.9746C1.63074 13.9746 10.0433 22.399 10.0433 22.399C11.131 23.4871 12.5548 24.0311 13.9797 24.0311C15.4046 24.0311 16.8284 23.4871 17.9161 22.399C17.9161 22.399 30.7834 9.51365 30.7834 9.51365C32.9565 7.33866 32.9565 3.80951 30.7822 1.63213C30.7822 1.63213 30.7822 1.63213 30.7822 1.63213Z" fill="#FAB400" fill-rule="evenodd" transform="translate(231.148 103.879)" />
      <path id="Path" d="M15.3406 7.40786C11.5793 6.73854 8.6532 3.80832 7.90024 0.125273C7.90024 -0.0417576 7.56544 -0.0417576 7.56544 0.125273C6.81247 3.80832 3.88756 6.73854 0.125092 7.40786C-0.0417023 7.40786 -0.0417023 7.6584 0.125092 7.74311C3.88637 8.41243 6.81248 11.3426 7.56544 15.0257C7.56544 15.1927 7.90024 15.1927 7.90024 15.0257C8.65201 11.3426 11.5781 8.41243 15.3406 7.7431C15.5074 7.65839 15.5074 7.40785 15.3406 7.40785C15.3406 7.40785 15.3406 7.40786 15.3406 7.40786Z" fill="#FAB400" fill-rule="evenodd" transform="translate(239.346 25.535)" />
      <path id="Path" d="M4.05078 0C1.81331 0 0 1.81588 0 4.05649C0 6.2971 1.81332 8.11297 4.05078 8.11297C6.28825 8.11297 8.10158 6.2971 8.10158 4.05649C8.10158 1.81588 6.28706 0 4.05078 0C4.05078 0 4.05078 0 4.05078 0Z" fill="#FAB400" fill-rule="evenodd" transform="translate(174.612 36.266)" />
      <path id="Path" d="M16.918 6.56196L14.1778 6.56196C14.1778 6.56196 14.1778 3.81787 14.1778 3.81787C14.1778 1.78963 12.5098 0 10.3653 0C8.22073 0 6.55276 1.67032 6.55276 3.81787C6.55276 3.81787 6.55276 6.56196 6.55276 6.56196C6.55276 6.56196 3.81251 6.56196 3.81251 6.56196C1.78712 6.56196 0 8.23228 0 10.3798C0 12.5274 1.66798 14.1977 3.81251 14.1977C3.81251 14.1977 6.55276 14.1977 6.55276 14.1977C6.55276 14.1977 6.55276 16.9418 6.55276 16.9418C6.55276 18.97 8.22073 20.7597 10.3653 20.7597C12.5098 20.7597 14.1778 19.0893 14.1778 16.9418C14.1778 16.9418 14.1778 14.1977 14.1778 14.1977C14.1778 14.1977 16.918 14.1977 16.918 14.1977C18.9434 14.1977 20.7305 12.5274 20.7305 10.3798C20.7305 8.23228 19.0626 6.56196 16.918 6.56196C16.918 6.56196 16.918 6.56196 16.918 6.56196Z" fill="#FAB400" fill-rule="evenodd" transform="translate(120.333 0)" />
      <path id="Path" d="M21.8624 10.5588C16.501 9.60431 12.3311 5.42851 11.2588 0.178955C11.2588 -0.0596619 10.7823 -0.0596619 10.7823 0.178955C9.70999 5.42851 5.54005 9.60431 0.178711 10.5588C-0.0595703 10.5588 -0.0595703 10.9167 0.178711 11.036C5.54005 11.9905 9.70999 16.1663 10.7823 21.4158C10.7823 21.6544 11.2588 21.6544 11.2588 21.4158C12.3311 16.1663 16.501 11.9905 21.8624 11.036C22.1006 10.9167 22.1006 10.5588 21.8624 10.5588C21.8624 10.5588 21.8624 10.5588 21.8624 10.5588Z" fill="#FAB400" fill-rule="evenodd" transform="translate(218.754 185.402)" />
      <path id="Path" d="M4.05078 0C1.81331 0 0 1.81587 0 4.05647C0 6.29707 1.81332 8.11295 4.05078 8.11295C6.28825 8.11295 8.10158 6.29707 8.10158 4.05647C8.10158 1.81587 6.28825 0 4.05078 0C4.05078 0 4.05078 0 4.05078 0Z" fill="#FAB400" fill-rule="evenodd" transform="translate(196.821 177.055)" />
      <path id="Shape" d="M109.803 45.9707C109.803 45.9707 100.505 45.9707 100.505 45.9707C99.4482 41.8092 97.8076 37.8434 95.613 34.1485C95.613 34.1485 102.19 27.5626 102.19 27.5626C103.833 25.9186 103.833 23.2425 102.19 21.5972C102.19 21.5972 92.4487 11.8426 92.4487 11.8426C90.8057 10.1961 88.1322 10.1973 86.4916 11.8426C86.4916 11.8426 79.915 18.4284 79.915 18.4284C76.224 16.2307 72.2638 14.5866 68.1093 13.5296C68.1093 13.5296 68.1093 4.21756 68.1093 4.21756C68.1093 1.89224 66.2198 0 63.8965 0C63.8965 0 50.1202 0 50.1202 0C47.797 0 45.9074 1.89223 45.9074 4.21756C45.9074 4.21756 45.9074 13.5296 45.9074 13.5296C41.7518 14.5878 37.7903 16.2307 34.1029 18.4284C34.1029 18.4284 27.5251 11.8414 27.5251 11.8414C25.8822 10.1985 23.2099 10.1997 21.5693 11.8426C21.5693 11.8426 11.8271 21.5972 11.8271 21.5972C10.1842 23.2413 10.1842 25.9174 11.8271 27.5626C11.8271 27.5626 18.4037 34.1485 18.4037 34.1485C16.2079 37.8446 14.5674 41.8104 13.5118 45.9707C13.5118 45.9707 4.21283 45.9707 4.21283 45.9707C1.88957 45.9707 0 47.8629 0 50.1895C0 50.1895 0 63.9851 0 63.9851C0 66.3104 1.88957 68.2026 4.21283 68.2026C4.21283 68.2026 13.5118 68.2026 13.5118 68.2026C14.5674 72.3629 16.2079 76.3275 18.4037 80.0249C18.4037 80.0249 11.8271 86.6107 11.8271 86.6107C10.1842 88.2548 10.1842 90.9309 11.8271 92.5762C11.8271 92.5762 21.5669 102.33 21.5669 102.33C23.1586 103.926 25.9334 103.925 27.5252 102.331C27.5252 102.331 34.1017 95.745 34.1017 95.745C37.7915 97.9427 41.7518 99.5867 45.9063 100.644C45.9063 100.644 45.9063 109.956 45.9063 109.956C45.9063 112.282 47.7958 114.175 50.1191 114.175C50.1191 114.175 63.8954 114.175 63.8954 114.175C66.2186 114.175 68.1082 112.282 68.1082 109.956C68.1082 109.956 68.1082 100.644 68.1082 100.644C72.2626 99.5867 76.2229 97.9438 79.9139 95.745C79.9139 95.745 86.4893 102.33 86.4893 102.33C88.0798 103.925 90.8582 103.925 92.4475 102.331C92.4475 102.331 102.188 92.5762 102.188 92.5762C103.831 90.9321 103.831 88.256 102.188 86.6107C102.188 86.6107 95.6119 80.0249 95.6119 80.0249C97.8065 76.3299 99.447 72.3653 100.504 68.2027C100.504 68.2027 109.802 68.2027 109.802 68.2027C112.125 68.2027 114.014 66.3104 114.014 63.9851C114.014 63.9851 114.014 50.1895 114.014 50.1895C114.016 47.863 112.126 45.9707 109.803 45.9707C109.803 45.9707 109.803 45.9707 109.803 45.9707ZM108.059 62.2355C108.059 62.2355 99.1229 62.2355 99.1229 62.2355C97.1321 62.2355 95.4415 63.6016 95.0102 65.5546C94.0308 69.9834 92.2974 74.1723 89.8585 78.0045C88.7839 79.6915 89.0162 81.8546 90.4244 83.2636C90.4244 83.2636 96.7437 89.5917 96.7437 89.5917L89.4701 96.8743C89.4701 96.8743 83.1509 90.5462 83.1509 90.5462C81.7438 89.1359 79.5826 88.9057 77.9003 89.9794C74.0711 92.4229 69.8881 94.1576 65.4656 95.1395C63.5153 95.5726 62.1535 97.2656 62.1535 99.258C62.1535 99.258 62.1535 108.206 62.1535 108.206L51.8668 108.206C51.8668 108.206 51.8668 99.258 51.8668 99.258C51.8668 97.2668 50.5039 95.5726 48.5535 95.1395C44.131 94.1588 39.9479 92.4229 36.1199 89.9806C34.4329 88.9033 32.2729 89.1371 30.8694 90.5473C30.8694 90.5473 24.549 96.8743 24.549 96.8743L17.2754 89.5905C17.2754 89.5905 23.597 83.2612 23.597 83.2612C25.0029 81.851 25.234 79.6891 24.1606 78.0045C21.7206 74.1711 19.9883 69.981 19.0089 65.5534C18.5764 63.5992 16.8846 62.2355 14.8962 62.2355C14.8962 62.2355 5.9606 62.2355 5.9606 62.2355L5.9606 51.9344C5.9606 51.9344 14.8962 51.9344 14.8962 51.9344C16.8847 51.9344 18.5764 50.5707 19.0089 48.6164C19.9883 44.1889 21.7206 39.9999 24.1606 36.1666C25.2341 34.4807 25.0029 32.3177 23.5959 30.9063C23.5959 30.9063 17.2766 24.5781 17.2766 24.5781L24.5502 17.2944C24.5502 17.2944 30.8682 23.6213 30.8682 23.6213C32.2729 25.0303 34.4317 25.2642 36.1212 24.1892C39.948 21.747 44.131 20.011 48.5547 19.0303C50.505 18.5972 51.868 16.903 51.868 14.9118C51.868 14.9118 51.868 5.96484 51.868 5.96484L62.1547 5.96484C62.1547 5.96484 62.1547 14.9118 62.1547 14.9118C62.1547 16.903 63.5165 18.5972 65.468 19.0303C69.8893 20.011 74.0735 21.747 77.9027 24.1904C79.5874 25.2642 81.7474 25.0315 83.1533 23.6225C83.1533 23.6225 89.4725 17.2944 89.4725 17.2944L96.7461 24.5781C96.7461 24.5781 90.4268 30.9063 90.4268 30.9063C89.0186 32.3153 88.7874 34.4784 89.8609 36.1654C92.2997 39.9976 94.0332 44.1865 95.0126 48.614C95.4439 50.5695 97.1357 51.9344 99.1253 51.9344C99.1253 51.9344 108.061 51.9344 108.061 51.9344L108.061 62.2355L108.059 62.2355Z" fill="#111214" transform="translate(190.986 56.73)" />
      <path id="Shape" d="M176.2 74.5463C176.2 74.5463 159.668 74.5463 159.668 74.5463C157.913 66.9952 154.95 59.8355 150.852 53.2414C150.852 53.2414 162.544 41.5313 162.544 41.5313C164.485 39.5877 164.485 36.4249 162.544 34.4801C162.544 34.4801 146.747 18.661 146.747 18.661C144.806 16.7163 141.647 16.7151 139.706 18.661C139.706 18.661 128.012 30.3699 128.012 30.3699C121.427 26.2657 114.278 23.2985 106.737 21.5411C106.737 21.5411 106.737 4.9859 106.737 4.9859C106.737 2.23703 104.503 0 101.758 0C101.758 0 79.4194 0 79.4194 0C76.6744 0 74.4405 2.23703 74.4405 4.9859C74.4405 4.9859 74.4405 21.5423 74.4405 21.5423C66.9001 23.2997 59.7504 26.2669 53.1655 30.3711C53.1655 30.3711 41.473 18.6622 41.473 18.6622C39.5322 16.7175 36.3726 16.7187 34.4318 18.6622C34.4318 18.6622 18.6349 34.4801 18.6349 34.4801C16.694 36.4237 16.694 39.5865 18.6349 41.5313C18.6349 41.5313 30.3274 53.2414 30.3274 53.2414C26.2301 59.8344 23.2659 66.9952 21.5109 74.5463C21.5109 74.5463 4.97891 74.5463 4.97891 74.5463C2.2339 74.5463 0 76.7833 0 79.5322C0 79.5322 0 101.902 0 101.902C0 104.651 2.2339 106.888 4.97891 106.888C4.97891 106.888 21.5121 106.888 21.5121 106.888C23.2671 114.441 26.2301 121.6 30.3274 128.193C30.3274 128.193 18.6349 139.902 18.6349 139.902C16.694 141.846 16.694 145.009 18.6349 146.953C18.6349 146.953 34.4318 162.772 34.4318 162.772C36.3714 164.716 39.531 164.717 41.473 162.772C41.473 162.772 53.1667 151.063 53.1667 151.063C59.7504 155.168 66.9013 158.135 74.4417 159.892C74.4417 159.892 74.4417 176.448 74.4417 176.448C74.4417 179.196 76.6756 181.433 79.4206 181.433C79.4206 181.433 101.761 181.433 101.761 181.433C104.506 181.433 106.74 179.196 106.74 176.448C106.74 176.448 106.74 159.892 106.74 159.892C114.281 158.134 121.431 155.168 128.015 151.063C128.015 151.063 139.708 162.772 139.708 162.772C141.65 164.718 144.81 164.717 146.75 162.772C146.75 162.772 162.547 146.953 162.547 146.953C164.487 145.01 164.487 141.847 162.547 139.902C162.547 139.902 150.854 128.193 150.854 128.193C154.952 121.599 157.916 114.438 159.669 106.888C159.669 106.888 176.202 106.888 176.202 106.888C178.947 106.888 181.181 104.651 181.181 101.902C181.181 101.902 181.181 79.5322 181.181 79.5322C181.179 76.7833 178.945 74.5463 176.2 74.5463C176.2 74.5463 176.2 74.5463 176.2 74.5463ZM175.222 100.924C175.222 100.924 158.882 100.924 158.882 100.924C156.532 100.924 154.533 102.538 154.02 104.851C152.385 112.244 149.491 119.237 145.419 125.637C144.149 127.633 144.422 130.191 146.084 131.857C146.084 131.857 157.64 143.43 157.64 143.43L143.227 157.863C143.227 157.863 131.671 146.292 131.671 146.292C130.008 144.626 127.455 144.353 125.459 145.625C119.07 149.703 112.087 152.601 104.702 154.238C102.393 154.751 100.78 156.753 100.78 159.107C100.78 159.107 100.78 175.47 100.78 175.47L80.3976 175.47C80.3976 175.47 80.3976 159.107 80.3976 159.107C80.3976 156.754 78.7845 154.752 76.4755 154.238C69.0923 152.601 62.1095 149.703 55.7187 145.624C53.7243 144.353 51.1699 144.626 49.5079 146.291C49.5079 146.291 37.9512 157.862 37.9512 157.862L23.5375 143.428C23.5375 143.428 35.0954 131.855 35.0954 131.855C36.7574 130.19 37.0303 127.633 35.759 125.636C31.6868 119.239 28.7929 112.245 27.1571 104.85C26.6447 102.538 24.6456 100.924 22.2961 100.924C22.2961 100.924 5.95709 100.924 5.95709 100.924L5.95709 80.5111C5.95709 80.5111 22.2973 80.5111 22.2973 80.5111C24.6479 80.5111 26.6459 78.8957 27.1594 76.5835C28.7952 69.1899 31.688 62.1961 35.7614 55.7976C37.0315 53.8003 36.7574 51.2424 35.0954 49.5792C35.0954 49.5792 23.5387 38.0063 23.5387 38.0063L37.9524 23.5724C37.9524 23.5724 49.5091 35.1465 49.5091 35.1465C51.1723 36.8108 53.7267 37.084 55.7199 35.811C62.1107 31.7331 69.0935 28.8351 76.4743 27.1982C78.7845 26.6863 80.3976 24.6843 80.3976 22.3292C80.3976 22.3292 80.3976 5.96484 80.3976 5.96484L100.781 5.96484C100.781 5.96484 100.781 22.328 100.781 22.328C100.781 24.6831 102.395 26.6851 104.704 27.197C112.086 28.8339 119.068 31.7319 125.459 35.8098C127.454 37.084 130.009 36.8096 131.67 35.1441C131.67 35.1441 143.227 23.5712 143.227 23.5712L157.64 38.0051C157.64 38.0051 146.084 49.578 146.084 49.578C144.422 51.2424 144.148 53.7991 145.419 55.7976C149.491 62.1961 152.385 69.1899 154.02 76.5835C154.532 78.8957 156.531 80.5111 158.882 80.5111C158.882 80.5111 175.222 80.5111 175.222 80.5111L175.222 100.924Z" fill="#111214" transform="translate(0 23.102)" />
      <path id="Shape" d="M50.3145 0C22.5701 0 0 22.603 0 50.3851C0 78.1673 22.5713 100.771 50.3145 100.771C78.0576 100.771 100.629 78.1685 100.629 50.3851C100.629 22.6018 78.0576 0 50.3144 0C50.3144 0 50.3145 0 50.3145 0ZM50.3144 94.8055C25.856 94.8055 5.95703 74.8786 5.95703 50.3846C5.95703 25.8917 25.856 5.96484 50.3144 5.96484C74.7729 5.96484 94.6718 25.8917 94.6718 50.3846C94.6718 74.8786 74.7729 94.8055 50.3144 94.8055C50.3144 94.8055 50.3144 94.8055 50.3144 94.8055Z" fill="#111214" transform="translate(40.276 63.434)" />
      <path id="Shape" d="M32.4433 0C14.5531 0 0 14.5747 0 32.4889C0 50.403 14.5543 64.9777 32.4433 64.9777C50.3323 64.9777 64.8866 50.403 64.8866 32.4889C64.8866 14.5747 50.3323 0 32.4433 0C32.4433 0 32.4433 0 32.4433 0ZM32.4433 59.0117C17.839 59.0117 5.95703 47.1131 5.95703 32.4883C5.95703 17.8635 17.839 5.96484 32.4433 5.96484C47.0476 5.96484 58.9295 17.8635 58.9295 32.4883C58.9295 47.1131 47.0476 59.0117 32.4433 59.0117C32.4433 59.0117 32.4433 59.0117 32.4433 59.0117Z" fill="#111214" transform="translate(58.147 81.332)" />
      <path id="Shape" d="M32.1705 0C14.4316 0 0 14.4518 0 32.2145C0 49.9783 14.4316 64.4301 32.1705 64.4301C49.9094 64.4301 64.3397 49.9783 64.3397 32.2145C64.3409 14.4518 49.9094 0 32.1704 0C32.1704 0 32.1705 0 32.1705 0ZM32.1704 58.4641C17.7162 58.4641 5.95703 46.6884 5.95703 32.2139C5.95703 17.7394 17.7162 5.96484 32.1704 5.96484C46.6246 5.96484 58.3827 17.7406 58.3827 32.2139C58.3827 46.6872 46.6246 58.4641 32.1704 58.4641C32.1704 58.4641 32.1704 58.4641 32.1704 58.4641Z" fill="#111214" transform="translate(215.824 81.605)" />
      <path id="Shape" d="M35.8627 2.501C32.5315 -0.833672 27.1106 -0.833672 23.7782 2.501C23.7782 2.501 16.9526 9.33498 16.9526 9.33498C16.9526 9.33498 14.5817 6.96074 14.5817 6.96074C11.2505 3.62608 5.82959 3.62608 2.4984 6.96074C-0.832794 10.2966 -0.832794 15.7251 2.4984 19.0622C2.4984 19.0622 10.9121 27.4878 10.9121 27.4878C12.5253 29.1032 14.671 29.9932 16.9526 29.9932C19.2342 29.9932 21.3799 29.1032 22.9942 27.4866C22.9942 27.4866 35.8615 14.6013 35.8615 14.6013C37.4758 12.9858 38.3646 10.8359 38.3646 8.55113C38.3658 6.26518 37.477 4.11645 35.8627 2.50101C35.8627 2.50101 35.8627 2.501 35.8627 2.501ZM31.651 10.3852C31.651 10.3852 18.785 23.2693 18.785 23.2693C17.8068 24.2477 16.1019 24.2477 15.1249 23.2693C15.1249 23.2693 6.71121 14.8438 6.71121 14.8438C5.70209 13.8332 5.70209 12.1891 6.71121 11.1786C7.21518 10.6739 7.87878 10.421 8.54121 10.421C9.20363 10.421 9.86606 10.6739 10.3712 11.1786C10.3712 11.1786 14.8473 15.6622 14.8473 15.6622C15.4061 16.2218 16.1638 16.5355 16.9538 16.5355C17.7437 16.5355 18.5014 16.2218 19.0602 15.6622C19.0602 15.6622 27.991 6.71885 27.991 6.71885C29.0013 5.70831 30.6431 5.70831 31.6522 6.71885C32.1407 7.20802 32.4099 7.85825 32.4099 8.55142C32.4087 9.2446 32.1395 9.89603 31.651 10.3852C31.651 10.3852 31.651 10.3852 31.651 10.3852Z" fill="#111214" transform="translate(228.174 100.898)" />
    </g>
  </g>
</svg>