<?xml version="1.0" encoding="utf-8"?>
<svg width="114.014" height="114.176" viewBox="0 0 114.014 114.176" fill="none" xmlns="http://www.w3.org/2000/svg">
  <g id="Group">
    <path id="Path" d="M106.82 45.9695C106.82 45.9695 96.1397 45.9695 96.1397 45.9695C95.5572 45.9695 95.0615 45.5591 94.9352 44.9888C93.8653 40.1532 91.9638 35.6302 89.3868 31.5797C89.0735 31.087 89.1342 30.4463 89.5465 30.0335C89.5465 30.0335 97.0988 22.4705 97.0988 22.4705C97.5802 21.9885 97.5802 21.2059 97.0988 20.7239C97.0988 20.7239 87.3579 10.9692 87.3579 10.9692C86.8765 10.4872 86.095 10.4872 85.6136 10.9692C85.6136 10.9692 78.0613 18.5322 78.0613 18.5322C77.6491 18.945 77.0081 19.0058 76.5172 18.692C72.4736 16.1114 67.9569 14.2072 63.1269 13.1359C62.5574 13.0094 62.1476 12.5131 62.1476 11.9296C62.1476 11.9296 62.1476 1.23485 62.1476 1.23485C62.1476 0.552404 61.5948 0 60.9145 0C60.9145 0 47.1382 0 47.1382 0C46.4567 0 45.9051 0.553587 45.9051 1.23485C45.9051 1.23485 45.9051 11.9296 45.9051 11.9296C45.9051 12.5131 45.4952 13.0094 44.9257 13.1359C40.097 14.2072 35.5803 16.1114 31.5355 18.692C31.0434 19.0058 30.4036 18.945 29.9914 18.5322C29.9914 18.5322 22.439 10.9692 22.439 10.9692C21.9577 10.4872 21.1761 10.4872 20.6948 10.9692C20.6948 10.9692 10.9538 20.7239 10.9538 20.7239C10.4725 21.2059 10.4725 21.9885 10.9538 22.4705C10.9538 22.4705 18.5062 30.0335 18.5062 30.0335C18.9184 30.4463 18.9792 31.0882 18.6658 31.5797C16.0888 35.6302 14.1873 40.152 13.1174 44.9888C12.9912 45.5591 12.4955 45.9695 11.9129 45.9695C11.9129 45.9695 1.23311 45.9695 1.23311 45.9695C0.55162 45.9695 0 46.5231 0 47.2044C0 47.2044 0 61 0 61C0 61.6824 0.55282 62.236 1.23311 62.236C1.23311 62.236 11.9129 62.236 11.9129 62.236C12.4955 62.236 12.9912 62.6464 13.1174 63.2168C14.1873 68.0523 16.0888 72.5753 18.6658 76.6258C18.9792 77.1186 18.9184 77.7592 18.5062 78.1721C18.5062 78.1721 10.9538 85.735 10.9538 85.735C10.4725 86.217 10.4725 86.9997 10.9538 87.4817C10.9538 87.4817 20.6948 97.2363 20.6948 97.2363C21.1761 97.7184 21.9577 97.7184 22.439 97.2363C22.439 97.2363 29.9914 89.6722 29.9914 89.6722C30.4036 89.2594 31.0446 89.1985 31.5355 89.5123C35.5791 92.093 40.0957 93.9983 44.9257 95.0685C45.4952 95.195 45.9051 95.6913 45.9051 96.2747C45.9051 96.2747 45.9051 106.97 45.9051 106.97C45.9051 107.652 46.4579 108.204 47.1382 108.204C47.1382 108.204 60.9145 108.204 60.9145 108.204C61.596 108.204 62.1476 107.651 62.1476 106.97C62.1476 106.97 62.1476 96.2747 62.1476 96.2747C62.1476 95.6913 62.5574 95.195 63.1269 95.0685C67.9569 93.9971 72.4724 92.093 76.5172 89.5123C77.0093 89.1985 77.649 89.2594 78.0613 89.6722C78.0613 89.6722 85.6136 97.2363 85.6136 97.2363C86.095 97.7184 86.8765 97.7184 87.3579 97.2363C87.3579 97.2363 97.0988 87.4817 97.0988 87.4817C97.5802 86.9997 97.5802 86.217 97.0988 85.735C97.0988 85.735 89.5465 78.1721 89.5465 78.1721C89.1343 77.7593 89.0735 77.1174 89.3868 76.6258C91.9638 72.5765 93.8653 68.0535 94.9352 63.2168C95.0615 62.6465 95.5572 62.236 96.1397 62.236C96.1397 62.236 106.82 62.236 106.82 62.236C107.501 62.236 108.053 61.6824 108.053 61C108.053 61 108.053 47.2044 108.053 47.2044C108.053 46.5231 107.5 45.9695 106.82 45.9695C106.82 45.9695 106.82 45.9695 106.82 45.9695Z" fill="#FAB400" fill-rule="evenodd" transform="translate(3 3)" />
    <path id="Oval" d="M0 29.2329C0 13.088 13.0697 0 29.192 0C45.3142 0 58.3839 13.088 58.3839 29.2329C58.3839 45.3778 45.3142 58.4659 29.192 58.4659C13.0697 58.4659 0 45.3778 0 29.2329Z" fill="#FAB400" fill-rule="evenodd" transform="translate(28 28)" />
    <path id="Path" d="M30.7822 1.63214C28.6079 -0.544044 25.0848 -0.544044 22.9105 1.63214C22.9105 1.63214 13.9797 10.5755 13.9797 10.5755C13.9797 10.5755 9.50239 6.09189 9.50239 6.09189C7.32807 3.9157 3.80507 3.9157 1.63074 6.09189C-0.543579 8.26809 -0.543579 11.7984 1.63074 13.9746C1.63074 13.9746 10.0433 22.399 10.0433 22.399C11.1311 23.4871 12.5548 24.0311 13.9797 24.0311C15.4047 24.0311 16.8284 23.4871 17.9161 22.399C17.9161 22.399 30.7834 9.51365 30.7834 9.51365C32.9565 7.33866 32.9565 3.80951 30.7822 1.63214C30.7822 1.63214 30.7822 1.63214 30.7822 1.63214Z" fill="#FAB400" fill-rule="evenodd" transform="translate(40 47)" />
    <path id="Shape" d="M109.803 45.9707C109.803 45.9707 100.505 45.9707 100.505 45.9707C99.4482 41.8093 97.8076 37.8434 95.6131 34.1485C95.6131 34.1485 102.19 27.5626 102.19 27.5626C103.833 25.9186 103.833 23.2425 102.19 21.5972C102.19 21.5972 92.4487 11.8426 92.4487 11.8426C90.8057 10.1961 88.1322 10.1973 86.4916 11.8426C86.4916 11.8426 79.915 18.4284 79.915 18.4284C76.224 16.2307 72.2638 14.5866 68.1094 13.5296C68.1094 13.5296 68.1094 4.21756 68.1094 4.21756C68.1094 1.89224 66.2198 0 63.8965 0C63.8965 0 50.1202 0 50.1202 0C47.797 0 45.9074 1.89223 45.9074 4.21756C45.9074 4.21756 45.9074 13.5296 45.9074 13.5296C41.7518 14.5878 37.7903 16.2307 34.1029 18.4284C34.1029 18.4284 27.5251 11.8414 27.5251 11.8414C25.8822 10.1985 23.2099 10.1997 21.5693 11.8426C21.5693 11.8426 11.8271 21.5972 11.8271 21.5972C10.1842 23.2413 10.1842 25.9174 11.8271 27.5626C11.8271 27.5626 18.4037 34.1484 18.4037 34.1484C16.2079 37.8446 14.5674 41.8104 13.5118 45.9707C13.5118 45.9707 4.21282 45.9707 4.21282 45.9707C1.88958 45.9707 0 47.8629 0 50.1895C0 50.1895 0 63.9851 0 63.9851C0 66.3104 1.88958 68.2026 4.21282 68.2026C4.21282 68.2026 13.5118 68.2026 13.5118 68.2026C14.5674 72.3629 16.2079 76.3275 18.4037 80.0249C18.4037 80.0249 11.8271 86.6107 11.8271 86.6107C10.1842 88.2548 10.1842 90.9309 11.8271 92.5762C11.8271 92.5762 21.5669 102.33 21.5669 102.33C23.1586 103.926 25.9334 103.925 27.5252 102.331C27.5252 102.331 34.1017 95.745 34.1017 95.745C37.7915 97.9426 41.7518 99.5867 45.9063 100.644C45.9063 100.644 45.9063 109.956 45.9063 109.956C45.9063 112.282 47.7958 114.175 50.1191 114.175C50.1191 114.175 63.8954 114.175 63.8954 114.175C66.2186 114.175 68.1082 112.282 68.1082 109.956C68.1082 109.956 68.1082 100.644 68.1082 100.644C72.2626 99.5867 76.2229 97.9438 79.9139 95.745C79.9139 95.745 86.4893 102.33 86.4893 102.33C88.0798 103.925 90.8582 103.925 92.4475 102.331C92.4475 102.331 102.188 92.5762 102.188 92.5762C103.831 90.9321 103.831 88.256 102.188 86.6108C102.188 86.6108 95.6119 80.0249 95.6119 80.0249C97.8065 76.3299 99.447 72.3653 100.504 68.2027C100.504 68.2027 109.802 68.2027 109.802 68.2027C112.125 68.2027 114.014 66.3104 114.014 63.9851C114.014 63.9851 114.014 50.1895 114.014 50.1895C114.016 47.863 112.126 45.9707 109.803 45.9707C109.803 45.9707 109.803 45.9707 109.803 45.9707ZM108.059 62.2355C108.059 62.2355 99.1229 62.2355 99.1229 62.2355C97.1321 62.2355 95.4415 63.6016 95.0102 65.5546C94.0308 69.9834 92.2973 74.1723 89.8585 78.0045C88.7839 79.6915 89.0162 81.8545 90.4244 83.2636C90.4244 83.2636 96.7437 89.5917 96.7437 89.5917L89.4701 96.8743C89.4701 96.8743 83.1509 90.5462 83.1509 90.5462C81.7438 89.1359 79.5826 88.9057 77.9003 89.9794C74.0711 92.4229 69.8881 94.1576 65.4656 95.1395C63.5153 95.5726 62.1535 97.2656 62.1535 99.258C62.1535 99.258 62.1535 108.206 62.1535 108.206L51.8668 108.206C51.8668 108.206 51.8668 99.258 51.8668 99.258C51.8668 97.2668 50.5039 95.5726 48.5535 95.1395C44.131 94.1588 39.9479 92.4229 36.1199 89.9806C34.4329 88.9033 32.2729 89.1371 30.8694 90.5473C30.8694 90.5473 24.549 96.8743 24.549 96.8743L17.2754 89.5905C17.2754 89.5905 23.597 83.2612 23.597 83.2612C25.0029 81.851 25.234 79.6891 24.1606 78.0045C21.7206 74.1711 19.9883 69.981 19.0089 65.5534C18.5764 63.5992 16.8846 62.2355 14.8962 62.2355C14.8962 62.2355 5.9606 62.2355 5.9606 62.2355L5.9606 51.9344C5.9606 51.9344 14.8962 51.9344 14.8962 51.9344C16.8847 51.9344 18.5765 50.5707 19.0089 48.6164C19.9883 44.1889 21.7206 39.9999 24.1606 36.1666C25.2341 34.4807 25.0029 32.3177 23.5959 30.9063C23.5959 30.9063 17.2766 24.5781 17.2766 24.5781L24.5502 17.2944C24.5502 17.2944 30.8682 23.6213 30.8682 23.6213C32.2729 25.0303 34.4317 25.2642 36.1211 24.1892C39.948 21.747 44.131 20.011 48.5547 19.0303C50.505 18.5972 51.868 16.903 51.868 14.9118C51.868 14.9118 51.868 5.96484 51.868 5.96484L62.1547 5.96484C62.1547 5.96484 62.1547 14.9118 62.1547 14.9118C62.1547 16.903 63.5165 18.5972 65.468 19.0303C69.8893 20.011 74.0736 21.747 77.9027 24.1904C79.5874 25.2642 81.7474 25.0315 83.1533 23.6225C83.1533 23.6225 89.4725 17.2944 89.4725 17.2944L96.7461 24.5781C96.7461 24.5781 90.4268 30.9063 90.4268 30.9063C89.0186 32.3153 88.7875 34.4784 89.8609 36.1654C92.2997 39.9976 94.0332 44.1865 95.0126 48.614C95.4439 50.5695 97.1357 51.9344 99.1253 51.9344C99.1253 51.9344 108.061 51.9344 108.061 51.9344L108.061 62.2355L108.059 62.2355Z" fill="#111214" />
    <path id="Shape" d="M32.1705 0C14.4316 0 0 14.4518 0 32.2145C0 49.9783 14.4316 64.4301 32.1705 64.4301C49.9094 64.4301 64.3397 49.9783 64.3397 32.2145C64.3409 14.4518 49.9094 0 32.1704 0C32.1704 0 32.1705 0 32.1705 0ZM32.1704 58.4641C17.7162 58.4641 5.95703 46.6884 5.95703 32.2139C5.95703 17.7394 17.7162 5.96484 32.1704 5.96484C46.6246 5.96484 58.3826 17.7406 58.3826 32.2139C58.3826 46.6872 46.6246 58.4641 32.1704 58.4641C32.1704 58.4641 32.1704 58.4641 32.1704 58.4641Z" fill="#111214" transform="translate(25 25)" />
    <path id="Shape" d="M35.8627 2.501C32.5315 -0.833668 27.1106 -0.833668 23.7782 2.501C23.7782 2.501 16.9526 9.33499 16.9526 9.33499C16.9526 9.33499 14.5817 6.96075 14.5817 6.96075C11.2505 3.62608 5.82958 3.62608 2.49839 6.96075C-0.832798 10.2966 -0.832798 15.7251 2.49839 19.0622C2.49839 19.0622 10.9121 27.4878 10.9121 27.4878C12.5253 29.1032 14.671 29.9932 16.9526 29.9932C19.2341 29.9932 21.3799 29.1032 22.9942 27.4866C22.9942 27.4866 35.8615 14.6013 35.8615 14.6013C37.4758 12.9858 38.3646 10.8359 38.3646 8.55114C38.3658 6.26519 37.477 4.11645 35.8626 2.50101C35.8626 2.50101 35.8627 2.501 35.8627 2.501ZM31.651 10.3852C31.651 10.3852 18.785 23.2693 18.785 23.2693C17.8068 24.2477 16.1019 24.2477 15.1249 23.2693C15.1249 23.2693 6.7112 14.8438 6.7112 14.8438C5.70207 13.8332 5.70207 12.1891 6.7112 11.1786C7.21517 10.6739 7.87878 10.421 8.5412 10.421C9.20362 10.421 9.86605 10.6739 10.3712 11.1786C10.3712 11.1786 14.8473 15.6622 14.8473 15.6622C15.4061 16.2218 16.1638 16.5355 16.9538 16.5355C17.7437 16.5355 18.5014 16.2218 19.0602 15.6622C19.0602 15.6622 27.991 6.71885 27.991 6.71885C29.0013 5.70831 30.6431 5.70831 31.6522 6.71885C32.1407 7.20802 32.4099 7.85825 32.4099 8.55142C32.4087 9.2446 32.1395 9.89603 31.651 10.3852C31.651 10.3852 31.651 10.3852 31.651 10.3852Z" fill="#111214" transform="translate(37 44)" />
  </g>
</svg>