<?xml version="1.0" encoding="utf-8"?>
<svg width="645" height="135" viewBox="0 0 645 135" fill="none" xmlns="http://www.w3.org/2000/svg">
  <g id="Group">
    <path id="Star" d="M63.1759 2.29988L82.1588 26.9534Q82.6431 27.5824 83.2765 28.061Q83.9099 28.5395 84.6472 28.8336L113.291 40.2576Q113.441 40.3174 113.587 40.3852Q113.734 40.453 113.876 40.5287Q114.018 40.6044 114.156 40.6878Q114.294 40.7712 114.428 40.862Q114.561 40.9528 114.689 41.0507Q114.817 41.1487 114.94 41.2534Q115.062 41.3582 115.179 41.4696Q115.295 41.5809 115.406 41.6984Q115.516 41.8159 115.62 41.9393Q115.724 42.0627 115.821 42.1916Q115.918 42.3205 116.007 42.4544Q116.097 42.5884 116.179 42.7271Q116.262 42.8658 116.336 43.0087Q116.411 43.1517 116.477 43.2985Q116.544 43.4453 116.603 43.5956Q116.661 43.7458 116.711 43.899Q116.762 44.0523 116.803 44.208Q116.845 44.3637 116.878 44.5215Q116.911 44.6793 116.936 44.8386Q116.961 44.998 116.976 45.1585Q116.992 45.3189 116.999 45.48Q117.006 45.6411 117.004 45.8023Q117.003 45.9636 116.992 46.1244Q116.981 46.2853 116.962 46.4454Q116.943 46.6055 116.915 46.7642Q116.886 46.923 116.85 47.08Q116.813 47.237 116.768 47.3918Q116.722 47.5465 116.669 47.6986Q116.615 47.8506 116.553 47.9995Q116.491 48.1484 116.422 48.2937Q116.352 48.439 116.274 48.5803Q116.196 48.7216 116.111 48.8584L99.1893 75.9837Q98.789 76.6253 98.5636 77.3471Q98.3381 78.0689 98.302 78.8242L96.7688 110.922Q96.7609 111.088 96.7437 111.253Q96.7265 111.418 96.7 111.582Q96.6736 111.745 96.638 111.907Q96.6023 112.069 96.5577 112.229Q96.513 112.389 96.4595 112.546Q96.4059 112.703 96.3437 112.856Q96.2814 113.01 96.2105 113.16Q96.1397 113.31 96.0606 113.456Q95.9814 113.601 95.8942 113.742Q95.807 113.883 95.712 114.019Q95.617 114.155 95.5146 114.286Q95.4121 114.416 95.3024 114.541Q95.1928 114.665 95.0763 114.783Q94.9599 114.901 94.8369 115.012Q94.714 115.124 94.5851 115.228Q94.4561 115.332 94.3215 115.429Q94.1868 115.526 94.047 115.615Q93.9071 115.704 93.7625 115.785Q93.6178 115.866 93.4688 115.939Q93.3199 116.012 93.167 116.077Q93.0142 116.141 92.858 116.197Q92.7018 116.252 92.5427 116.299Q92.3836 116.346 92.2221 116.384Q92.0607 116.422 91.8973 116.45Q91.734 116.479 91.5693 116.499Q91.4046 116.518 91.2391 116.528Q91.0735 116.538 90.9077 116.539Q90.7418 116.54 90.5762 116.532Q90.4106 116.523 90.2457 116.505Q90.0808 116.488 89.9172 116.461Q89.7535 116.434 89.5917 116.398Q89.4298 116.361 89.2703 116.316L60.1092 108.06Q59.7171 107.949 59.3135 107.893Q58.9099 107.837 58.5024 107.837Q58.0949 107.837 57.6913 107.893Q57.2877 107.949 56.8956 108.06L27.7345 116.316Q27.5749 116.361 27.4131 116.398Q27.2512 116.434 27.0876 116.461Q26.9239 116.488 26.759 116.505Q26.5942 116.523 26.4285 116.532Q26.2629 116.54 26.0971 116.539Q25.9312 116.538 25.7657 116.528Q25.6002 116.518 25.4355 116.499Q25.2708 116.479 25.1074 116.45Q24.9441 116.422 24.7826 116.384Q24.6211 116.346 24.4621 116.299Q24.303 116.252 24.1468 116.197Q23.9905 116.141 23.8377 116.077Q23.6849 116.012 23.5359 115.939Q23.3869 115.866 23.2423 115.785Q23.0976 115.704 22.9578 115.615Q22.8179 115.526 22.6833 115.429Q22.5487 115.332 22.4197 115.228Q22.2907 115.124 22.1678 115.012Q22.0449 114.901 21.9284 114.783Q21.812 114.665 21.7023 114.541Q21.5927 114.416 21.4902 114.286Q21.3877 114.155 21.2927 114.019Q21.1977 113.883 21.1105 113.742Q21.0233 113.601 20.9442 113.456Q20.865 113.31 20.7942 113.16Q20.7234 113.01 20.6611 112.856Q20.5988 112.703 20.5453 112.546Q20.4917 112.389 20.447 112.229Q20.4024 112.069 20.3668 111.907Q20.3312 111.745 20.3047 111.582Q20.2783 111.418 20.2611 111.253Q20.2439 111.088 20.236 110.922L18.7027 78.8243Q18.6666 78.0689 18.4412 77.3471Q18.2157 76.6253 17.8155 75.9837L0.893936 48.8584Q0.808595 48.7216 0.730855 48.5803Q0.653115 48.439 0.583209 48.2937Q0.513302 48.1484 0.451438 47.9995Q0.389573 47.8506 0.335935 47.6986Q0.282298 47.5465 0.237047 47.3918Q0.191796 47.237 0.155068 47.08Q0.118339 46.923 0.0902426 46.7642Q0.062146 46.6055 0.0427652 46.4454Q0.0233844 46.2853 0.0127773 46.1244Q0.00217022 45.9636 0.000368493 45.8023Q-0.00143324 45.6411 0.00557579 45.48Q0.0125848 45.3189 0.0283837 45.1585Q0.0441825 44.998 0.068724 44.8386Q0.0932655 44.6793 0.126476 44.5215Q0.159687 44.3637 0.201468 44.208Q0.243249 44.0523 0.293475 43.899Q0.343702 43.7458 0.402223 43.5956Q0.460745 43.4453 0.527387 43.2985Q0.59403 43.1517 0.668593 43.0087Q0.743157 42.8658 0.825419 42.7271Q0.907682 42.5884 0.997398 42.4544Q1.08711 42.3205 1.18401 42.1916Q1.28091 42.0627 1.38471 41.9393Q1.48851 41.8159 1.59889 41.6984Q1.70927 41.5809 1.82591 41.4696Q1.94255 41.3582 2.06509 41.2534Q2.18764 41.1487 2.31573 41.0507Q2.44382 40.9528 2.57706 40.862Q2.71031 40.7712 2.84832 40.6878Q2.98632 40.6044 3.12868 40.5287Q3.27104 40.453 3.41732 40.3852Q3.5636 40.3174 3.71336 40.2576L32.3575 28.8336Q33.0949 28.5395 33.7283 28.061Q34.3617 27.5824 34.846 26.9534L53.8288 2.29988Q53.9317 2.16627 54.0421 2.03875Q54.1524 1.91123 54.2699 1.79022Q54.3873 1.66921 54.5115 1.55512Q54.6357 1.44102 54.7662 1.3342Q54.8967 1.22738 55.033 1.12819Q55.1694 1.029 55.3112 0.937771Q55.4531 0.846537 55.5999 0.763554Q55.7467 0.680572 55.898 0.606113Q56.0493 0.531653 56.2046 0.46596Q56.3599 0.400267 56.5187 0.343555Q56.6775 0.286843 56.8393 0.239297Q57.0011 0.191751 57.1654 0.153527Q57.3296 0.115302 57.4958 0.0865238Q57.662 0.0577456 57.8295 0.0385077Q57.997 0.0192698 58.1654 0.00963512Q58.3337 4.34547e-07 58.5024 4.17233e-07Q58.671 3.99918e-07 58.8394 0.00963505Q59.0077 0.0192697 59.1753 0.0385075Q59.3428 0.0577454 59.509 0.0865236Q59.6751 0.115302 59.8394 0.153526Q60.0036 0.191751 60.1654 0.239297Q60.3272 0.286843 60.486 0.343555Q60.6448 0.400267 60.8002 0.46596Q60.9555 0.531653 61.1068 0.606112Q61.2581 0.680571 61.4049 0.763554Q61.5517 0.846536 61.6935 0.93777Q61.8353 1.029 61.9717 1.12819Q62.1081 1.22738 62.2386 1.3342Q62.3691 1.44102 62.4933 1.55511Q62.6174 1.66921 62.7349 1.79022Q62.8523 1.91123 62.9627 2.03875Q63.073 2.16627 63.1759 2.29988L63.1759 2.29988Z" fill="#FFA500" fill-rule="evenodd" />
    <path id="Star" d="M63.1759 2.29988L82.1588 26.9534Q82.6431 27.5824 83.2765 28.061Q83.9098 28.5395 84.6472 28.8336L113.291 40.2576Q113.441 40.3174 113.587 40.3852Q113.734 40.453 113.876 40.5287Q114.018 40.6044 114.156 40.6878Q114.294 40.7712 114.428 40.862Q114.561 40.9528 114.689 41.0507Q114.817 41.1487 114.94 41.2534Q115.062 41.3582 115.179 41.4696Q115.295 41.5809 115.406 41.6984Q115.516 41.8159 115.62 41.9393Q115.724 42.0627 115.821 42.1916Q115.918 42.3205 116.007 42.4544Q116.097 42.5884 116.179 42.7271Q116.262 42.8658 116.336 43.0087Q116.411 43.1517 116.477 43.2985Q116.544 43.4453 116.603 43.5956Q116.661 43.7458 116.711 43.899Q116.761 44.0523 116.803 44.208Q116.845 44.3637 116.878 44.5215Q116.911 44.6793 116.936 44.8386Q116.961 44.998 116.976 45.1585Q116.992 45.3189 116.999 45.48Q117.006 45.6411 117.004 45.8023Q117.003 45.9636 116.992 46.1244Q116.981 46.2853 116.962 46.4454Q116.943 46.6055 116.914 46.7642Q116.886 46.923 116.85 47.08Q116.813 47.237 116.768 47.3918Q116.722 47.5465 116.669 47.6986Q116.615 47.8506 116.553 47.9995Q116.491 48.1484 116.422 48.2937Q116.352 48.439 116.274 48.5803Q116.196 48.7216 116.111 48.8584L99.1893 75.9837Q98.789 76.6253 98.5636 77.3471Q98.3381 78.0689 98.302 78.8242L96.7688 110.922Q96.7609 111.088 96.7437 111.253Q96.7265 111.418 96.7 111.582Q96.6736 111.745 96.638 111.907Q96.6023 112.069 96.5577 112.229Q96.513 112.389 96.4595 112.546Q96.4059 112.703 96.3436 112.856Q96.2813 113.01 96.2105 113.16Q96.1397 113.31 96.0606 113.456Q95.9814 113.601 95.8942 113.742Q95.807 113.883 95.712 114.019Q95.617 114.155 95.5145 114.286Q95.4121 114.416 95.3024 114.541Q95.1928 114.665 95.0763 114.783Q94.9598 114.901 94.8369 115.012Q94.714 115.124 94.585 115.228Q94.4561 115.332 94.3214 115.429Q94.1868 115.526 94.047 115.615Q93.9071 115.704 93.7625 115.785Q93.6178 115.866 93.4688 115.939Q93.3199 116.012 93.167 116.077Q93.0142 116.141 92.858 116.197Q92.7018 116.252 92.5427 116.299Q92.3836 116.346 92.2221 116.384Q92.0606 116.422 91.8973 116.45Q91.734 116.479 91.5693 116.499Q91.4046 116.518 91.239 116.528Q91.0735 116.538 90.9077 116.539Q90.7418 116.54 90.5762 116.532Q90.4106 116.523 90.2457 116.505Q90.0808 116.488 89.9172 116.461Q89.7535 116.434 89.5917 116.398Q89.4298 116.361 89.2703 116.316L60.1092 108.06Q59.7171 107.949 59.3135 107.893Q58.9099 107.837 58.5024 107.837Q58.0949 107.837 57.6913 107.893Q57.2876 107.949 56.8956 108.06L27.7345 116.316Q27.5749 116.361 27.413 116.398Q27.2512 116.434 27.0876 116.461Q26.9239 116.488 26.759 116.505Q26.5941 116.523 26.4285 116.532Q26.2629 116.54 26.0971 116.539Q25.9312 116.538 25.7657 116.528Q25.6002 116.518 25.4355 116.499Q25.2708 116.479 25.1074 116.45Q24.9441 116.422 24.7826 116.384Q24.6211 116.346 24.462 116.299Q24.303 116.252 24.1467 116.197Q23.9905 116.141 23.8377 116.077Q23.6849 116.012 23.5359 115.939Q23.3869 115.866 23.2423 115.785Q23.0976 115.704 22.9578 115.615Q22.8179 115.526 22.6833 115.429Q22.5487 115.332 22.4197 115.228Q22.2907 115.124 22.1678 115.012Q22.0449 114.901 21.9284 114.783Q21.812 114.665 21.7023 114.541Q21.5927 114.416 21.4902 114.286Q21.3877 114.155 21.2927 114.019Q21.1977 113.883 21.1105 113.742Q21.0233 113.601 20.9442 113.456Q20.865 113.31 20.7942 113.16Q20.7234 113.01 20.6611 112.856Q20.5988 112.703 20.5452 112.546Q20.4917 112.389 20.447 112.229Q20.4024 112.069 20.3668 111.907Q20.3312 111.745 20.3047 111.582Q20.2783 111.418 20.2611 111.253Q20.2439 111.088 20.2359 110.922L18.7027 78.8243Q18.6666 78.0689 18.4412 77.3471Q18.2157 76.6253 17.8155 75.9837L0.893921 48.8584Q0.80858 48.7216 0.730841 48.5803Q0.653101 48.439 0.583195 48.2937Q0.513288 48.1484 0.451424 47.9995Q0.38956 47.8506 0.335922 47.6986Q0.282285 47.5465 0.237034 47.3918Q0.191784 47.237 0.155055 47.08Q0.118327 46.923 0.0902306 46.7642Q0.0621341 46.6055 0.0427535 46.4454Q0.0233728 46.2853 0.0127659 46.1244Q0.0021589 45.9636 0.000357287 45.8023Q-0.00144433 45.6411 0.00556479 45.48Q0.0125739 45.3189 0.0283728 45.1585Q0.0441718 44.998 0.0687133 44.8386Q0.0932548 44.6793 0.126466 44.5215Q0.159677 44.3637 0.201458 44.208Q0.243238 44.0523 0.293465 43.899Q0.343691 43.7458 0.402213 43.5956Q0.460734 43.4453 0.527376 43.2985Q0.594019 43.1517 0.668582 43.0087Q0.743146 42.8658 0.825408 42.7271Q0.907671 42.5884 0.997386 42.4544Q1.0871 42.3205 1.184 42.1916Q1.2809 42.0627 1.3847 41.9393Q1.4885 41.8159 1.59888 41.6984Q1.70926 41.5809 1.8259 41.4696Q1.94254 41.3582 2.06508 41.2534Q2.18763 41.1487 2.31571 41.0507Q2.4438 40.9528 2.57705 40.862Q2.71029 40.7712 2.8483 40.6878Q2.98631 40.6044 3.12867 40.5287Q3.27102 40.453 3.4173 40.3852Q3.56358 40.3174 3.71335 40.2576L32.3575 28.8336Q33.0949 28.5395 33.7283 28.061Q34.3617 27.5824 34.846 26.9534L53.8288 2.29988Q53.9317 2.16627 54.0421 2.03875Q54.1524 1.91123 54.2699 1.79022Q54.3873 1.66921 54.5115 1.55512Q54.6357 1.44102 54.7662 1.3342Q54.8966 1.22738 55.033 1.12819Q55.1694 1.029 55.3112 0.937771Q55.4531 0.846537 55.5999 0.763554Q55.7467 0.680572 55.898 0.606113Q56.0493 0.531653 56.2046 0.46596Q56.3599 0.400267 56.5187 0.343555Q56.6775 0.286843 56.8393 0.239297Q57.0011 0.191751 57.1654 0.153527Q57.3296 0.115302 57.4958 0.0865238Q57.6619 0.0577456 57.8295 0.0385077Q57.997 0.0192698 58.1654 0.00963512Q58.3337 4.34547e-07 58.5024 4.17233e-07Q58.671 3.99918e-07 58.8394 0.00963505Q59.0077 0.0192697 59.1753 0.0385075Q59.3428 0.0577454 59.509 0.0865236Q59.6751 0.115302 59.8394 0.153526Q60.0036 0.191751 60.1654 0.239297Q60.3272 0.286843 60.486 0.343555Q60.6448 0.400267 60.8001 0.46596Q60.9555 0.531653 61.1068 0.606112Q61.2581 0.680571 61.4049 0.763554Q61.5517 0.846536 61.6935 0.93777Q61.8353 1.029 61.9717 1.12819Q62.1081 1.22738 62.2386 1.3342Q62.3691 1.44102 62.4932 1.55511Q62.6174 1.66921 62.7349 1.79022Q62.8523 1.91123 62.9627 2.03875Q63.073 2.16627 63.1759 2.29988L63.1759 2.29988Z" fill="#FFA500" fill-rule="evenodd" transform="translate(129 0)" />
    <path id="Star" d="M63.1759 2.29988L82.1587 26.9534Q82.643 27.5824 83.2764 28.061Q83.9098 28.5395 84.6472 28.8336L113.291 40.2576Q113.441 40.3174 113.587 40.3852Q113.734 40.453 113.876 40.5287Q114.018 40.6044 114.156 40.6878Q114.294 40.7712 114.428 40.862Q114.561 40.9528 114.689 41.0507Q114.817 41.1487 114.94 41.2534Q115.062 41.3582 115.179 41.4696Q115.295 41.5809 115.406 41.6984Q115.516 41.8159 115.62 41.9393Q115.724 42.0627 115.821 42.1916Q115.918 42.3205 116.007 42.4544Q116.097 42.5884 116.179 42.7271Q116.262 42.8658 116.336 43.0087Q116.411 43.1517 116.477 43.2985Q116.544 43.4453 116.603 43.5956Q116.661 43.7458 116.711 43.899Q116.761 44.0523 116.803 44.208Q116.845 44.3637 116.878 44.5215Q116.911 44.6793 116.936 44.8386Q116.961 44.998 116.976 45.1585Q116.992 45.3189 116.999 45.48Q117.006 45.6411 117.004 45.8023Q117.003 45.9636 116.992 46.1244Q116.981 46.2853 116.962 46.4454Q116.943 46.6055 116.914 46.7642Q116.886 46.923 116.85 47.08Q116.813 47.237 116.768 47.3918Q116.722 47.5465 116.669 47.6986Q116.615 47.8506 116.553 47.9995Q116.491 48.1484 116.422 48.2937Q116.352 48.439 116.274 48.5803Q116.196 48.7216 116.111 48.8584L99.1892 75.9837Q98.789 76.6253 98.5636 77.3471Q98.3381 78.0689 98.302 78.8242L96.7688 110.922Q96.7608 111.088 96.7436 111.253Q96.7264 111.418 96.7 111.582Q96.6735 111.745 96.6379 111.907Q96.6023 112.069 96.5577 112.229Q96.513 112.389 96.4595 112.546Q96.4059 112.703 96.3436 112.856Q96.2813 113.01 96.2105 113.16Q96.1397 113.31 96.0605 113.456Q95.9814 113.601 95.8942 113.742Q95.807 113.883 95.712 114.019Q95.617 114.155 95.5145 114.286Q95.412 114.416 95.3024 114.541Q95.1927 114.665 95.0763 114.783Q94.9598 114.901 94.8369 115.012Q94.714 115.124 94.585 115.228Q94.456 115.332 94.3214 115.429Q94.1868 115.526 94.0469 115.615Q93.9071 115.704 93.7624 115.785Q93.6178 115.866 93.4688 115.939Q93.3198 116.012 93.167 116.077Q93.0142 116.141 92.8579 116.197Q92.7017 116.252 92.5427 116.299Q92.3836 116.346 92.2221 116.384Q92.0606 116.422 91.8973 116.45Q91.7339 116.479 91.5692 116.499Q91.4045 116.518 91.239 116.528Q91.0735 116.538 90.9076 116.539Q90.7418 116.54 90.5762 116.532Q90.4105 116.523 90.2457 116.505Q90.0808 116.488 89.9171 116.461Q89.7535 116.434 89.5916 116.398Q89.4298 116.361 89.2702 116.316L60.1092 108.06Q59.7171 107.949 59.3135 107.893Q58.9098 107.837 58.5023 107.837Q58.0949 107.837 57.6912 107.893Q57.2876 107.949 56.8955 108.06L27.7345 116.316Q27.5749 116.361 27.413 116.398Q27.2512 116.434 27.0876 116.461Q26.9239 116.488 26.759 116.505Q26.5941 116.523 26.4285 116.532Q26.2629 116.54 26.0971 116.539Q25.9312 116.538 25.7657 116.528Q25.6002 116.518 25.4355 116.499Q25.2708 116.479 25.1074 116.45Q24.9441 116.422 24.7826 116.384Q24.6211 116.346 24.462 116.299Q24.3029 116.252 24.1467 116.197Q23.9905 116.141 23.8377 116.077Q23.6849 116.012 23.5359 115.939Q23.3869 115.866 23.2423 115.785Q23.0976 115.704 22.9578 115.615Q22.8179 115.526 22.6833 115.429Q22.5486 115.332 22.4197 115.228Q22.2907 115.124 22.1678 115.012Q22.0449 114.901 21.9284 114.783Q21.8119 114.665 21.7023 114.541Q21.5927 114.416 21.4902 114.286Q21.3877 114.155 21.2927 114.019Q21.1977 113.883 21.1105 113.742Q21.0233 113.601 20.9442 113.456Q20.865 113.31 20.7942 113.16Q20.7234 113.01 20.6611 112.856Q20.5988 112.703 20.5452 112.546Q20.4917 112.389 20.447 112.229Q20.4024 112.069 20.3668 111.907Q20.3312 111.745 20.3047 111.582Q20.2783 111.418 20.2611 111.253Q20.2438 111.088 20.2359 110.922L18.7027 78.8243Q18.6666 78.0689 18.4411 77.3471Q18.2157 76.6253 17.8155 75.9837L0.893921 48.8584Q0.80858 48.7216 0.73084 48.5803Q0.6531 48.439 0.583193 48.2937Q0.513287 48.1484 0.451422 47.9995Q0.389557 47.8506 0.33592 47.6986Q0.282282 47.5465 0.237031 47.3918Q0.19178 47.237 0.155052 47.08Q0.118323 46.923 0.0902266 46.7642Q0.0621299 46.6055 0.0427491 46.4454Q0.0233683 46.2853 0.0127611 46.1244Q0.00215397 45.9636 0.000352213 45.8023Q-0.00144955 45.6411 0.00555945 45.48Q0.0125684 45.3189 0.0283673 45.1585Q0.0441661 44.998 0.0687076 44.8386Q0.093249 44.6793 0.12646 44.5215Q0.159671 44.3637 0.201452 44.208Q0.243233 44.0523 0.293459 43.899Q0.343685 43.7458 0.402207 43.5956Q0.460728 43.4453 0.527371 43.2985Q0.594013 43.1517 0.668577 43.0087Q0.74314 42.8658 0.825403 42.7271Q0.907665 42.5884 0.997381 42.4544Q1.0871 42.3205 1.184 42.1916Q1.2809 42.0627 1.38469 41.9393Q1.48849 41.8159 1.59887 41.6984Q1.70926 41.5809 1.82589 41.4696Q1.94253 41.3582 2.06508 41.2534Q2.18762 41.1487 2.31571 41.0507Q2.4438 40.9528 2.57705 40.862Q2.71029 40.7712 2.8483 40.6878Q2.98631 40.6044 3.12866 40.5287Q3.27102 40.453 3.4173 40.3852Q3.56358 40.3174 3.71335 40.2576L32.3575 28.8336Q33.0949 28.5395 33.7283 28.061Q34.3617 27.5824 34.846 26.9534L53.8288 2.29988Q53.9317 2.16627 54.0421 2.03875Q54.1524 1.91123 54.2699 1.79022Q54.3873 1.66921 54.5115 1.55512Q54.6357 1.44102 54.7662 1.3342Q54.8966 1.22738 55.033 1.12819Q55.1694 1.029 55.3112 0.937771Q55.4531 0.846537 55.5999 0.763554Q55.7467 0.680572 55.898 0.606113Q56.0493 0.531653 56.2046 0.46596Q56.3599 0.400267 56.5187 0.343555Q56.6775 0.286843 56.8393 0.239297Q57.0011 0.191751 57.1654 0.153527Q57.3296 0.115302 57.4958 0.0865238Q57.6619 0.0577456 57.8295 0.0385077Q57.997 0.0192698 58.1654 0.00963512Q58.3337 4.34547e-07 58.5023 4.17233e-07Q58.671 3.99918e-07 58.8393 0.00963505Q59.0077 0.0192697 59.1752 0.0385075Q59.3428 0.0577454 59.5089 0.0865236Q59.6751 0.115302 59.8393 0.153526Q60.0036 0.191751 60.1654 0.239297Q60.3272 0.286843 60.486 0.343555Q60.6448 0.400267 60.8001 0.46596Q60.9554 0.531653 61.1067 0.606112Q61.258 0.680571 61.4048 0.763554Q61.5517 0.846536 61.6935 0.93777Q61.8353 1.029 61.9717 1.12819Q62.1081 1.22738 62.2385 1.3342Q62.369 1.44102 62.4932 1.55511Q62.6174 1.66921 62.7348 1.79022Q62.8523 1.91123 62.9626 2.03875Q63.073 2.16627 63.1759 2.29988L63.1759 2.29988Z" fill="#FFA500" fill-rule="evenodd" transform="translate(258 0)" />
    <path id="Star" d="M63.1759 2.29988L82.1587 26.9534Q82.643 27.5824 83.2764 28.061Q83.9098 28.5395 84.6472 28.8336L113.291 40.2576Q113.441 40.3174 113.587 40.3852Q113.734 40.453 113.876 40.5287Q114.018 40.6044 114.156 40.6878Q114.294 40.7712 114.428 40.862Q114.561 40.9528 114.689 41.0507Q114.817 41.1487 114.94 41.2534Q115.062 41.3582 115.179 41.4696Q115.295 41.5809 115.406 41.6984Q115.516 41.8159 115.62 41.9393Q115.724 42.0627 115.821 42.1916Q115.918 42.3205 116.007 42.4544Q116.097 42.5884 116.179 42.7271Q116.262 42.8658 116.336 43.0087Q116.411 43.1517 116.477 43.2985Q116.544 43.4453 116.603 43.5956Q116.661 43.7458 116.711 43.899Q116.761 44.0523 116.803 44.208Q116.845 44.3637 116.878 44.5215Q116.911 44.6793 116.936 44.8386Q116.961 44.998 116.976 45.1585Q116.992 45.3189 116.999 45.48Q117.006 45.6411 117.004 45.8023Q117.003 45.9636 116.992 46.1244Q116.981 46.2853 116.962 46.4454Q116.943 46.6055 116.914 46.7642Q116.886 46.923 116.85 47.08Q116.813 47.237 116.768 47.3918Q116.722 47.5465 116.669 47.6986Q116.615 47.8506 116.553 47.9995Q116.491 48.1484 116.422 48.2937Q116.352 48.439 116.274 48.5803Q116.196 48.7216 116.111 48.8584L99.1892 75.9837Q98.789 76.6253 98.5636 77.3471Q98.3381 78.0689 98.302 78.8242L96.7688 110.922Q96.7608 111.088 96.7436 111.253Q96.7264 111.418 96.7 111.582Q96.6735 111.745 96.6379 111.907Q96.6023 112.069 96.5577 112.229Q96.513 112.389 96.4595 112.546Q96.4059 112.703 96.3436 112.856Q96.2813 113.01 96.2105 113.16Q96.1397 113.31 96.0605 113.456Q95.9814 113.601 95.8942 113.742Q95.807 113.883 95.712 114.019Q95.617 114.155 95.5145 114.286Q95.412 114.416 95.3024 114.541Q95.1927 114.665 95.0763 114.783Q94.9598 114.901 94.8369 115.012Q94.714 115.124 94.585 115.228Q94.456 115.332 94.3214 115.429Q94.1868 115.526 94.0469 115.615Q93.9071 115.704 93.7624 115.785Q93.6178 115.866 93.4688 115.939Q93.3198 116.012 93.167 116.077Q93.0142 116.141 92.8579 116.197Q92.7017 116.252 92.5427 116.299Q92.3836 116.346 92.2221 116.384Q92.0606 116.422 91.8973 116.45Q91.7339 116.479 91.5692 116.499Q91.4045 116.518 91.239 116.528Q91.0735 116.538 90.9076 116.539Q90.7418 116.54 90.5762 116.532Q90.4105 116.523 90.2457 116.505Q90.0808 116.488 89.9171 116.461Q89.7535 116.434 89.5916 116.398Q89.4298 116.361 89.2702 116.316L60.1092 108.06Q59.7171 107.949 59.3135 107.893Q58.9098 107.837 58.5023 107.837Q58.0949 107.837 57.6912 107.893Q57.2876 107.949 56.8955 108.06L27.7345 116.316Q27.5749 116.361 27.413 116.398Q27.2512 116.434 27.0876 116.461Q26.9239 116.488 26.759 116.505Q26.5941 116.523 26.4285 116.532Q26.2629 116.54 26.0971 116.539Q25.9312 116.538 25.7657 116.528Q25.6002 116.518 25.4355 116.499Q25.2708 116.479 25.1074 116.45Q24.9441 116.422 24.7826 116.384Q24.6211 116.346 24.462 116.299Q24.3029 116.252 24.1467 116.197Q23.9905 116.141 23.8377 116.077Q23.6849 116.012 23.5359 115.939Q23.3869 115.866 23.2423 115.785Q23.0976 115.704 22.9578 115.615Q22.8179 115.526 22.6833 115.429Q22.5486 115.332 22.4197 115.228Q22.2907 115.124 22.1678 115.012Q22.0449 114.901 21.9284 114.783Q21.8119 114.665 21.7023 114.541Q21.5927 114.416 21.4902 114.286Q21.3877 114.155 21.2927 114.019Q21.1977 113.883 21.1105 113.742Q21.0233 113.601 20.9442 113.456Q20.865 113.31 20.7942 113.16Q20.7234 113.01 20.6611 112.856Q20.5988 112.703 20.5452 112.546Q20.4917 112.389 20.447 112.229Q20.4024 112.069 20.3668 111.907Q20.3312 111.745 20.3047 111.582Q20.2783 111.418 20.2611 111.253Q20.2438 111.088 20.2359 110.922L18.7027 78.8243Q18.6666 78.0689 18.4411 77.3471Q18.2157 76.6253 17.8155 75.9837L0.893921 48.8584Q0.80858 48.7216 0.73084 48.5803Q0.6531 48.439 0.583193 48.2937Q0.513287 48.1484 0.451422 47.9995Q0.389557 47.8506 0.33592 47.6986Q0.282282 47.5465 0.237031 47.3918Q0.19178 47.237 0.155052 47.08Q0.118323 46.923 0.0902266 46.7642Q0.0621299 46.6055 0.0427491 46.4454Q0.0233683 46.2853 0.0127611 46.1244Q0.00215397 45.9636 0.000352213 45.8023Q-0.00144955 45.6411 0.00555945 45.48Q0.0125684 45.3189 0.0283673 45.1585Q0.0441661 44.998 0.0687076 44.8386Q0.093249 44.6793 0.12646 44.5215Q0.159671 44.3637 0.201452 44.208Q0.243233 44.0523 0.293459 43.899Q0.343685 43.7458 0.402207 43.5956Q0.460728 43.4453 0.527371 43.2985Q0.594013 43.1517 0.668577 43.0087Q0.74314 42.8658 0.825403 42.7271Q0.907665 42.5884 0.997381 42.4544Q1.0871 42.3205 1.184 42.1916Q1.2809 42.0627 1.38469 41.9393Q1.48849 41.8159 1.59887 41.6984Q1.70926 41.5809 1.82589 41.4696Q1.94253 41.3582 2.06508 41.2534Q2.18762 41.1487 2.31571 41.0507Q2.4438 40.9528 2.57705 40.862Q2.71029 40.7712 2.8483 40.6878Q2.98631 40.6044 3.12866 40.5287Q3.27102 40.453 3.4173 40.3852Q3.56358 40.3174 3.71335 40.2576L32.3575 28.8336Q33.0949 28.5395 33.7283 28.061Q34.3617 27.5824 34.846 26.9534L53.8288 2.29988Q53.9317 2.16627 54.0421 2.03875Q54.1524 1.91123 54.2699 1.79022Q54.3873 1.66921 54.5115 1.55512Q54.6357 1.44102 54.7662 1.3342Q54.8966 1.22738 55.033 1.12819Q55.1694 1.029 55.3112 0.937771Q55.4531 0.846537 55.5999 0.763554Q55.7467 0.680572 55.898 0.606113Q56.0493 0.531653 56.2046 0.46596Q56.3599 0.400267 56.5187 0.343555Q56.6775 0.286843 56.8393 0.239297Q57.0011 0.191751 57.1654 0.153527Q57.3296 0.115302 57.4958 0.0865238Q57.6619 0.0577456 57.8295 0.0385077Q57.997 0.0192698 58.1654 0.00963512Q58.3337 4.34547e-07 58.5023 4.17233e-07Q58.671 3.99918e-07 58.8393 0.00963505Q59.0077 0.0192697 59.1752 0.0385075Q59.3428 0.0577454 59.5089 0.0865236Q59.6751 0.115302 59.8393 0.153526Q60.0036 0.191751 60.1654 0.239297Q60.3272 0.286843 60.486 0.343555Q60.6448 0.400267 60.8001 0.46596Q60.9554 0.531653 61.1067 0.606112Q61.258 0.680571 61.4048 0.763554Q61.5517 0.846536 61.6935 0.93777Q61.8353 1.029 61.9717 1.12819Q62.1081 1.22738 62.2385 1.3342Q62.369 1.44102 62.4932 1.55511Q62.6174 1.66921 62.7348 1.79022Q62.8523 1.91123 62.9626 2.03875Q63.073 2.16627 63.1759 2.29988L63.1759 2.29988Z" fill="#FFA500" fill-rule="evenodd" transform="translate(387 0)" />
    <path id="Star" d="M63.1759 2.29988L82.1588 26.9534Q82.6431 27.5824 83.2765 28.061Q83.9098 28.5395 84.6472 28.8336L113.291 40.2576Q113.441 40.3174 113.587 40.3852Q113.734 40.453 113.876 40.5287Q114.018 40.6044 114.156 40.6878Q114.294 40.7712 114.428 40.862Q114.561 40.9528 114.689 41.0507Q114.817 41.1487 114.94 41.2534Q115.062 41.3582 115.179 41.4696Q115.295 41.5809 115.406 41.6984Q115.516 41.8159 115.62 41.9393Q115.724 42.0627 115.821 42.1916Q115.918 42.3205 116.007 42.4544Q116.097 42.5884 116.179 42.7271Q116.262 42.8658 116.336 43.0087Q116.411 43.1517 116.477 43.2985Q116.544 43.4453 116.603 43.5956Q116.661 43.7458 116.711 43.899Q116.762 44.0523 116.803 44.208Q116.845 44.3637 116.878 44.5215Q116.911 44.6793 116.936 44.8386Q116.961 44.998 116.976 45.1585Q116.992 45.3189 116.999 45.48Q117.006 45.6411 117.004 45.8023Q117.003 45.9636 116.992 46.1244Q116.981 46.2853 116.962 46.4454Q116.943 46.6055 116.915 46.7642Q116.886 46.923 116.85 47.08Q116.813 47.237 116.768 47.3918Q116.722 47.5465 116.669 47.6986Q116.615 47.8506 116.553 47.9995Q116.491 48.1484 116.422 48.2937Q116.352 48.439 116.274 48.5803Q116.196 48.7216 116.111 48.8584L99.1893 75.9837Q98.789 76.6253 98.5636 77.3471Q98.3382 78.0689 98.3021 78.8242L96.7688 110.922Q96.7609 111.088 96.7437 111.253Q96.7265 111.418 96.7 111.582Q96.6736 111.745 96.638 111.907Q96.6024 112.069 96.5577 112.229Q96.5131 112.389 96.4595 112.546Q96.4059 112.703 96.3437 112.856Q96.2814 113.01 96.2106 113.16Q96.1397 113.31 96.0606 113.456Q95.9814 113.601 95.8942 113.742Q95.807 113.883 95.712 114.019Q95.617 114.155 95.5146 114.286Q95.4121 114.416 95.3024 114.541Q95.1928 114.665 95.0763 114.783Q94.9599 114.901 94.8369 115.012Q94.714 115.124 94.5851 115.228Q94.4561 115.332 94.3215 115.429Q94.1868 115.526 94.047 115.615Q93.9071 115.704 93.7625 115.785Q93.6178 115.866 93.4688 115.939Q93.3199 116.012 93.167 116.077Q93.0142 116.141 92.858 116.197Q92.7018 116.252 92.5427 116.299Q92.3836 116.346 92.2221 116.384Q92.0607 116.422 91.8973 116.45Q91.734 116.479 91.5693 116.499Q91.4046 116.518 91.2391 116.528Q91.0735 116.538 90.9077 116.539Q90.7418 116.54 90.5762 116.532Q90.4106 116.523 90.2457 116.505Q90.0808 116.488 89.9172 116.461Q89.7535 116.434 89.5917 116.398Q89.4298 116.361 89.2703 116.316L60.1092 108.06Q59.7171 107.949 59.3135 107.893Q58.9099 107.837 58.5024 107.837Q58.0949 107.837 57.6913 107.893Q57.2877 107.949 56.8956 108.06L27.7345 116.316Q27.5749 116.361 27.4131 116.398Q27.2512 116.434 27.0876 116.461Q26.9239 116.488 26.7591 116.505Q26.5942 116.523 26.4285 116.532Q26.2629 116.54 26.0971 116.539Q25.9312 116.538 25.7657 116.528Q25.6002 116.518 25.4355 116.499Q25.2708 116.479 25.1074 116.45Q24.9441 116.422 24.7826 116.384Q24.6211 116.346 24.4621 116.299Q24.303 116.252 24.1468 116.197Q23.9905 116.141 23.8377 116.077Q23.6849 116.012 23.5359 115.939Q23.3869 115.866 23.2423 115.785Q23.0976 115.704 22.9578 115.615Q22.8179 115.526 22.6833 115.429Q22.5487 115.332 22.4197 115.228Q22.2907 115.124 22.1678 115.012Q22.0449 114.901 21.9284 114.783Q21.812 114.665 21.7023 114.541Q21.5927 114.416 21.4902 114.286Q21.3877 114.155 21.2927 114.019Q21.1977 113.883 21.1105 113.742Q21.0233 113.601 20.9442 113.456Q20.865 113.31 20.7942 113.16Q20.7234 113.01 20.6611 112.856Q20.5988 112.703 20.5453 112.546Q20.4917 112.389 20.447 112.229Q20.4024 112.069 20.3668 111.907Q20.3312 111.745 20.3047 111.582Q20.2783 111.418 20.2611 111.253Q20.2439 111.088 20.236 110.922L18.7027 78.8243Q18.6666 78.0689 18.4412 77.3471Q18.2157 76.6253 17.8155 75.9837L0.893921 48.8584Q0.808581 48.7216 0.730841 48.5803Q0.653102 48.439 0.583196 48.2937Q0.51329 48.1484 0.451426 47.9995Q0.389562 47.8506 0.335925 47.6986Q0.282288 47.5465 0.237038 47.3918Q0.191788 47.237 0.15506 47.08Q0.118332 46.923 0.0902364 46.7642Q0.0621405 46.6055 0.0427603 46.4454Q0.0233802 46.2853 0.0127737 46.1244Q0.00216723 45.9636 0.000366131 45.8023Q-0.00143497 45.6411 0.00557467 45.48Q0.0125843 45.3189 0.0283838 45.1585Q0.0441832 44.998 0.0687253 44.8386Q0.0932674 44.6793 0.126479 44.5215Q0.15969 44.3637 0.201472 44.208Q0.243253 44.0523 0.29348 43.899Q0.343707 43.7458 0.402229 43.5956Q0.460751 43.4453 0.527394 43.2985Q0.594037 43.1517 0.668601 43.0087Q0.743165 42.8658 0.825428 42.7271Q0.907691 42.5884 0.997407 42.4544Q1.08712 42.3205 1.18402 42.1916Q1.28093 42.0627 1.38472 41.9393Q1.48852 41.8159 1.5989 41.6984Q1.70928 41.5809 1.82592 41.4696Q1.94256 41.3582 2.06511 41.2534Q2.18765 41.1487 2.31574 41.0507Q2.44383 40.9528 2.57708 40.862Q2.71032 40.7712 2.84833 40.6878Q2.98634 40.6044 3.12869 40.5287Q3.27105 40.453 3.41733 40.3852Q3.56361 40.3174 3.71338 40.2576L32.3575 28.8336Q33.0949 28.5395 33.7283 28.061Q34.3617 27.5824 34.846 26.9534L53.8289 2.29988Q53.9317 2.16627 54.0421 2.03875Q54.1524 1.91123 54.2699 1.79022Q54.3873 1.66921 54.5115 1.55512Q54.6357 1.44102 54.7662 1.3342Q54.8967 1.22738 55.0331 1.12819Q55.1694 1.029 55.3113 0.937771Q55.4531 0.846537 55.5999 0.763554Q55.7467 0.680572 55.898 0.606113Q56.0493 0.531653 56.2046 0.46596Q56.3599 0.400267 56.5187 0.343555Q56.6776 0.286843 56.8394 0.239297Q57.0011 0.191751 57.1654 0.153527Q57.3296 0.115302 57.4958 0.0865238Q57.662 0.0577456 57.8295 0.0385077Q57.997 0.0192698 58.1654 0.00963512Q58.3337 4.34547e-07 58.5024 4.17233e-07Q58.671 3.99918e-07 58.8394 0.00963505Q59.0077 0.0192697 59.1753 0.0385075Q59.3428 0.0577454 59.509 0.0865236Q59.6751 0.115302 59.8394 0.153526Q60.0036 0.191751 60.1654 0.239297Q60.3272 0.286843 60.486 0.343555Q60.6448 0.400267 60.8001 0.46596Q60.9555 0.531653 61.1068 0.606112Q61.2581 0.680571 61.4049 0.763554Q61.5517 0.846536 61.6935 0.93777Q61.8353 1.029 61.9717 1.12819Q62.1081 1.22738 62.2386 1.3342Q62.3691 1.44102 62.4932 1.55511Q62.6174 1.66921 62.7349 1.79022Q62.8523 1.91123 62.9627 2.03875Q63.073 2.16627 63.1759 2.29988L63.1759 2.29988Z" fill="#FFA500" fill-rule="evenodd" transform="translate(516 0)" />
  </g>
</svg>