<?xml version="1.0" encoding="utf-8"?>
<svg width="39" height="39" viewBox="0 0 39 39" fill="none" xmlns="http://www.w3.org/2000/svg">
  <g id="Group" transform="translate(0 -0)">
    <path id="Rectangle" d="M30 0C34.9712 0 39 4.02876 39 9L39 30C39 34.9712 34.9712 39 30 39L9 39C4.02876 39 0 34.9712 0 30L0 9C0 4.02876 4.02876 0 9 0L30 0Z" fill="#FFFFFF" />
    <path id="Path" d="M15.2503 0.126812C15.5085 0.272143 23.3178 5.20798 23.4518 5.30642C23.4965 5.34392 23.5362 5.40485 23.5362 5.44704C23.5362 5.48922 23.01 7.51419 22.3646 9.94226C21.7242 12.375 21.0639 14.8781 20.9001 15.5109C20.7362 16.1437 20.5923 16.7015 20.5774 16.7531C20.5376 16.9031 20.7263 16.6781 24.3752 12.3469C26.2668 10.1063 27.8455 8.25011 27.8852 8.23136C27.9349 8.20324 28.0292 8.23136 28.1682 8.30635C28.4561 8.47043 34.0214 11.9907 34.0959 12.0563C34.1406 12.0985 34.1158 12.2579 33.9916 12.7454C33.381 15.075 31.7725 21.5249 31.7874 21.5764C31.7973 21.6233 32.2739 21.5389 33.8377 21.2014C34.9597 20.9624 36.0172 20.7327 36.191 20.6905C36.3647 20.653 36.6245 20.6093 36.6345 20.6187C36.6642 20.6468 36.2178 21.8451 35.8751 22.6064C35.5822 23.2861 34.9002 24.4592 34.5328 25.0264C34.1406 25.6404 33.4924 26.4969 33.2939 26.7078C33.2939 26.7078 33.113 26.9012 33.113 26.9012C33.113 26.9012 28.5356 27.7263 28.5356 27.7263C25.9987 28.181 23.9135 28.5372 23.8986 28.5232C23.8688 28.4951 23.8589 28.5279 25.1299 23.4514C25.6462 21.3889 26.0682 19.6687 26.0682 19.6358C26.0682 19.5796 25.2192 20.5733 21.5256 24.9561C20.5674 26.0904 19.6837 27.1357 19.5596 27.281C19.5596 27.281 19.3263 27.5435 19.3263 27.5435C19.3263 27.5435 16.1589 27.0138 16.1589 27.0138C14.4113 26.7232 12.778 26.4513 12.5297 26.4092C12.1524 26.3435 12.068 26.3154 12.068 26.2451C12.068 26.2029 12.7631 23.5311 13.6071 20.3155C14.456 17.0953 15.1411 14.4609 15.1312 14.4516C15.1163 14.4375 15.022 14.5781 9.01482 23.4092C6.89494 26.5263 5.20828 29.0648 5.18842 29.0882C5.08913 29.182 3.70768 27.9419 2.83391 26.9013C1.78142 25.6404 0.862967 24.1545 0.207641 22.6592C-0.000871181 22.1858 -0.0306587 22.0874 0.0239516 22.0264C0.0934559 21.9514 8.37935 9.75009 12.5397 3.59553C13.8801 1.61743 14.9823 0.000256062 14.9972 0.000256062C15.012 -0.00445318 15.1213 0.0565095 15.2503 0.126812C15.2503 0.126812 15.2503 0.126812 15.2503 0.126812Z" fill="#111214" fill-rule="evenodd" transform="matrix(1 -0 -0 -1 2 34)" />
  </g>
</svg>