<?xml version="1.0" encoding="utf-8"?>
<svg width="178.764" height="178.766" viewBox="0 0 178.764 178.766" fill="none" xmlns="http://www.w3.org/2000/svg">
  <g id="Group">
    <path id="Rectangle" d="M89.3822 0C138.753 0 178.764 40.0111 178.764 89.3822L178.764 89.3822C178.764 138.753 138.753 178.764 89.3822 178.764L89.3822 178.764C40.0111 178.764 0 138.753 0 89.3822L0 89.3822C0 40.0111 40.0111 0 89.3822 0Z" fill="#FF5326" />
    <path id="Path" d="M70.2497 0.61923C71.4389 1.3289 107.412 25.431 108.029 25.9117C108.235 26.0948 108.418 26.3924 108.418 26.5983C108.418 26.8043 105.994 36.6924 103.021 48.5489C100.071 60.4284 97.0294 72.6511 96.2747 75.7412C95.52 78.8312 94.8568 81.555 94.7882 81.8067C94.6052 82.5392 95.4742 81.4405 112.283 60.2911C120.996 49.3501 128.268 40.286 128.451 40.1944C128.68 40.0571 129.115 40.1944 129.755 40.5606C131.081 41.3618 156.717 58.5515 157.06 58.8719C157.266 59.078 157.152 59.8562 156.58 62.2366C153.767 73.6124 146.358 105.108 146.426 105.36C146.472 105.588 148.667 105.176 155.871 103.528C161.04 102.361 165.911 101.24 166.711 101.034C167.512 100.85 168.708 100.637 168.754 100.683C168.891 100.82 166.835 106.672 165.256 110.389C163.907 113.708 160.765 119.436 159.073 122.206C157.266 125.204 154.281 129.387 153.366 130.417C153.366 130.417 152.533 131.361 152.533 131.361C152.533 131.361 131.447 135.39 131.447 135.39C119.761 137.61 110.156 139.35 110.087 139.281C109.95 139.144 109.904 139.304 115.759 114.515C118.137 104.444 120.081 96.0437 120.081 95.8835C120.081 95.6088 116.171 100.461 99.1561 121.863C94.7424 127.402 90.6717 132.506 90.1 133.216C90.1 133.216 89.0251 134.497 89.0251 134.497C89.0251 134.497 74.4346 131.911 74.4346 131.911C66.3848 130.492 58.8608 129.164 57.7174 128.958C55.9793 128.638 55.5905 128.5 55.5905 128.157C55.5905 127.951 58.7922 114.904 62.68 99.2024C66.5906 83.4776 69.7465 70.614 69.7008 70.5682C69.6322 70.4996 69.1977 71.1862 41.5261 114.309C31.761 129.53 23.9916 141.926 23.9001 142.04C23.4427 142.498 17.0792 136.443 13.0542 131.362C8.20597 125.204 3.9752 117.949 0.956486 110.647C-0.00401306 108.335 -0.141227 107.854 0.110332 107.557C0.430498 107.191 38.5989 47.6105 57.7631 17.5573C63.9378 7.89805 69.0147 0.00124931 69.0833 0.00124931C69.1519 -0.0217457 69.6551 0.275938 70.2497 0.61923C70.2497 0.61923 70.2497 0.61923 70.2497 0.61923Z" fill="#FFDD00" fill-rule="evenodd" transform="matrix(1 0 0 -1 6.218 156.445)" />
  </g>
</svg>