<?xml version="1.0" encoding="utf-8"?>
<svg width="39" height="39" viewBox="0 0 39 39" fill="none" xmlns="http://www.w3.org/2000/svg">
  <g id="Group">
    <path id="Rectangle" d="M30 0C34.9712 0 39 4.02876 39 9L39 30C39 34.9712 34.9712 39 30 39L9 39C4.02876 39 0 34.9712 0 30L0 9C0 4.02876 4.02876 0 9 0L30 0Z" fill="#FFFFFF" />
    <path id="Path" d="M14.9856 0.126407C15.2393 0.271272 22.913 5.19129 23.0448 5.28942C23.0887 5.3268 23.1277 5.38754 23.1277 5.42958C23.1277 5.47164 22.6106 7.49012 21.9764 9.91041C21.3471 12.3354 20.6983 14.8304 20.5373 15.4612C20.3763 16.092 20.2348 16.648 20.2202 16.6994C20.1812 16.8489 20.3665 16.6247 23.9522 12.3074C25.8108 10.074 27.3622 8.22368 27.4012 8.20499C27.45 8.17696 27.5427 8.20499 27.6793 8.27974C27.9622 8.4433 33.4309 11.9523 33.5041 12.0177C33.548 12.0597 33.5236 12.2186 33.4016 12.7045C32.8016 15.0267 31.221 21.4559 31.2357 21.5073C31.2454 21.554 31.7137 21.4699 33.2504 21.1335C34.3529 20.8952 35.3921 20.6663 35.5628 20.6242C35.7335 20.5868 35.9888 20.5433 35.9986 20.5526C36.0278 20.5807 35.5892 21.7751 35.2524 22.534C34.9646 23.2115 34.2944 24.3808 33.9334 24.9462C33.548 25.5583 32.9111 26.412 32.716 26.6223C32.716 26.6223 32.5383 26.815 32.5383 26.815C32.5383 26.815 28.0403 27.6375 28.0403 27.6375C25.5474 28.0907 23.4985 28.4458 23.4838 28.4318C23.4546 28.4038 23.4448 28.4365 24.6937 23.3763C25.201 21.3204 25.6157 19.6056 25.6157 19.5729C25.6157 19.5169 24.7815 20.5074 21.152 24.8761C20.2104 26.0068 19.3421 27.0488 19.2201 27.1936C19.2201 27.1936 18.9908 27.4553 18.9908 27.4553C18.9908 27.4553 15.8784 26.9273 15.8784 26.9273C14.1612 26.6376 12.5562 26.3666 12.3123 26.3246C11.9415 26.2591 11.8586 26.2311 11.8586 26.161C11.8586 26.119 12.5415 23.4557 13.3709 20.2504C14.2051 17.0405 14.8783 14.4146 14.8686 14.4053C14.8539 14.3913 14.7612 14.5314 8.85835 23.3342C6.77526 26.4414 5.11788 28.9716 5.09836 28.995C5.0008 29.0885 3.64332 27.8524 2.78472 26.8152C1.7505 25.5583 0.847988 24.0771 0.204037 22.5866C-0.000856042 22.1147 -0.0301266 22.0166 0.023536 21.9559C0.0918338 21.8811 8.23391 9.71885 12.322 3.58401C13.6392 1.61225 14.7222 0.000254631 14.7368 0.000254631C14.7515 -0.00443745 14.8588 0.0563288 14.9856 0.126407C14.9856 0.126407 14.9856 0.126407 14.9856 0.126407Z" fill="#2A2B30" fill-rule="evenodd" transform="matrix(1 0 0 -1 1 34)" />
  </g>
</svg>