<?xml version="1.0" encoding="utf-8"?>
<svg width="426" height="249" viewBox="0 0 426 249" fill="none" xmlns="http://www.w3.org/2000/svg">
  <g id="Group" transform="translate(2.5 2.5)">
    <path id="Rectangle" d="M8.89844 0L412.102 0Q412.32 0 412.538 0.0107186Q412.756 0.0214371 412.974 0.0428484Q413.191 0.0642597 413.407 0.0963121Q413.623 0.128365 413.838 0.170981Q414.052 0.213597 414.264 0.266675Q414.476 0.319753 414.685 0.383164Q414.894 0.446575 415.099 0.520166Q415.305 0.593758 415.507 0.677353Q415.709 0.760948 415.906 0.854345Q416.104 0.947742 416.296 1.05072Q416.489 1.15369 416.676 1.26599Q416.864 1.3783 417.045 1.49966Q417.227 1.62102 417.402 1.75115Q417.578 1.88127 417.747 2.01985Q417.916 2.15843 418.077 2.30513Q418.239 2.45183 418.394 2.60629Q418.548 2.76076 418.695 2.92261Q418.842 3.08447 418.98 3.25333Q419.119 3.42219 419.249 3.59764Q419.379 3.7731 419.5 3.95473Q419.622 4.13636 419.734 4.32373Q419.846 4.51109 419.949 4.70374Q420.052 4.89639 420.146 5.09386Q420.239 5.29134 420.323 5.49315Q420.406 5.69497 420.48 5.90064Q420.553 6.10632 420.617 6.31536Q420.68 6.5244 420.733 6.73629Q420.786 6.94819 420.829 7.16244Q420.872 7.37669 420.904 7.59277Q420.936 7.80885 420.957 8.02624Q420.979 8.24363 420.989 8.46181Q421 8.67999 421 8.89844L421 235.102Q421 235.32 420.989 235.538Q420.979 235.756 420.957 235.974Q420.936 236.191 420.904 236.407Q420.872 236.623 420.829 236.838Q420.786 237.052 420.733 237.264Q420.68 237.476 420.617 237.685Q420.553 237.894 420.48 238.099Q420.406 238.305 420.323 238.507Q420.239 238.709 420.146 238.906Q420.052 239.104 419.949 239.296Q419.846 239.489 419.734 239.676Q419.622 239.864 419.5 240.045Q419.379 240.227 419.249 240.402Q419.119 240.578 418.98 240.747Q418.842 240.915 418.695 241.077Q418.548 241.239 418.394 241.394Q418.239 241.548 418.077 241.695Q417.916 241.842 417.747 241.98Q417.578 242.119 417.402 242.249Q417.227 242.379 417.045 242.5Q416.864 242.622 416.676 242.734Q416.489 242.846 416.296 242.949Q416.104 243.052 415.906 243.146Q415.709 243.239 415.507 243.323Q415.305 243.406 415.099 243.48Q414.894 243.553 414.685 243.617Q414.476 243.68 414.264 243.733Q414.052 243.786 413.838 243.829Q413.623 243.872 413.407 243.904Q413.191 243.936 412.974 243.957Q412.756 243.979 412.538 243.989Q412.32 244 412.102 244L8.89844 244Q8.67999 244 8.46181 243.989Q8.24363 243.979 8.02624 243.957Q7.80885 243.936 7.59277 243.904Q7.37669 243.872 7.16244 243.829Q6.94819 243.786 6.73629 243.733Q6.52439 243.68 6.31536 243.617Q6.10632 243.553 5.90064 243.48Q5.69497 243.406 5.49315 243.323Q5.29134 243.239 5.09386 243.146Q4.89639 243.052 4.70374 242.949Q4.51109 242.846 4.32373 242.734Q4.13636 242.622 3.95473 242.5Q3.7731 242.379 3.59764 242.249Q3.42219 242.119 3.25333 241.98Q3.08447 241.842 2.92261 241.695Q2.76076 241.548 2.60629 241.394Q2.45183 241.239 2.30513 241.077Q2.15843 240.915 2.01985 240.747Q1.88127 240.578 1.75115 240.402Q1.62102 240.227 1.49966 240.045Q1.3783 239.864 1.26599 239.676Q1.15369 239.489 1.05072 239.296Q0.947742 239.104 0.854345 238.906Q0.760948 238.709 0.677353 238.507Q0.593758 238.305 0.520166 238.099Q0.446575 237.894 0.383164 237.685Q0.319753 237.476 0.266675 237.264Q0.213597 237.052 0.170981 236.838Q0.128365 236.623 0.0963121 236.407Q0.0642597 236.191 0.0428484 235.974Q0.0214371 235.756 0.0107186 235.538Q0 235.32 0 235.102L0 8.89844Q0 8.67999 0.0107186 8.46181Q0.0214371 8.24363 0.0428484 8.02624Q0.0642597 7.80885 0.0963121 7.59277Q0.128365 7.37669 0.170981 7.16244Q0.213597 6.94819 0.266675 6.73629Q0.319753 6.52439 0.383164 6.31536Q0.446575 6.10632 0.520166 5.90064Q0.593758 5.69497 0.677353 5.49315Q0.760948 5.29134 0.854345 5.09386Q0.947742 4.89639 1.05072 4.70374Q1.15369 4.51109 1.26599 4.32373Q1.3783 4.13636 1.49966 3.95473Q1.62102 3.7731 1.75115 3.59764Q1.88127 3.42219 2.01985 3.25333Q2.15843 3.08447 2.30513 2.92261Q2.45183 2.76076 2.60629 2.60629Q2.76076 2.45183 2.92261 2.30513Q3.08447 2.15843 3.25333 2.01985Q3.42219 1.88127 3.59764 1.75115Q3.7731 1.62102 3.95473 1.49966Q4.13636 1.3783 4.32373 1.26599Q4.51109 1.15369 4.70374 1.05072Q4.89639 0.947742 5.09386 0.854345Q5.29134 0.760948 5.49315 0.677353Q5.69497 0.593758 5.90064 0.520166Q6.10632 0.446575 6.31536 0.383164Q6.5244 0.319753 6.73629 0.266675Q6.94819 0.213597 7.16244 0.170981Q7.37669 0.128365 7.59277 0.0963121Q7.80885 0.0642597 8.02624 0.0428484Q8.24363 0.0214371 8.46181 0.0107186Q8.67999 0 8.89844 0Z" fill="#1F1F23" fill-rule="evenodd" stroke-width="5" stroke="#00A0C8" />
    <path d="M26.544 11.136L26.544 14.352L13.632 44.544L7.824 44.544L6.672 44.352L19.152 16.656L4.32 16.656L4.32 11.136L26.544 11.136ZM45.792 23.568Q49.008 23.568 51.504 24.96Q54 26.352 55.392 28.8Q56.784 31.248 56.784 34.272Q56.784 37.536 55.152 39.984Q53.52 42.432 50.544 43.752Q47.568 45.072 43.632 45.072Q40.608 45.072 37.68 44.28Q34.752 43.488 32.496 42L32.496 35.856L32.688 35.856Q34.848 37.536 37.872 38.592Q40.896 39.648 43.488 39.648Q46.56 39.648 48.432 38.136Q50.304 36.624 50.304 34.176Q50.304 31.872 48.696 30.432Q47.088 28.992 44.496 28.992Q41.04 28.992 37.92 31.536L37.728 31.536L33.552 30.24L33.552 30L35.712 11.136L55.2 11.136L55.2 16.656L40.992 16.656L40.08 24.816Q42.816 23.568 45.792 23.568ZM75.36 29.04L75.36 34.128L62.88 34.128L62.88 29.04L75.36 29.04ZM93.648 45.12Q89.904 45.12 86.976 43.872Q84.048 42.624 82.416 40.368Q80.784 38.112 80.784 35.28Q80.784 32.544 82.296 30.384Q83.808 28.224 86.112 27.36Q83.952 26.64 82.68 24.48Q81.408 22.32 81.408 19.776Q81.408 17.04 82.968 14.928Q84.528 12.816 87.312 11.688Q90.096 10.56 93.6 10.56Q97.152 10.56 99.912 11.688Q102.672 12.816 104.232 14.904Q105.792 16.992 105.792 19.728Q105.792 22.272 104.496 24.432Q103.2 26.592 101.04 27.36Q103.584 28.272 105 30.456Q106.416 32.64 106.416 35.28Q106.416 38.16 104.784 40.392Q103.152 42.624 100.248 43.872Q97.344 45.12 93.648 45.12ZM93.6 24.624Q96.336 24.624 97.848 23.496Q99.36 22.368 99.36 20.256Q99.36 18.144 97.872 16.992Q96.384 15.84 93.6 15.84Q90.816 15.84 89.328 16.992Q87.84 18.144 87.84 20.256Q87.84 22.368 89.328 23.496Q90.816 24.624 93.6 24.624ZM93.6 39.792Q96.624 39.792 98.256 38.496Q99.888 37.2 99.888 34.896Q99.888 32.544 98.256 31.272Q96.624 30 93.6 30Q90.624 30 88.968 31.272Q87.312 32.544 87.312 34.896Q87.312 37.248 88.944 38.52Q90.576 39.792 93.6 39.792ZM124.512 23.568Q127.728 23.568 130.224 24.96Q132.72 26.352 134.112 28.8Q135.504 31.248 135.504 34.272Q135.504 37.536 133.872 39.984Q132.24 42.432 129.264 43.752Q126.288 45.072 122.352 45.072Q119.328 45.072 116.4 44.28Q113.472 43.488 111.216 42L111.216 35.856L111.408 35.856Q113.568 37.536 116.592 38.592Q119.616 39.648 122.208 39.648Q125.28 39.648 127.152 38.136Q129.024 36.624 129.024 34.176Q129.024 31.872 127.416 30.432Q125.808 28.992 123.216 28.992Q119.76 28.992 116.64 31.536L116.448 31.536L112.272 30.24L112.272 30L114.432 11.136L133.92 11.136L133.92 16.656L119.712 16.656L118.8 24.816Q121.536 23.568 124.512 23.568ZM148.992 11.136L155.328 11.136L154.752 23.712L149.568 23.712L148.992 11.136ZM140.352 11.136L146.688 11.136L146.112 23.712L140.928 23.712L140.352 11.136Z" fill="#FFFFFF" transform="translate(131 90)" />
    <path id="Path" d="M0 0L202 0" fill="none" stroke-width="5" stroke="#00A0C8" stroke-linecap="round" transform="translate(102 32)" />
    <path id="Path" d="M0 0.0898438L0 0L0 133.34" fill="none" stroke-width="5" stroke="#00A0C8" stroke-linecap="round" transform="translate(389 56)" />
    <path d="M25.092 8.352L25.092 33.408L20.34 33.408L20.34 22.392L8.46 22.392L8.46 33.408L3.708 33.408L3.708 8.352L8.46 8.352L8.46 18.18L20.34 18.18L20.34 8.352L25.092 8.352Z" fill="#00A0C8" transform="translate(351 98)" />
    <path d="M3.708 8.352L8.46 8.352L8.46 29.232L19.008 29.232L19.008 33.408L3.708 33.408L3.708 8.352Z" fill="#00A0C8" transform="translate(200 36)" />
  </g>
</svg>